<?xml version="1.0" encoding="UTF-8" ?>
<!DOCTYPE svg PUBLIC "-//W3C//DTD SVG 1.1//EN" "http://www.w3.org/Graphics/SVG/1.1/DTD/svg11.dtd">
<svg width="640pt" height="640pt" viewBox="0 0 640 640" version="1.1" xmlns="http://www.w3.org/2000/svg">
<g id="#ffffffff">
<path fill="#ffffff" opacity="1.00" d=" M 0.00 0.00 L 640.00 0.00 L 640.00 640.00 L 0.00 640.00 L 0.00 0.00 M 304.47 98.46 C 299.62 103.89 300.96 111.78 303.22 118.03 C 301.33 124.22 296.86 129.52 296.07 136.08 C 294.68 138.45 294.16 141.24 292.58 143.52 C 289.94 147.30 288.61 151.75 286.93 155.99 C 285.77 159.23 283.36 161.85 282.29 165.14 C 281.05 168.24 280.14 171.55 278.20 174.31 C 273.43 174.68 268.73 175.45 264.04 176.39 C 260.25 177.06 256.91 175.26 254.01 173.25 C 250.45 171.16 246.37 170.19 242.78 168.16 C 239.03 166.10 234.35 166.05 231.19 162.96 C 227.41 161.36 223.60 159.72 219.63 158.62 C 219.89 158.11 220.16 157.61 220.43 157.11 C 216.11 156.57 212.24 154.57 208.45 152.57 C 203.23 150.29 198.12 147.72 192.57 146.32 C 191.91 142.67 191.95 138.93 191.41 135.27 C 190.03 131.18 186.61 128.26 183.25 125.77 C 179.84 122.99 175.12 123.50 171.01 123.42 C 167.35 123.64 162.99 123.30 160.22 126.16 C 158.41 128.00 155.81 129.31 155.04 131.95 C 153.11 136.73 153.28 141.98 153.57 147.03 C 153.73 150.00 154.58 153.08 156.82 155.17 C 160.31 158.64 164.83 161.80 169.99 161.54 C 174.67 161.58 179.91 161.88 183.83 158.84 C 185.43 157.89 186.90 156.07 188.97 156.53 C 191.80 157.18 194.60 157.99 197.50 158.39 C 197.17 158.81 196.84 159.23 196.51 159.65 C 198.82 160.23 201.17 160.66 203.47 161.29 C 203.15 161.74 202.84 162.18 202.53 162.63 C 207.89 163.51 213.06 165.59 217.69 168.41 C 219.45 169.48 221.52 169.77 223.47 170.34 C 223.17 170.79 222.86 171.24 222.53 171.67 C 225.92 172.42 229.42 172.86 232.52 174.54 C 237.92 176.50 242.18 180.97 248.16 181.32 C 248.77 184.39 254.72 183.24 254.32 186.97 C 253.24 192.61 253.17 198.40 254.31 204.04 C 255.33 209.44 249.98 212.49 246.92 215.96 C 242.19 221.58 235.55 225.30 231.30 231.33 C 229.75 233.34 227.01 234.44 226.33 237.07 C 222.68 237.75 222.13 243.20 218.09 243.33 C 212.42 241.71 207.02 238.74 201.01 238.62 C 196.62 238.39 192.33 239.48 188.07 240.33 C 184.58 240.81 182.65 244.12 179.88 245.93 C 176.58 248.10 173.81 251.02 172.04 254.57 C 168.41 254.07 164.86 253.16 161.25 252.57 C 162.08 252.17 162.93 251.80 163.76 251.41 C 158.22 251.02 154.15 245.94 148.42 246.70 C 148.81 246.23 149.20 245.77 149.59 245.31 C 147.30 244.92 144.87 244.65 143.16 242.91 C 140.36 240.20 136.21 240.37 133.02 238.43 C 128.43 235.01 121.89 235.43 117.74 231.27 C 117.14 226.40 117.01 220.57 112.60 217.40 C 106.30 211.47 96.05 212.69 89.47 217.48 C 85.21 222.57 84.83 229.69 85.85 235.98 C 86.96 239.79 89.89 243.29 93.82 244.34 C 97.43 245.59 101.30 245.75 105.07 245.46 C 108.41 245.27 110.77 242.29 114.06 241.94 C 116.98 242.25 120.19 242.35 122.59 244.25 C 129.80 250.27 139.15 252.60 147.51 256.41 C 149.12 258.00 151.38 258.27 153.55 258.32 C 153.20 258.75 152.85 259.18 152.51 259.62 C 157.01 260.15 160.88 262.60 165.07 264.13 C 166.11 264.55 167.58 264.92 167.42 266.38 C 167.76 271.60 168.05 276.82 168.50 282.03 C 168.69 281.45 169.07 280.29 169.27 279.71 C 169.64 281.92 170.14 284.12 170.99 286.20 C 172.31 288.41 175.10 289.57 175.75 292.22 C 176.84 294.85 175.87 298.25 173.01 299.14 C 171.73 302.58 169.68 305.59 167.34 308.40 C 161.71 317.16 155.59 325.62 150.08 334.43 C 145.54 334.57 140.25 335.42 137.50 339.49 C 135.08 342.41 135.24 346.43 135.68 349.98 C 137.78 359.39 152.58 361.81 157.40 353.37 C 160.84 349.32 158.72 343.90 159.18 339.18 C 160.70 334.26 164.31 330.39 167.39 326.39 C 170.49 321.22 174.12 316.46 177.57 311.54 C 181.15 308.72 181.16 302.93 186.02 301.54 C 192.89 301.33 199.94 303.74 206.72 301.67 C 210.33 299.88 214.49 299.27 217.76 296.82 C 219.36 295.97 220.92 294.27 222.88 294.68 C 226.41 296.92 230.25 298.73 233.39 301.54 C 235.39 303.37 237.73 304.80 240.20 305.92 C 243.84 310.03 249.47 311.75 253.43 315.56 C 253.79 318.37 253.39 321.22 253.52 324.05 C 253.97 330.95 256.11 338.68 262.56 342.30 C 269.29 345.16 277.29 345.50 284.18 343.07 C 290.03 341.08 292.08 334.79 295.09 330.04 C 299.70 328.34 304.01 325.64 308.96 324.96 C 312.89 323.69 316.72 322.13 320.85 321.58 C 324.07 321.20 326.44 318.75 329.41 317.79 C 333.51 317.43 337.52 316.08 341.15 314.27 C 350.23 312.57 358.73 308.36 367.98 307.53 C 372.02 310.90 374.66 315.98 379.72 318.13 C 385.45 320.36 391.86 321.02 397.92 319.90 C 400.61 319.48 403.61 319.20 405.47 316.99 C 408.24 315.36 410.51 317.94 412.15 319.89 C 414.65 323.05 418.51 324.65 421.07 327.76 C 423.09 330.50 425.64 332.86 428.67 334.44 C 432.71 336.58 434.47 341.19 438.19 343.76 C 441.45 345.76 439.90 349.89 440.64 352.94 C 442.61 354.73 442.03 358.09 444.61 359.31 C 449.62 363.48 456.73 363.24 462.66 361.60 C 467.15 358.79 469.79 353.25 469.50 347.97 C 469.57 344.17 466.99 341.09 464.78 338.26 C 463.22 335.97 460.31 335.55 457.84 334.88 C 453.62 333.79 449.50 335.81 445.28 335.72 C 440.88 330.44 435.17 326.51 430.28 321.73 C 425.91 317.07 420.83 313.16 416.40 308.57 C 416.30 305.49 418.43 302.83 418.94 299.83 C 420.80 289.73 417.72 278.09 409.08 271.91 C 405.92 269.37 401.92 268.44 398.35 266.69 C 397.45 261.17 398.10 255.56 398.08 250.00 C 398.07 229.64 398.11 209.28 397.98 188.92 C 397.65 185.99 400.80 185.02 402.83 183.83 C 404.90 182.34 407.09 184.09 408.95 185.07 C 421.48 192.88 434.67 199.63 446.95 207.85 C 450.17 209.68 453.45 211.43 456.58 213.41 C 460.22 215.69 464.67 217.12 467.11 220.90 C 483.18 242.90 498.64 265.35 514.70 287.36 C 517.91 291.05 515.16 296.77 518.69 300.33 C 521.57 304.16 526.99 304.64 531.23 303.15 C 536.57 300.17 538.47 292.41 534.44 287.57 C 532.65 283.82 527.48 284.92 525.20 281.79 C 509.95 260.01 494.18 238.58 478.93 216.81 C 477.59 212.49 483.93 211.52 484.92 207.75 C 486.82 206.56 488.44 205.00 489.97 203.38 C 494.38 199.66 499.16 196.36 503.07 192.09 C 504.10 190.77 505.74 190.30 507.23 189.69 C 507.07 189.24 506.94 188.80 506.83 188.35 C 512.14 185.55 516.00 180.78 521.04 177.62 C 525.06 176.89 529.01 178.67 533.04 178.29 C 536.56 177.51 539.97 176.02 542.91 173.94 C 544.92 170.65 546.71 166.96 546.64 163.02 C 546.72 158.84 546.57 153.81 542.67 151.27 C 540.58 148.64 537.39 147.21 534.02 147.36 C 529.43 147.43 523.75 146.37 520.44 150.38 C 519.15 150.12 518.22 150.55 517.65 151.69 C 515.84 154.45 514.20 157.57 514.34 160.97 C 514.14 163.20 514.71 165.60 513.86 167.72 C 512.11 170.31 509.52 172.16 507.21 174.21 C 495.27 184.25 483.60 194.59 471.61 204.55 C 469.11 206.87 465.75 205.11 463.32 203.67 C 447.69 194.24 431.97 185.06 416.28 175.77 C 414.64 174.77 412.68 174.15 411.40 172.68 C 410.54 168.25 411.11 163.35 408.55 159.40 C 406.44 156.26 403.69 153.47 400.34 151.67 C 396.90 149.72 392.77 149.97 388.97 150.14 C 386.19 150.26 383.79 152.06 381.04 152.15 C 377.27 150.97 375.05 147.34 371.85 145.24 C 364.95 140.54 358.97 134.65 352.11 129.91 C 347.16 125.46 341.48 121.95 336.62 117.40 C 334.21 115.14 331.01 113.63 329.14 110.84 C 328.66 108.47 328.86 106.00 328.16 103.68 C 326.35 99.26 322.52 95.52 317.81 94.41 C 313.10 93.77 307.96 95.18 304.47 98.46 M 167.35 389.45 C 165.41 392.26 164.12 395.46 162.67 398.54 C 158.69 408.48 153.92 418.08 149.85 427.98 C 141.50 445.53 134.17 463.51 126.07 481.16 C 125.37 482.53 125.15 483.98 125.41 485.52 C 132.57 485.69 139.80 485.97 146.94 485.38 C 148.98 480.48 151.65 475.73 152.51 470.44 C 152.85 470.82 153.19 471.20 153.53 471.59 C 153.95 469.35 153.57 465.10 156.97 465.54 C 171.61 465.55 186.28 465.29 200.92 465.66 C 203.55 472.28 205.72 479.14 208.95 485.49 C 216.49 485.84 224.07 485.75 231.61 485.51 C 231.59 484.88 231.55 483.62 231.54 482.99 C 229.22 478.46 227.70 473.55 224.99 469.23 C 223.74 466.69 223.42 463.78 221.89 461.37 C 219.23 457.46 218.35 452.73 216.24 448.56 C 214.05 443.18 210.12 438.39 209.52 432.47 C 209.18 432.82 208.84 433.16 208.49 433.51 C 207.74 430.00 206.24 426.73 204.64 423.54 C 200.40 413.24 195.27 403.36 190.86 393.13 C 190.17 391.54 189.32 389.95 187.94 388.86 C 183.64 388.46 179.31 388.83 175.00 388.70 C 172.45 388.80 169.74 388.33 167.35 389.45 M 242.52 389.93 C 242.52 421.73 242.25 453.56 242.66 485.35 C 248.41 486.07 254.23 485.46 260.01 485.69 C 261.62 485.50 263.49 486.10 264.91 485.08 C 265.45 482.08 265.19 479.02 265.23 475.99 C 265.22 448.65 265.22 421.31 265.24 393.96 C 265.22 392.39 265.01 390.83 264.63 389.31 C 259.86 388.07 254.86 388.99 250.00 388.69 C 247.53 388.94 244.44 387.89 242.52 389.93 M 288.38 389.23 C 288.39 421.36 288.34 453.50 288.41 485.63 C 292.93 485.95 297.49 485.42 302.00 486.02 C 304.23 486.26 306.61 486.65 308.73 485.65 C 309.55 484.26 309.25 482.56 309.35 481.03 C 309.28 464.38 309.23 447.72 309.40 431.08 C 311.49 431.69 312.06 434.10 313.24 435.69 C 318.42 444.80 324.31 453.50 329.45 462.63 C 332.96 466.49 334.14 471.90 338.01 475.47 C 341.30 475.76 344.67 475.89 347.94 475.31 C 352.21 469.80 354.99 463.33 358.59 457.39 C 363.42 449.82 368.11 442.15 372.28 434.19 C 373.25 432.67 373.85 430.43 375.90 430.12 C 376.60 433.70 376.25 437.38 376.33 441.01 C 376.41 455.85 376.37 470.69 376.45 485.52 C 379.56 486.45 382.82 486.33 386.01 485.85 C 389.80 485.42 394.11 487.49 397.50 485.04 C 397.53 454.02 397.44 422.98 397.38 391.96 C 398.07 388.66 394.27 388.66 392.04 388.70 C 387.55 388.95 382.84 387.97 378.54 389.56 C 374.98 395.12 371.61 400.83 368.51 406.66 C 365.51 410.18 364.07 414.65 361.44 418.43 C 355.07 428.28 350.15 439.08 343.06 448.45 C 337.63 441.57 334.12 433.39 328.98 426.30 C 322.32 414.31 314.85 402.78 308.17 390.80 C 307.02 388.67 304.11 388.89 302.02 388.70 C 297.48 388.88 292.84 388.20 288.38 389.23 M 420.53 390.97 C 420.60 422.30 420.43 453.64 420.61 484.97 C 425.21 487.59 430.95 485.85 436.00 485.75 C 451.33 485.67 466.67 485.75 482.01 485.72 C 486.53 485.97 491.12 486.83 495.58 485.53 C 495.72 479.83 495.67 474.13 495.63 468.43 C 489.78 467.65 483.86 467.54 477.99 468.16 C 470.00 468.35 462.00 468.16 454.00 468.24 C 450.40 468.20 446.74 468.52 443.22 467.61 C 442.02 463.90 442.92 459.85 442.66 456.00 C 442.88 452.80 442.04 449.37 443.29 446.35 C 445.72 445.29 448.43 445.74 451.01 445.65 C 463.19 445.65 475.38 445.77 487.56 445.60 C 487.60 439.88 487.56 434.16 487.55 428.44 C 473.05 428.29 458.54 428.62 444.05 428.29 C 441.42 426.03 443.10 422.02 442.65 418.99 C 443.15 415.24 441.42 410.62 443.93 407.49 C 460.44 407.34 476.95 407.44 493.46 407.47 C 494.38 401.48 494.93 395.20 493.69 389.24 C 492.23 388.55 490.57 388.74 489.02 388.68 C 467.34 388.75 445.66 388.70 423.98 388.71 C 422.59 388.60 420.13 389.02 420.53 390.97 M 338.31 500.13 C 338.28 517.93 338.05 535.76 338.45 553.56 C 340.09 553.66 341.73 553.66 343.37 553.52 C 343.73 551.75 343.95 549.96 344.33 548.21 C 347.20 548.62 348.10 552.41 351.05 552.69 C 354.97 553.61 359.06 553.62 363.07 553.28 C 369.70 552.74 374.53 547.11 377.30 541.52 C 378.19 534.75 378.56 527.23 374.72 521.23 C 372.30 518.66 369.31 516.65 366.24 514.94 C 361.19 513.22 355.45 513.14 350.56 515.44 C 347.80 516.37 346.86 520.35 343.49 519.72 C 343.07 512.80 344.08 505.77 343.06 498.90 C 341.62 498.32 338.11 497.57 338.31 500.13 M 252.25 501.31 C 251.71 502.79 251.61 504.39 251.59 505.97 C 251.59 519.65 251.64 533.33 251.59 547.01 C 251.63 548.65 251.52 550.36 252.06 551.96 C 253.55 552.81 255.35 552.49 257.00 552.61 C 265.00 552.54 273.00 552.54 281.00 552.61 C 282.67 552.50 284.48 552.77 286.04 551.98 C 286.44 550.78 286.33 549.61 285.71 548.47 C 277.79 548.38 269.88 548.48 261.96 548.49 C 260.42 548.43 258.81 548.49 257.38 547.82 C 257.27 534.21 257.38 520.60 257.37 506.98 C 257.34 505.08 257.22 503.16 256.70 501.32 C 255.21 501.19 253.73 501.19 252.25 501.31 M 298.66 514.90 C 295.92 516.06 292.44 518.28 293.25 521.77 C 294.39 522.41 295.54 522.43 296.69 521.81 C 302.19 518.29 309.44 518.97 315.47 520.57 C 317.93 523.64 318.41 527.83 318.51 531.64 C 312.35 531.54 306.15 531.18 300.01 531.76 C 296.65 532.62 293.01 534.56 291.77 538.00 C 291.21 541.68 291.18 545.71 292.93 549.09 C 294.36 549.95 295.93 550.56 297.43 551.31 C 297.12 551.78 296.81 552.26 296.50 552.74 C 297.06 552.78 298.17 552.85 298.73 552.88 C 299.58 553.95 300.68 554.43 302.04 554.34 C 306.26 554.65 310.48 554.21 314.67 553.66 C 317.26 553.27 319.38 555.57 321.99 555.16 C 324.04 555.14 326.60 554.19 326.84 551.85 C 327.24 546.23 325.96 540.63 326.30 535.00 C 326.85 529.05 324.51 523.36 321.76 518.24 C 321.32 518.19 320.45 518.10 320.01 518.05 C 317.81 517.11 316.76 514.17 314.14 514.30 C 308.99 513.69 303.74 513.89 298.66 514.90 Z" />
<path fill="#ffffff" opacity="1.00" d=" M 313.63 122.55 C 317.67 121.00 323.27 120.32 326.54 123.79 C 332.01 128.60 338.05 132.72 343.67 137.34 C 348.51 143.03 355.55 146.03 360.98 151.05 C 362.92 152.89 365.10 154.51 367.56 155.61 C 369.43 158.03 372.37 159.30 374.34 161.55 C 375.08 166.92 374.17 172.63 376.41 177.74 C 378.70 182.18 383.74 183.77 387.56 186.52 C 388.26 188.24 388.27 190.13 388.33 191.96 C 388.20 212.31 388.36 232.66 388.28 253.00 C 388.19 257.80 388.76 262.72 387.39 267.39 C 384.92 268.37 381.85 269.32 379.41 267.82 C 372.11 263.80 367.15 256.86 360.41 252.09 C 355.77 248.59 351.85 244.24 347.05 240.95 C 344.10 238.97 342.00 236.06 339.35 233.76 C 331.98 228.16 325.65 221.33 318.26 215.76 C 311.42 210.61 305.80 204.01 298.56 199.34 C 293.90 196.94 296.01 190.93 293.88 186.99 C 292.39 184.46 290.25 182.39 288.74 179.87 C 287.55 174.88 291.83 171.02 293.53 166.72 C 296.49 159.20 299.73 151.76 303.92 144.84 C 306.74 137.22 311.00 130.24 313.63 122.55 Z" />
<path fill="#ffffff" opacity="1.00" d=" M 287.75 212.72 C 289.64 211.39 290.74 207.76 293.51 208.53 C 305.06 217.54 315.38 228.04 326.71 237.33 C 331.44 240.12 334.96 244.34 339.02 247.94 C 344.59 251.83 348.75 257.37 354.71 260.76 C 356.63 263.95 359.80 265.98 362.42 268.53 C 365.25 270.97 368.99 272.72 370.74 276.17 C 369.90 279.90 367.64 283.07 366.38 286.64 C 365.12 290.01 365.96 293.68 365.20 297.15 C 358.70 298.86 352.25 300.74 345.89 302.95 C 342.49 303.39 339.50 305.20 336.18 305.92 C 330.03 307.45 323.91 309.13 317.85 310.96 C 312.00 314.15 305.44 315.54 299.05 317.21 C 297.33 317.60 294.89 317.80 294.18 315.74 C 291.66 310.54 287.15 306.32 281.74 304.24 C 277.92 303.18 273.87 303.25 269.96 303.62 C 266.18 303.97 262.89 306.87 259.04 306.36 C 254.30 304.12 250.40 300.44 246.16 297.41 C 240.97 292.87 234.23 290.26 229.78 284.85 C 229.94 275.55 232.50 265.55 228.23 256.74 C 227.43 254.56 225.49 251.74 227.58 249.69 C 231.16 246.42 234.85 243.25 238.24 239.77 C 244.80 232.51 252.23 226.12 258.94 218.98 C 260.60 217.37 262.24 214.90 264.93 215.64 C 272.48 216.55 281.46 218.15 287.75 212.72 Z" />
</g>
<g id="#f8c3a8ff">
<path fill="#f8c3a8" opacity="1.00" d=" M 304.47 98.46 C 307.96 95.18 313.10 93.77 317.81 94.41 C 322.52 95.52 326.35 99.26 328.16 103.68 C 328.86 106.00 328.66 108.47 329.14 110.84 C 331.01 113.63 334.21 115.14 336.62 117.40 C 341.48 121.95 347.16 125.46 352.11 129.91 C 358.97 134.65 364.95 140.54 371.85 145.24 C 375.05 147.34 377.27 150.97 381.04 152.15 C 383.79 152.06 386.19 150.26 388.97 150.14 C 392.77 149.97 396.90 149.72 400.34 151.67 C 403.69 153.47 406.44 156.26 408.55 159.40 C 411.11 163.35 410.54 168.25 411.40 172.68 C 412.68 174.15 414.64 174.77 416.28 175.77 C 431.97 185.06 447.69 194.24 463.32 203.67 C 465.75 205.11 469.11 206.87 471.61 204.55 C 483.60 194.59 495.27 184.25 507.21 174.21 C 509.52 172.16 512.11 170.31 513.86 167.72 C 514.71 165.60 514.14 163.20 514.34 160.97 C 514.20 157.57 515.84 154.45 517.65 151.69 C 518.22 150.55 519.15 150.12 520.44 150.38 C 519.00 152.63 517.42 154.85 516.52 157.40 C 515.52 161.00 516.40 164.84 515.52 168.46 C 512.96 172.22 508.81 174.46 505.52 177.51 C 494.52 187.18 483.42 196.74 472.27 206.24 C 470.91 207.34 469.11 208.33 467.34 207.60 C 463.50 205.82 460.06 203.31 456.27 201.43 C 445.29 194.29 433.65 188.24 422.49 181.40 C 418.28 178.71 413.35 176.90 409.85 173.26 C 409.04 170.06 409.30 166.69 408.51 163.48 C 405.66 153.61 392.43 147.68 383.74 154.08 C 380.73 154.54 378.18 152.90 376.06 150.97 C 363.69 140.24 350.22 130.86 337.72 120.29 C 334.69 117.63 331.04 115.71 328.28 112.75 C 325.87 108.68 327.27 102.94 323.48 99.53 C 317.61 93.23 305.54 95.75 303.05 104.15 C 300.42 109.99 306.45 115.78 303.63 121.52 C 301.39 126.50 299.52 131.76 296.07 136.08 C 296.86 129.52 301.33 124.22 303.22 118.03 C 300.96 111.78 299.62 103.89 304.47 98.46 Z" />
</g>
<g id="#fb984aff">
<path fill="#fb984a" opacity="1.00" d=" M 303.05 104.15 C 305.54 95.75 317.61 93.23 323.48 99.53 C 327.27 102.94 325.87 108.68 328.28 112.75 C 331.04 115.71 334.69 117.63 337.72 120.29 C 350.22 130.86 363.69 140.24 376.06 150.97 C 378.18 152.90 380.73 154.54 383.74 154.08 C 381.96 155.15 379.62 155.43 377.89 154.08 C 372.96 150.77 368.61 146.68 363.90 143.07 C 362.72 142.21 361.44 141.39 359.97 141.13 C 358.28 141.71 357.02 143.10 356.28 144.70 C 359.92 148.44 366.10 150.11 367.56 155.61 C 365.10 154.51 362.92 152.89 360.98 151.05 C 355.55 146.03 348.51 143.03 343.67 137.34 C 338.05 132.72 332.01 128.60 326.54 123.79 C 323.27 120.32 317.67 121.00 313.63 122.55 C 311.00 130.24 306.74 137.22 303.92 144.84 C 299.73 151.76 296.49 159.20 293.53 166.72 C 291.83 171.02 287.55 174.88 288.74 179.87 C 290.25 182.39 292.39 184.46 293.88 186.99 C 296.01 190.93 293.90 196.94 298.56 199.34 C 305.80 204.01 311.42 210.61 318.26 215.76 C 325.65 221.33 331.98 228.16 339.35 233.76 C 342.00 236.06 344.10 238.97 347.05 240.95 C 351.85 244.24 355.77 248.59 360.41 252.09 C 357.75 254.38 355.27 257.16 354.71 260.76 C 348.75 257.37 344.59 251.83 339.02 247.94 C 334.96 244.34 331.44 240.12 326.71 237.33 C 315.38 228.04 305.06 217.54 293.51 208.53 C 290.74 207.76 289.64 211.39 287.75 212.72 C 281.46 218.15 272.48 216.55 264.93 215.64 C 262.24 214.90 260.60 217.37 258.94 218.98 C 252.23 226.12 244.80 232.51 238.24 239.77 C 238.11 239.35 237.84 238.51 237.71 238.10 C 234.97 238.55 232.49 240.10 229.71 240.30 C 227.82 240.30 227.06 238.47 226.33 237.07 C 227.01 234.44 229.75 233.34 231.30 231.33 C 235.55 225.30 242.19 221.58 246.92 215.96 C 249.98 212.49 255.33 209.44 254.31 204.04 C 253.17 198.40 253.24 192.61 254.32 186.97 C 254.72 183.24 248.77 184.39 248.16 181.32 C 248.58 181.13 249.41 180.77 249.83 180.59 C 246.49 176.25 240.02 177.38 236.10 173.88 C 237.07 172.03 238.68 170.05 240.94 169.99 C 242.79 170.72 244.33 172.06 246.18 172.77 C 248.75 173.34 251.40 173.10 254.01 173.25 C 256.91 175.26 260.25 177.06 264.04 176.39 C 268.73 175.45 273.43 174.68 278.20 174.31 C 280.14 171.55 281.05 168.24 282.29 165.14 C 283.36 161.85 285.77 159.23 286.93 155.99 C 288.61 151.75 289.94 147.30 292.58 143.52 C 294.16 141.24 294.68 138.45 296.07 136.08 C 299.52 131.76 301.39 126.50 303.63 121.52 C 306.45 115.78 300.42 109.99 303.05 104.15 Z" />
</g>
<g id="#fcae4aff">
<path fill="#fcae4a" opacity="1.00" d=" M 160.22 126.16 C 162.99 123.30 167.35 123.64 171.01 123.42 C 175.12 123.50 179.84 122.99 183.25 125.77 C 186.61 128.26 190.03 131.18 191.41 135.27 C 191.95 138.93 191.91 142.67 192.57 146.32 C 198.12 147.72 203.23 150.29 208.45 152.57 C 212.24 154.57 216.11 156.57 220.43 157.11 C 220.16 157.61 219.89 158.11 219.63 158.62 C 223.60 159.72 227.41 161.36 231.19 162.96 C 234.35 166.05 239.03 166.10 242.78 168.16 C 246.37 170.19 250.45 171.16 254.01 173.25 C 251.40 173.10 248.75 173.34 246.18 172.77 C 244.33 172.06 242.79 170.72 240.94 169.99 C 238.68 170.05 237.07 172.03 236.10 173.88 C 240.02 177.38 246.49 176.25 249.83 180.59 C 249.41 180.77 248.58 181.13 248.16 181.32 C 242.18 180.97 237.92 176.50 232.52 174.54 C 229.42 172.86 225.92 172.42 222.53 171.67 C 222.86 171.24 223.17 170.79 223.47 170.34 C 221.52 169.77 219.45 169.48 217.69 168.41 C 213.06 165.59 207.89 163.51 202.53 162.63 C 202.84 162.18 203.15 161.74 203.47 161.29 C 201.17 160.66 198.82 160.23 196.51 159.65 C 196.84 159.23 197.17 158.81 197.50 158.39 C 194.60 157.99 191.80 157.18 188.97 156.53 C 186.90 156.07 185.43 157.89 183.83 158.84 C 179.91 161.88 174.67 161.58 169.99 161.54 C 164.83 161.80 160.31 158.64 156.82 155.17 C 154.58 153.08 153.73 150.00 153.57 147.03 C 153.28 141.98 153.11 136.73 155.04 131.95 C 155.81 129.31 158.41 128.00 160.22 126.16 Z" />
</g>
<g id="#fc8248ff">
<path fill="#fc8248" opacity="1.00" d=" M 356.28 144.70 C 357.02 143.10 358.28 141.71 359.97 141.13 C 361.44 141.39 362.72 142.21 363.90 143.07 C 368.61 146.68 372.96 150.77 377.89 154.08 C 379.62 155.43 381.96 155.15 383.74 154.08 C 392.43 147.68 405.66 153.61 408.51 163.48 C 409.30 166.69 409.04 170.06 409.85 173.26 C 413.35 176.90 418.28 178.71 422.49 181.40 C 433.65 188.24 445.29 194.29 456.27 201.43 C 452.53 200.45 449.90 203.15 447.85 205.86 C 444.07 204.26 440.52 202.20 437.07 200.00 C 427.44 194.23 417.74 188.56 408.00 182.99 C 404.02 180.36 399.42 183.66 396.56 186.46 C 396.23 188.28 396.28 190.14 396.29 191.98 C 396.58 217.17 396.11 242.39 396.50 267.57 C 400.83 269.96 406.10 270.66 409.75 274.25 C 415.07 279.30 418.30 286.68 418.32 294.03 C 418.46 299.15 414.94 303.63 415.18 308.71 C 418.74 314.14 424.69 317.44 428.86 322.39 C 427.37 323.60 428.26 325.54 428.28 327.13 C 425.85 326.29 422.64 324.72 421.07 327.76 C 418.51 324.65 414.65 323.05 412.15 319.89 C 410.51 317.94 408.24 315.36 405.47 316.99 C 403.61 319.20 400.61 319.48 397.92 319.90 C 391.86 321.02 385.45 320.36 379.72 318.13 C 374.66 315.98 372.02 310.90 367.98 307.53 C 358.73 308.36 350.23 312.57 341.15 314.27 C 337.70 314.45 334.16 314.51 330.99 312.96 C 329.88 313.37 328.86 313.99 327.78 314.46 C 327.34 314.34 326.45 314.10 326.00 313.97 C 328.31 309.29 334.38 310.60 338.34 308.33 C 342.90 305.66 348.02 304.40 353.16 303.35 C 350.73 303.21 348.31 303.05 345.89 302.95 C 352.25 300.74 358.70 298.86 365.20 297.15 C 365.96 293.68 365.12 290.01 366.38 286.64 C 367.64 283.07 369.90 279.90 370.74 276.17 C 368.99 272.72 365.25 270.97 362.42 268.53 C 359.80 265.98 356.63 263.95 354.71 260.76 C 355.27 257.16 357.75 254.38 360.41 252.09 C 367.15 256.86 372.11 263.80 379.41 267.82 C 381.85 269.32 384.92 268.37 387.39 267.39 C 388.76 262.72 388.19 257.80 388.28 253.00 C 388.36 232.66 388.20 212.31 388.33 191.96 C 388.27 190.13 388.26 188.24 387.56 186.52 C 383.74 183.77 378.70 182.18 376.41 177.74 C 374.17 172.63 375.08 166.92 374.34 161.55 C 372.37 159.30 369.43 158.03 367.56 155.61 C 366.10 150.11 359.92 148.44 356.28 144.70 Z" />
</g>
<g id="#f96a48ff">
<path fill="#f96a48" opacity="1.00" d=" M 520.44 150.38 C 523.75 146.37 529.43 147.43 534.02 147.36 C 537.39 147.21 540.58 148.64 542.67 151.27 C 546.57 153.81 546.72 158.84 546.64 163.02 C 546.71 166.96 544.92 170.65 542.91 173.94 C 539.97 176.02 536.56 177.51 533.04 178.29 C 529.01 178.67 525.06 176.89 521.04 177.62 C 516.00 180.78 512.14 185.55 506.83 188.35 C 506.94 188.80 507.07 189.24 507.23 189.69 C 505.74 190.30 504.10 190.77 503.07 192.09 C 499.16 196.36 494.38 199.66 489.97 203.38 C 488.44 205.00 486.82 206.56 484.92 207.75 C 481.93 209.72 478.55 211.43 476.54 214.52 C 476.07 216.38 477.78 217.84 478.60 219.33 C 493.64 240.02 508.23 261.02 523.34 281.65 C 525.44 284.83 529.38 285.62 532.35 287.69 C 535.14 289.98 535.33 294.16 534.33 297.39 C 531.92 303.43 522.18 303.45 518.85 298.25 C 517.42 294.81 518.74 290.60 516.52 287.42 C 501.75 266.86 487.37 246.03 472.47 225.56 C 469.77 221.66 467.18 217.40 462.87 215.08 C 457.71 212.26 452.76 209.09 447.85 205.86 C 449.90 203.15 452.53 200.45 456.27 201.43 C 460.06 203.31 463.50 205.82 467.34 207.60 C 469.11 208.33 470.91 207.34 472.27 206.24 C 483.42 196.74 494.52 187.18 505.52 177.51 C 508.81 174.46 512.96 172.22 515.52 168.46 C 516.40 164.84 515.52 161.00 516.52 157.40 C 517.42 154.85 519.00 152.63 520.44 150.38 Z" />
</g>
<g id="#f6b69eff">
<path fill="#f6b69e" opacity="1.00" d=" M 396.56 186.46 C 399.42 183.66 404.02 180.36 408.00 182.99 C 417.74 188.56 427.44 194.23 437.07 200.00 C 440.52 202.20 444.07 204.26 447.85 205.86 C 452.76 209.09 457.71 212.26 462.87 215.08 C 467.18 217.40 469.77 221.66 472.47 225.56 C 487.37 246.03 501.75 266.86 516.52 287.42 C 518.74 290.60 517.42 294.81 518.85 298.25 C 522.18 303.45 531.92 303.43 534.33 297.39 C 535.33 294.16 535.14 289.98 532.35 287.69 C 529.38 285.62 525.44 284.83 523.34 281.65 C 508.23 261.02 493.64 240.02 478.60 219.33 C 477.78 217.84 476.07 216.38 476.54 214.52 C 478.55 211.43 481.93 209.72 484.92 207.75 C 483.93 211.52 477.59 212.49 478.93 216.81 C 494.18 238.58 509.95 260.01 525.20 281.79 C 527.48 284.92 532.65 283.82 534.44 287.57 C 538.47 292.41 536.57 300.17 531.23 303.15 C 526.99 304.64 521.57 304.16 518.69 300.33 C 515.16 296.77 517.91 291.05 514.70 287.36 C 498.64 265.35 483.18 242.90 467.11 220.90 C 464.67 217.12 460.22 215.69 456.58 213.41 C 453.45 211.43 450.17 209.68 446.95 207.85 C 434.67 199.63 421.48 192.88 408.95 185.07 C 407.09 184.09 404.90 182.34 402.83 183.83 C 400.80 185.02 397.65 185.99 397.98 188.92 C 398.11 209.28 398.07 229.64 398.08 250.00 C 398.10 255.56 397.45 261.17 398.35 266.69 C 401.92 268.44 405.92 269.37 409.08 271.91 C 417.72 278.09 420.80 289.73 418.94 299.83 C 418.43 302.83 416.30 305.49 416.40 308.57 C 420.83 313.16 425.91 317.07 430.28 321.73 C 435.17 326.51 440.88 330.44 445.28 335.72 C 442.84 335.88 441.35 333.70 439.72 332.28 C 436.28 328.78 432.37 325.81 428.86 322.39 C 424.69 317.44 418.74 314.14 415.18 308.71 C 414.94 303.63 418.46 299.15 418.32 294.03 C 418.30 286.68 415.07 279.30 409.75 274.25 C 406.10 270.66 400.83 269.96 396.50 267.57 C 396.11 242.39 396.58 217.17 396.29 191.98 C 396.28 190.14 396.23 188.28 396.56 186.46 Z" />
</g>
<g id="#fbbb4cff">
<path fill="#fbbb4c" opacity="1.00" d=" M 89.47 217.48 C 96.05 212.69 106.30 211.47 112.60 217.40 C 117.01 220.57 117.14 226.40 117.74 231.27 C 121.89 235.43 128.43 235.01 133.02 238.43 C 136.21 240.37 140.36 240.20 143.16 242.91 C 144.87 244.65 147.30 244.92 149.59 245.31 C 149.20 245.77 148.81 246.23 148.42 246.70 C 154.15 245.94 158.22 251.02 163.76 251.41 C 162.93 251.80 162.08 252.17 161.25 252.57 C 164.86 253.16 168.41 254.07 172.04 254.57 C 168.14 256.91 163.81 255.22 159.85 254.12 C 157.85 253.46 156.04 254.97 155.16 256.63 C 160.18 259.14 166.54 260.40 169.87 265.26 C 170.32 270.07 168.89 274.87 169.27 279.71 C 169.07 280.29 168.69 281.45 168.50 282.03 C 168.05 276.82 167.76 271.60 167.42 266.38 C 167.58 264.92 166.11 264.55 165.07 264.13 C 160.88 262.60 157.01 260.15 152.51 259.62 C 152.85 259.18 153.20 258.75 153.55 258.32 C 151.38 258.27 149.12 258.00 147.51 256.41 C 139.15 252.60 129.80 250.27 122.59 244.25 C 120.19 242.35 116.98 242.25 114.06 241.94 C 110.77 242.29 108.41 245.27 105.07 245.46 C 101.30 245.75 97.43 245.59 93.82 244.34 C 89.89 243.29 86.96 239.79 85.85 235.98 C 84.83 229.69 85.21 222.57 89.47 217.48 Z" />
</g>
<g id="#fdaa49ff">
<path fill="#fdaa49" opacity="1.00" d=" M 218.09 243.33 C 222.13 243.20 222.68 237.75 226.33 237.07 C 227.06 238.47 227.82 240.30 229.71 240.30 C 232.49 240.10 234.97 238.55 237.71 238.10 C 237.84 238.51 238.11 239.35 238.24 239.77 C 234.85 243.25 231.16 246.42 227.58 249.69 C 225.49 251.74 227.43 254.56 228.23 256.74 C 232.50 265.55 229.94 275.55 229.78 284.85 C 234.23 290.26 240.97 292.87 246.16 297.41 C 243.21 298.45 240.39 300.11 239.02 303.05 C 241.72 304.34 244.39 301.18 246.98 302.94 C 245.15 304.72 242.54 305.17 240.20 305.92 C 237.73 304.80 235.39 303.37 233.39 301.54 C 230.25 298.73 226.41 296.92 222.88 294.68 C 220.92 294.27 219.36 295.97 217.76 296.82 C 214.49 299.27 210.33 299.88 206.72 301.67 C 199.94 303.74 192.89 301.33 186.02 301.54 C 181.16 302.93 181.15 308.72 177.57 311.54 C 174.12 316.46 170.49 321.22 167.39 326.39 C 164.31 330.39 160.70 334.26 159.18 339.18 C 158.72 343.90 160.84 349.32 157.40 353.37 C 152.58 361.81 137.78 359.39 135.68 349.98 C 135.24 346.43 135.08 342.41 137.50 339.49 C 140.25 335.42 145.54 334.57 150.08 334.43 C 155.59 325.62 161.71 317.16 167.34 308.40 C 169.68 305.59 171.73 302.58 173.01 299.14 C 175.87 298.25 176.84 294.85 175.75 292.22 C 175.10 289.57 172.31 288.41 170.99 286.20 C 170.14 284.12 169.64 281.92 169.27 279.71 C 168.89 274.87 170.32 270.07 169.87 265.26 C 166.54 260.40 160.18 259.14 155.16 256.63 C 156.04 254.97 157.85 253.46 159.85 254.12 C 163.81 255.22 168.14 256.91 172.04 254.57 C 173.81 251.02 176.58 248.10 179.88 245.93 C 182.65 244.12 184.58 240.81 188.07 240.33 C 192.33 239.48 196.62 238.39 201.01 238.62 C 207.02 238.74 212.42 241.71 218.09 243.33 Z" />
</g>
<g id="#fc9a49ff">
<path fill="#fc9a49" opacity="1.00" d=" M 239.02 303.05 C 240.39 300.11 243.21 298.45 246.16 297.41 C 250.40 300.44 254.30 304.12 259.04 306.36 C 262.89 306.87 266.18 303.97 269.96 303.62 C 273.87 303.25 277.92 303.18 281.74 304.24 C 287.15 306.32 291.66 310.54 294.18 315.74 C 294.89 317.80 297.33 317.60 299.05 317.21 C 305.44 315.54 312.00 314.15 317.85 310.96 C 323.91 309.13 330.03 307.45 336.18 305.92 C 339.50 305.20 342.49 303.39 345.89 302.95 C 348.31 303.05 350.73 303.21 353.16 303.35 C 348.02 304.40 342.90 305.66 338.34 308.33 C 334.38 310.60 328.31 309.29 326.00 313.97 C 326.45 314.10 327.34 314.34 327.78 314.46 C 328.86 313.99 329.88 313.37 330.99 312.96 C 334.16 314.51 337.70 314.45 341.15 314.27 C 337.52 316.08 333.51 317.43 329.41 317.79 C 326.44 318.75 324.07 321.20 320.85 321.58 C 316.72 322.13 312.89 323.69 308.96 324.96 C 304.01 325.64 299.70 328.34 295.09 330.04 C 292.08 334.79 290.03 341.08 284.18 343.07 C 277.29 345.50 269.29 345.16 262.56 342.30 C 256.11 338.68 253.97 330.95 253.52 324.05 C 253.39 321.22 253.79 318.37 253.43 315.56 C 249.47 311.75 243.84 310.03 240.20 305.92 C 242.54 305.17 245.15 304.72 246.98 302.94 C 244.39 301.18 241.72 304.34 239.02 303.05 Z" />
</g>
<g id="#fb764aff">
<path fill="#fb764a" opacity="1.00" d=" M 428.28 327.13 C 428.26 325.54 427.37 323.60 428.86 322.39 C 432.37 325.81 436.28 328.78 439.72 332.28 C 441.35 333.70 442.84 335.88 445.28 335.72 C 449.50 335.81 453.62 333.79 457.84 334.88 C 460.31 335.55 463.22 335.97 464.78 338.26 C 466.99 341.09 469.57 344.17 469.50 347.97 C 469.79 353.25 467.15 358.79 462.66 361.60 C 456.73 363.24 449.62 363.48 444.61 359.31 C 442.03 358.09 442.61 354.73 440.64 352.94 C 439.90 349.89 441.45 345.76 438.19 343.76 C 434.47 341.19 432.71 336.58 428.67 334.44 C 425.64 332.86 423.09 330.50 421.07 327.76 C 422.64 324.72 425.85 326.29 428.28 327.13 Z" />
</g>
<g id="#3a3a3aff">
<path fill="#3a3a3a" opacity="1.00" d=" M 167.35 389.45 C 169.74 388.33 172.45 388.80 175.00 388.70 C 179.31 388.83 183.64 388.46 187.94 388.86 C 189.32 389.95 190.17 391.54 190.86 393.13 C 195.27 403.36 200.40 413.24 204.64 423.54 C 206.24 426.73 207.74 430.00 208.49 433.51 C 208.84 433.16 209.18 432.82 209.52 432.47 C 210.12 438.39 214.05 443.18 216.24 448.56 C 218.35 452.73 219.23 457.46 221.89 461.37 C 223.42 463.78 223.74 466.69 224.99 469.23 C 227.70 473.55 229.22 478.46 231.54 482.99 C 231.55 483.62 231.59 484.88 231.61 485.51 C 224.07 485.75 216.49 485.84 208.95 485.49 C 205.72 479.14 203.55 472.28 200.92 465.66 C 186.28 465.29 171.61 465.55 156.97 465.54 C 153.57 465.10 153.95 469.35 153.53 471.59 C 153.19 471.20 152.85 470.82 152.51 470.44 C 151.65 475.73 148.98 480.48 146.94 485.38 C 139.80 485.97 132.57 485.69 125.41 485.52 C 125.15 483.98 125.37 482.53 126.07 481.16 C 134.17 463.51 141.50 445.53 149.85 427.98 C 153.92 418.08 158.69 408.48 162.67 398.54 C 164.12 395.46 165.41 392.26 167.35 389.45 M 173.81 421.87 C 170.97 428.56 168.34 435.35 165.19 441.91 C 164.39 443.95 163.19 446.05 163.56 448.34 C 173.21 448.72 182.90 448.59 192.55 448.39 C 192.95 446.31 192.00 444.36 191.21 442.52 C 187.08 433.84 183.84 424.78 180.10 415.93 C 179.50 414.76 178.78 413.65 177.99 412.60 C 175.92 415.34 175.18 418.77 173.81 421.87 Z" />
<path fill="#3a3a3a" opacity="1.00" d=" M 242.52 389.93 C 244.44 387.89 247.53 388.94 250.00 388.69 C 254.86 388.99 259.86 388.07 264.63 389.31 C 265.01 390.83 265.22 392.39 265.24 393.96 C 265.22 421.31 265.22 448.65 265.23 475.99 C 265.19 479.02 265.45 482.08 264.91 485.08 C 263.49 486.10 261.62 485.50 260.01 485.69 C 254.23 485.46 248.41 486.07 242.66 485.35 C 242.25 453.56 242.52 421.73 242.52 389.93 Z" />
<path fill="#3a3a3a" opacity="1.00" d=" M 288.38 389.23 C 292.84 388.20 297.48 388.88 302.02 388.70 C 304.11 388.89 307.02 388.67 308.17 390.80 C 314.85 402.78 322.32 414.31 328.98 426.30 C 334.12 433.39 337.63 441.57 343.06 448.45 C 350.15 439.08 355.07 428.28 361.44 418.43 C 364.07 414.65 365.51 410.18 368.51 406.66 C 371.61 400.83 374.98 395.12 378.54 389.56 C 382.84 387.97 387.55 388.95 392.04 388.70 C 394.27 388.66 398.07 388.66 397.38 391.96 C 397.44 422.98 397.53 454.02 397.50 485.04 C 394.11 487.49 389.80 485.42 386.01 485.85 C 382.82 486.33 379.56 486.45 376.45 485.52 C 376.37 470.69 376.41 455.85 376.33 441.01 C 376.25 437.38 376.60 433.70 375.90 430.12 C 373.85 430.43 373.25 432.67 372.28 434.19 C 368.11 442.15 363.42 449.82 358.59 457.39 C 354.99 463.33 352.21 469.80 347.94 475.31 C 344.67 475.89 341.30 475.76 338.01 475.47 C 334.14 471.90 332.96 466.49 329.45 462.63 C 324.31 453.50 318.42 444.80 313.24 435.69 C 312.06 434.10 311.49 431.69 309.40 431.08 C 309.23 447.72 309.28 464.38 309.35 481.03 C 309.25 482.56 309.55 484.26 308.73 485.65 C 306.61 486.65 304.23 486.26 302.00 486.02 C 297.49 485.42 292.93 485.95 288.41 485.63 C 288.34 453.50 288.39 421.36 288.38 389.23 Z" />
<path fill="#3a3a3a" opacity="1.00" d=" M 420.53 390.97 C 420.13 389.02 422.59 388.60 423.98 388.71 C 445.66 388.70 467.34 388.75 489.02 388.68 C 490.57 388.74 492.23 388.55 493.69 389.24 C 494.93 395.20 494.38 401.48 493.46 407.47 C 476.95 407.44 460.44 407.34 443.93 407.49 C 441.42 410.62 443.15 415.24 442.65 418.99 C 443.10 422.02 441.42 426.03 444.05 428.29 C 458.54 428.62 473.05 428.29 487.55 428.44 C 487.56 434.16 487.60 439.88 487.56 445.60 C 475.38 445.77 463.19 445.65 451.01 445.65 C 448.43 445.74 445.72 445.29 443.29 446.35 C 442.04 449.37 442.88 452.80 442.66 456.00 C 442.92 459.85 442.02 463.90 443.22 467.61 C 446.74 468.52 450.40 468.20 454.00 468.24 C 462.00 468.16 470.00 468.35 477.99 468.16 C 483.86 467.54 489.78 467.65 495.63 468.43 C 495.67 474.13 495.72 479.83 495.58 485.53 C 491.12 486.83 486.53 485.97 482.01 485.72 C 466.67 485.75 451.33 485.67 436.00 485.75 C 430.95 485.85 425.21 487.59 420.61 484.97 C 420.43 453.64 420.60 422.30 420.53 390.97 Z" />
</g>
<g id="#fefefeff">
<path fill="#fefefe" opacity="1.00" d=" M 173.81 421.87 C 175.18 418.77 175.92 415.34 177.99 412.60 C 178.78 413.65 179.50 414.76 180.10 415.93 C 183.84 424.78 187.08 433.84 191.21 442.52 C 192.00 444.36 192.95 446.31 192.55 448.39 C 182.90 448.59 173.21 448.72 163.56 448.34 C 163.19 446.05 164.39 443.95 165.19 441.91 C 168.34 435.35 170.97 428.56 173.81 421.87 Z" />
</g>
<g id="#eb6e5bff">
<path fill="#eb6e5b" opacity="1.00" d=" M 338.31 500.13 C 338.11 497.57 341.62 498.32 343.06 498.90 C 344.08 505.77 343.07 512.80 343.49 519.72 C 346.86 520.35 347.80 516.37 350.56 515.44 C 355.45 513.14 361.19 513.22 366.24 514.94 C 369.31 516.65 372.30 518.66 374.72 521.23 C 378.56 527.23 378.19 534.75 377.30 541.52 C 374.53 547.11 369.70 552.74 363.07 553.28 C 359.06 553.62 354.97 553.61 351.05 552.69 C 348.10 552.41 347.20 548.62 344.33 548.21 C 343.95 549.96 343.73 551.75 343.37 553.52 C 341.73 553.66 340.09 553.66 338.45 553.56 C 338.05 535.76 338.28 517.93 338.31 500.13 M 352.59 519.69 C 347.88 521.25 344.22 525.91 344.44 530.97 C 344.39 535.16 343.91 539.84 346.67 543.37 C 352.40 551.54 366.77 549.93 371.00 541.03 C 373.43 535.85 372.65 529.66 370.30 524.61 C 366.00 519.79 358.85 516.73 352.59 519.69 Z" />
</g>
<g id="#ec7059ff">
<path fill="#ec7059" opacity="1.00" d=" M 252.25 501.31 C 253.73 501.19 255.21 501.19 256.70 501.32 C 257.22 503.16 257.34 505.08 257.37 506.98 C 257.38 520.60 257.27 534.21 257.38 547.82 C 258.81 548.49 260.42 548.43 261.96 548.49 C 269.88 548.48 277.79 548.38 285.71 548.47 C 286.33 549.61 286.44 550.78 286.04 551.98 C 284.48 552.77 282.67 552.50 281.00 552.61 C 273.00 552.54 265.00 552.54 257.00 552.61 C 255.35 552.49 253.55 552.81 252.06 551.96 C 251.52 550.36 251.63 548.65 251.59 547.01 C 251.64 533.33 251.59 519.65 251.59 505.97 C 251.61 504.39 251.71 502.79 252.25 501.31 Z" />
</g>
<g id="#e9705dff">
<path fill="#e9705d" opacity="1.00" d=" M 298.66 514.90 C 303.74 513.89 308.99 513.69 314.14 514.30 C 316.76 514.17 317.81 517.11 320.01 518.05 C 322.91 522.48 324.29 527.70 324.16 532.98 C 324.03 539.22 324.69 545.54 323.68 551.73 C 322.84 552.54 321.60 552.96 320.45 552.65 C 319.65 551.67 318.97 550.61 318.20 549.62 C 314.94 550.16 312.35 552.70 309.03 553.15 C 305.60 553.55 302.16 553.04 298.73 552.88 C 298.17 552.85 297.06 552.78 296.50 552.74 C 296.81 552.26 297.12 551.78 297.43 551.31 C 295.93 550.56 294.36 549.95 292.93 549.09 C 291.18 545.71 291.21 541.68 291.77 538.00 C 293.01 534.56 296.65 532.62 300.01 531.76 C 306.15 531.18 312.35 531.54 318.51 531.64 C 318.41 527.83 317.93 523.64 315.47 520.57 C 309.44 518.97 302.19 518.29 296.69 521.81 C 295.54 522.43 294.39 522.41 293.25 521.77 C 292.44 518.28 295.92 516.06 298.66 514.90 M 298.76 537.37 C 296.92 540.39 297.10 544.34 298.52 547.50 C 304.28 550.67 312.37 550.02 316.67 544.72 C 318.63 542.21 318.84 538.84 318.17 535.84 C 313.80 535.21 309.37 535.48 304.98 535.56 C 302.85 535.72 300.38 535.81 298.76 537.37 Z" />
</g>
<g id="#ffebe3ff">
<path fill="#ffebe3" opacity="1.00" d=" M 320.01 518.05 C 320.45 518.10 321.32 518.19 321.76 518.24 C 324.51 523.36 326.85 529.05 326.30 535.00 C 325.96 540.63 327.24 546.23 326.84 551.85 C 326.60 554.19 324.04 555.14 321.99 555.16 C 319.38 555.57 317.26 553.27 314.67 553.66 C 310.48 554.21 306.26 554.65 302.04 554.34 C 300.68 554.43 299.58 553.95 298.73 552.88 C 302.16 553.04 305.60 553.55 309.03 553.15 C 312.35 552.70 314.94 550.16 318.20 549.62 C 318.97 550.61 319.65 551.67 320.45 552.65 C 321.60 552.96 322.84 552.54 323.68 551.73 C 324.69 545.54 324.03 539.22 324.16 532.98 C 324.29 527.70 322.91 522.48 320.01 518.05 Z" />
</g>
<g id="#fdfdfcff">
<path fill="#fdfdfc" opacity="1.00" d=" M 352.59 519.69 C 358.85 516.73 366.00 519.79 370.30 524.61 C 372.65 529.66 373.43 535.85 371.00 541.03 C 366.77 549.93 352.40 551.54 346.67 543.37 C 343.91 539.84 344.39 535.16 344.44 530.97 C 344.22 525.91 347.88 521.25 352.59 519.69 Z" />
</g>
<g id="#fbfbf8ff">
<path fill="#fbfbf8" opacity="1.00" d=" M 298.76 537.37 C 300.38 535.81 302.85 535.72 304.98 535.56 C 309.37 535.48 313.80 535.21 318.17 535.84 C 318.84 538.84 318.63 542.21 316.67 544.72 C 312.37 550.02 304.28 550.67 298.52 547.50 C 297.10 544.34 296.92 540.39 298.76 537.37 Z" />
</g>
</svg>
