<?xml version="1.0" encoding="UTF-8" ?>
<!DOCTYPE svg PUBLIC "-//W3C//DTD SVG 1.1//EN" "http://www.w3.org/Graphics/SVG/1.1/DTD/svg11.dtd">
<svg width="877pt" height="877pt" viewBox="0 0 877 877" version="1.1" xmlns="http://www.w3.org/2000/svg">
<g id="#cd8b4fff">
<path fill="#cd8b4f" opacity="1.00" d=" M 431.99 52.11 C 507.44 50.30 583.31 70.84 647.51 110.57 C 723.18 156.95 782.44 229.49 812.45 313.05 C 816.06 322.53 818.62 332.38 822.07 341.91 C 831.27 376.49 836.22 412.25 835.85 448.05 C 835.82 519.57 815.83 590.93 778.97 652.21 C 746.62 706.21 701.06 752.17 647.43 785.11 C 588.35 821.64 519.43 841.92 450.01 843.53 C 374.00 845.56 297.47 825.19 232.78 785.13 C 165.39 743.78 110.85 681.81 78.64 609.58 C 41.78 527.91 34.31 433.60 57.14 347.02 C 73.63 283.69 106.42 224.77 151.20 177.09 C 190.13 135.52 238.14 102.45 290.92 81.02 C 335.63 62.80 383.74 52.97 431.99 52.11 M 419.14 65.13 C 342.76 68.93 267.88 96.68 207.27 143.27 C 148.21 188.35 102.64 250.90 78.21 321.09 C 57.16 381.01 51.54 446.20 61.61 508.88 C 67.65 546.82 79.51 583.83 96.62 618.23 C 128.28 682.10 178.17 736.76 238.87 774.14 C 303.66 814.38 380.76 834.31 456.92 830.70 C 524.53 828.02 591.26 806.73 648.00 769.89 C 701.43 735.42 746.04 687.44 776.54 631.64 C 811.01 568.93 827.14 496.35 822.68 424.93 C 818.52 349.07 790.72 274.79 744.35 214.64 C 701.70 158.97 643.56 115.27 578.09 90.10 C 527.68 70.64 473.09 62.06 419.14 65.13 Z" />
</g>
<g id="#ffffffff">
<path fill="#ffffff" opacity="1.00" d=" M 419.14 65.13 C 473.09 62.06 527.68 70.64 578.09 90.10 C 643.56 115.27 701.70 158.97 744.35 214.64 C 790.72 274.79 818.52 349.07 822.68 424.93 C 827.14 496.35 811.01 568.93 776.54 631.64 C 746.04 687.44 701.43 735.42 648.00 769.89 C 591.26 806.73 524.53 828.02 456.92 830.70 C 380.76 834.31 303.66 814.38 238.87 774.14 C 178.17 736.76 128.28 682.10 96.62 618.23 C 79.51 583.83 67.65 546.82 61.61 508.88 C 51.54 446.20 57.16 381.01 78.21 321.09 C 102.64 250.90 148.21 188.35 207.27 143.27 C 267.88 96.68 342.76 68.93 419.14 65.13 M 388.58 72.68 C 386.75 73.00 385.63 74.94 386.33 76.67 C 387.09 79.10 390.94 79.08 391.71 76.66 C 392.57 74.63 390.70 72.30 388.58 72.68 M 399.32 86.72 C 400.76 87.13 402.25 87.16 403.74 87.22 C 404.39 93.48 404.34 99.82 405.26 106.04 C 405.39 108.61 407.90 109.76 410.00 110.50 C 413.22 109.61 415.86 107.14 416.40 103.75 C 414.67 104.80 413.33 107.17 411.01 106.51 C 409.46 105.11 409.60 102.94 409.42 101.05 C 409.14 96.23 408.64 91.42 408.44 86.59 C 410.09 86.05 415.51 87.39 413.98 84.19 C 412.08 84.15 410.19 84.33 408.31 84.46 C 408.15 81.52 407.94 78.58 407.44 75.67 C 405.43 79.85 403.36 84.09 399.32 86.72 M 500.90 77.94 C 498.12 80.26 497.30 83.98 496.79 87.39 C 495.14 87.27 493.50 87.11 491.86 87.13 C 490.49 89.83 495.07 89.18 496.46 89.74 C 495.27 95.99 494.69 102.35 493.27 108.55 C 492.81 111.24 489.59 110.70 487.67 111.13 C 492.68 113.28 498.42 113.29 503.78 114.03 C 502.00 112.18 497.52 112.64 498.26 109.08 C 498.84 102.83 500.26 96.68 500.98 90.45 C 503.18 90.75 505.38 91.12 507.58 91.48 C 508.80 87.83 503.29 89.13 501.37 88.33 C 501.93 85.24 502.20 82.05 503.39 79.12 C 504.34 76.79 507.97 76.67 509.12 78.89 C 510.37 80.42 510.87 82.82 512.96 83.47 C 515.05 83.29 516.34 80.79 514.97 79.10 C 511.94 74.49 504.77 74.31 500.90 77.94 M 528.62 82.14 C 527.71 85.18 526.43 88.14 526.13 91.32 C 527.97 89.79 528.73 87.05 531.14 86.22 C 534.17 85.72 537.13 87.03 540.03 87.77 C 537.47 96.87 535.13 106.03 532.64 115.15 C 532.12 116.68 531.78 118.69 530.05 119.30 C 528.51 119.32 526.97 119.31 525.44 119.28 C 527.26 120.80 529.67 121.04 531.87 121.66 C 535.26 122.45 538.56 123.75 542.07 123.94 C 540.10 122.31 536.12 121.47 537.54 118.09 C 540.07 108.40 542.56 98.68 545.41 89.08 C 548.17 90.06 551.44 90.25 553.68 92.34 C 555.52 94.07 555.07 96.81 555.41 99.08 C 557.48 96.54 557.16 92.97 558.05 89.96 C 548.24 87.35 538.47 84.59 528.62 82.14 M 416.12 83.58 C 418.09 85.03 420.28 86.40 421.23 88.77 C 424.09 94.91 427.21 100.95 429.86 107.19 C 429.59 110.29 428.04 113.47 425.88 115.74 C 423.47 116.04 420.88 114.29 418.65 115.67 C 417.24 117.65 418.58 120.58 421.02 120.76 C 425.21 121.18 428.57 117.57 430.09 114.01 C 433.72 105.33 437.18 96.58 440.74 87.88 C 441.34 85.81 443.34 84.81 444.91 83.56 C 441.85 83.43 438.79 83.40 435.74 83.46 C 436.67 84.28 437.64 85.05 438.55 85.90 C 436.95 91.21 434.81 96.42 432.30 101.37 C 430.23 95.90 426.04 90.98 425.67 85.03 C 426.55 84.83 428.30 84.41 429.18 84.21 C 425.22 82.41 420.40 83.88 416.12 83.58 M 470.15 84.10 C 461.14 86.89 458.29 99.72 464.39 106.60 C 468.59 111.79 477.46 111.64 481.73 106.61 C 485.71 102.00 486.95 94.75 483.68 89.42 C 481.18 84.70 475.16 82.51 470.15 84.10 M 383.76 90.31 C 384.78 90.31 386.81 90.32 387.83 90.32 C 389.76 95.65 389.61 101.53 390.52 107.10 C 391.41 109.81 388.58 110.93 386.89 112.28 C 391.10 111.96 395.27 111.31 399.48 110.99 L 399.36 109.91 C 398.08 109.51 395.69 109.98 395.60 108.00 C 394.09 100.47 393.80 92.75 392.48 85.18 C 389.46 86.68 386.25 87.97 383.76 90.31 M 374.13 89.35 C 371.11 89.34 367.63 88.91 365.21 91.14 C 362.15 93.59 361.75 98.58 364.41 101.46 C 368.21 105.14 374.92 103.74 378.16 108.13 C 380.11 111.38 376.10 114.65 372.94 113.76 C 369.02 113.59 367.62 109.57 365.03 107.39 C 365.52 110.64 366.31 113.83 366.93 117.05 C 367.44 116.72 368.48 116.06 369.00 115.72 C 372.17 115.77 375.65 116.08 378.47 114.31 C 381.78 112.37 383.62 107.88 381.58 104.39 C 379.25 100.20 373.90 100.26 369.88 98.85 C 367.66 98.35 365.18 96.55 365.67 93.97 C 367.18 90.45 372.72 90.09 374.88 93.16 C 375.93 94.48 376.89 95.88 377.98 97.18 C 377.85 94.09 377.20 91.06 376.40 88.08 C 375.57 88.36 374.81 88.78 374.13 89.35 M 349.56 99.10 C 349.02 97.54 348.54 95.98 348.09 94.40 C 345.15 96.13 342.40 98.15 339.94 100.51 C 341.67 100.65 344.84 99.14 345.15 101.86 C 346.73 106.90 348.01 112.03 349.32 117.14 C 350.21 119.57 347.11 120.40 345.86 121.90 C 350.43 120.90 355.50 120.39 359.51 117.88 C 357.63 117.60 354.85 118.23 354.10 115.87 C 352.59 111.99 351.83 107.85 350.67 103.86 C 349.72 101.46 351.27 99.14 352.56 97.23 C 354.19 97.48 356.30 99.32 357.79 97.78 C 360.07 96.02 357.69 92.06 354.98 92.82 C 351.80 93.15 350.78 96.69 349.56 99.10 M 321.40 105.38 C 318.27 110.76 319.86 117.80 323.42 122.57 C 326.70 126.97 333.48 128.23 337.97 124.96 C 341.42 122.31 342.23 117.70 342.26 113.61 L 340.93 113.62 C 340.65 117.10 338.78 120.89 334.99 121.49 C 329.36 122.67 325.00 117.63 323.40 112.78 C 328.96 111.03 334.55 109.37 340.12 107.65 C 339.43 105.61 338.51 103.54 336.77 102.18 C 332.15 98.17 324.27 100.20 321.40 105.38 M 584.89 102.87 C 585.96 104.07 589.11 104.72 587.93 106.87 C 584.48 114.69 580.46 122.24 576.85 129.97 C 575.92 131.62 575.32 133.61 573.80 134.80 C 572.76 134.76 570.70 134.67 569.67 134.63 C 573.24 137.54 577.75 139.16 581.98 140.91 C 581.09 139.52 579.53 138.52 579.07 136.90 C 580.82 131.69 583.82 127.01 585.96 121.95 C 589.00 120.75 593.84 120.07 595.18 123.96 C 595.27 126.93 593.38 129.52 592.25 132.18 C 590.55 135.26 589.57 138.86 587.08 141.43 C 585.61 141.37 584.14 141.28 582.68 141.18 C 586.26 143.72 590.45 145.18 594.30 147.24 C 597.27 150.94 602.27 152.35 606.18 154.91 C 605.60 153.14 603.79 151.83 603.83 149.92 C 605.06 146.67 607.16 143.84 608.77 140.77 C 609.97 138.83 610.85 136.22 613.50 135.89 C 613.08 135.50 612.67 135.11 612.27 134.72 C 613.29 133.09 614.21 131.38 614.97 129.61 C 611.63 129.07 608.29 128.38 604.89 128.36 C 606.02 129.35 607.26 130.19 608.50 131.05 C 605.88 136.73 602.68 142.15 599.29 147.39 C 596.67 149.41 593.77 146.14 592.41 144.01 C 593.69 138.00 597.93 133.03 599.57 127.11 C 600.39 124.26 599.65 120.55 596.63 119.34 C 593.54 117.64 590.07 119.19 586.97 119.93 C 589.60 114.45 592.58 109.13 594.81 103.46 C 591.50 103.22 588.21 102.80 584.89 102.87 M 555.90 109.02 C 551.00 114.30 548.98 123.88 554.80 129.25 C 559.80 134.33 570.11 131.22 571.15 124.24 C 569.73 125.34 568.43 126.62 566.86 127.51 C 563.52 128.76 559.40 127.36 557.68 124.20 C 555.58 120.96 556.00 116.83 557.31 113.37 C 562.63 115.58 568.15 117.23 573.47 119.45 C 574.77 116.19 574.77 112.23 572.47 109.40 C 568.53 104.35 560.13 104.30 555.90 109.02 M 303.92 111.53 C 305.19 111.88 307.92 110.57 308.21 112.52 C 308.86 117.23 308.34 122.03 308.96 126.74 C 308.89 127.40 308.76 128.72 308.69 129.38 C 304.47 125.26 299.86 121.50 296.09 116.95 C 297.05 115.89 298.03 114.84 298.96 113.76 C 294.73 114.93 290.42 116.58 286.91 119.22 C 288.70 119.56 290.96 118.94 292.35 120.47 C 296.88 124.64 301.35 128.87 305.85 133.07 C 307.51 134.50 308.89 136.53 311.21 136.92 C 311.25 135.31 311.12 133.72 310.81 132.15 C 310.87 125.43 310.49 118.71 310.50 111.99 C 310.38 110.19 311.96 108.93 312.70 107.44 C 309.65 108.48 306.49 109.51 303.92 111.53 M 272.42 110.49 C 268.42 111.63 271.39 118.00 274.80 115.74 C 277.95 114.31 275.56 109.17 272.42 110.49 M 273.87 129.11 C 275.01 128.48 276.13 127.83 277.24 127.15 C 280.14 130.01 281.54 133.92 283.56 137.38 C 284.74 139.84 286.56 142.15 286.79 144.97 C 285.96 146.06 285.01 147.06 284.13 148.12 C 288.41 146.62 292.77 144.57 296.16 141.57 C 294.51 141.68 292.11 142.91 291.00 140.99 C 287.07 134.46 283.90 127.50 280.09 120.91 C 277.85 123.48 274.95 125.75 273.87 129.11 M 410.48 126.72 C 372.82 130.19 335.76 140.23 301.63 156.55 C 241.59 184.97 190.85 232.53 158.52 290.54 C 126.00 348.22 112.35 416.12 119.42 481.91 C 123.99 525.90 137.80 568.90 159.75 607.30 C 193.04 665.94 245.21 713.62 306.64 741.45 C 380.18 775.14 466.51 779.42 543.08 753.44 C 579.19 741.32 613.07 722.65 642.68 698.71 C 695.76 655.97 734.77 596.02 751.95 530.04 C 763.71 485.46 765.64 438.36 757.89 392.93 C 751.06 353.18 736.70 314.75 715.68 280.33 C 680.91 223.02 627.83 177.02 566.07 150.92 C 517.27 130.11 463.29 121.93 410.48 126.72 M 255.92 141.30 C 254.92 139.94 253.95 138.57 252.99 137.20 C 250.85 139.86 248.76 142.59 247.24 145.67 C 248.69 145.27 250.15 143.61 251.66 144.36 C 253.83 146.60 255.29 149.40 257.04 151.96 C 258.80 154.83 261.08 157.46 261.92 160.79 C 260.96 161.78 260.17 162.89 259.53 164.10 C 263.50 161.69 268.11 159.74 271.08 156.09 C 269.63 156.49 268.22 157.00 266.81 157.51 C 263.10 153.06 260.02 148.08 257.13 143.07 C 257.55 140.22 259.16 137.06 262.13 136.22 C 264.42 136.23 265.79 138.38 267.02 140.02 C 269.60 143.98 272.28 147.88 274.62 152.00 C 273.63 153.32 272.60 154.62 271.86 156.11 C 274.99 154.64 277.73 152.51 280.69 150.74 C 281.83 150.15 282.69 149.21 283.21 148.03 C 282.00 148.47 280.80 148.94 279.62 149.44 C 276.29 146.61 274.48 142.51 272.02 138.99 C 269.95 135.74 267.33 131.51 262.91 131.82 C 258.27 132.43 256.77 137.40 255.92 141.30 M 612.82 134.13 C 613.99 134.66 615.19 135.12 616.41 135.55 C 617.32 136.96 617.82 139.25 619.97 138.98 C 623.04 138.96 623.06 134.51 620.74 133.31 C 618.25 131.66 615.25 133.28 612.82 134.13 M 225.97 142.17 C 226.06 142.51 226.25 143.19 226.34 143.54 C 227.80 142.74 229.20 141.04 231.03 141.64 C 233.39 143.35 234.94 145.88 236.76 148.11 C 239.92 152.34 243.47 156.28 246.28 160.76 C 251.27 167.94 242.52 178.64 234.51 176.34 C 230.13 174.33 227.50 170.04 224.56 166.43 C 221.73 162.55 218.38 159.04 215.90 154.92 C 214.40 152.49 217.69 150.78 218.50 148.74 C 215.21 150.12 212.75 152.81 209.88 154.85 C 208.06 156.36 205.69 157.50 204.79 159.85 C 206.86 159.07 209.26 156.54 211.30 158.74 C 216.79 164.61 221.00 171.58 226.57 177.38 C 230.08 180.97 235.98 181.73 240.31 179.19 C 245.04 176.61 249.79 172.56 250.42 166.87 C 250.99 162.96 248.76 159.42 246.59 156.38 C 243.05 151.64 239.26 147.09 235.71 142.36 C 234.88 141.12 233.66 139.70 234.44 138.12 C 235.28 136.79 236.37 135.60 236.87 134.08 C 232.99 136.43 229.70 139.60 225.97 142.17 M 627.08 140.16 C 624.58 140.34 621.72 143.75 624.09 145.81 C 626.77 147.84 628.15 143.76 629.96 142.49 C 632.07 141.93 633.91 143.42 635.07 145.03 C 636.15 147.51 634.10 149.76 633.12 151.88 C 628.52 150.85 623.78 149.53 619.05 150.37 C 614.52 151.29 612.32 157.93 615.84 161.13 C 618.33 163.63 622.07 163.18 625.27 163.01 C 625.06 163.77 624.64 165.30 624.43 166.06 C 625.89 169.90 631.96 169.33 634.12 166.52 C 633.07 166.58 630.95 166.68 629.89 166.73 C 631.24 159.96 638.01 155.59 639.59 148.90 C 639.16 143.28 632.39 139.21 627.08 140.16 M 644.58 153.07 C 645.34 154.26 646.39 155.21 647.43 156.17 C 645.31 160.01 642.35 163.26 639.74 166.75 C 638.31 168.56 636.96 170.52 635.00 171.80 C 633.68 171.40 632.42 170.89 631.14 170.43 C 632.15 172.52 634.24 173.66 635.97 175.08 C 637.92 176.57 639.72 178.37 642.12 179.14 C 641.29 177.73 640.34 176.38 639.46 175.02 C 642.84 170.49 646.17 165.89 649.94 161.68 C 653.27 160.55 659.68 162.44 657.95 166.93 C 655.23 171.67 651.52 175.82 648.06 180.04 C 646.60 181.89 644.50 179.94 642.87 179.45 C 643.58 181.50 645.59 182.51 647.17 183.83 C 649.27 185.33 651.08 187.39 653.67 188.06 C 652.96 186.71 651.53 185.61 651.54 183.99 C 654.58 178.71 659.26 174.55 662.23 169.23 C 663.19 166.85 663.38 163.58 661.25 161.76 C 658.59 159.06 654.50 159.63 651.09 159.89 C 652.07 158.54 653.52 157.37 653.84 155.66 C 650.83 154.52 647.72 153.69 644.58 153.07 M 780.27 466.24 C 779.77 469.08 780.16 472.15 778.79 474.78 C 777.32 477.61 776.84 481.00 778.01 484.03 C 779.49 488.35 784.44 491.25 788.92 489.83 C 791.05 489.41 792.48 487.66 793.92 486.18 C 795.52 488.06 797.09 490.68 799.87 490.76 C 801.00 490.28 801.85 489.35 802.82 488.62 C 805.02 490.81 808.33 495.85 811.71 492.73 C 817.07 486.54 816.94 475.83 810.82 470.18 C 808.14 467.55 802.89 467.63 801.22 471.34 C 799.04 476.23 800.20 481.86 798.39 486.88 C 796.77 486.59 795.52 485.68 794.51 484.46 C 796.10 480.32 795.72 474.92 792.02 472.01 C 789.42 469.66 785.65 470.04 782.55 470.96 C 782.56 469.42 782.59 467.89 782.61 466.36 C 782.03 466.33 780.86 466.27 780.27 466.24 M 92.85 478.75 C 87.94 483.21 87.03 490.25 83.72 495.76 C 82.33 498.57 78.72 499.78 75.89 498.46 C 70.98 495.43 71.23 487.82 74.86 483.87 C 76.74 481.62 80.07 481.54 82.00 479.37 C 77.41 479.77 72.52 479.63 68.20 481.34 C 68.89 481.71 70.27 482.45 70.96 482.82 C 70.74 486.93 69.13 491.04 70.37 495.14 C 71.46 501.17 78.31 505.71 84.21 503.21 C 90.29 500.60 91.32 493.30 93.94 487.96 C 95.30 484.72 97.59 479.98 101.95 481.35 C 107.18 483.16 107.37 490.38 104.20 494.15 C 102.33 496.87 98.67 497.07 96.41 499.29 C 101.05 499.21 105.63 498.33 110.23 497.79 C 109.29 496.92 108.32 496.07 107.43 495.15 C 108.51 490.87 109.57 486.01 107.13 481.97 C 104.57 476.90 97.30 474.97 92.85 478.75 M 799.90 498.57 C 793.56 498.51 787.46 495.92 781.09 496.22 C 778.03 496.16 775.30 498.84 775.29 501.89 C 774.98 505.14 777.18 507.80 778.80 510.39 C 777.05 510.04 775.30 509.71 773.56 509.41 C 774.53 512.58 773.90 516.72 776.41 519.19 C 776.50 518.24 776.67 516.34 776.76 515.39 C 782.91 515.32 788.97 516.91 794.98 518.08 C 797.34 518.40 796.98 521.11 797.52 522.81 C 799.36 518.61 799.45 513.88 800.19 509.41 C 799.13 510.70 798.29 512.17 797.08 513.33 C 791.51 512.79 786.04 511.56 780.56 510.51 C 779.57 508.46 778.08 506.38 778.50 504.00 C 778.59 501.34 781.76 500.32 783.97 500.91 C 788.65 501.76 793.40 502.34 798.02 503.52 C 800.23 503.91 799.35 506.79 799.90 508.26 C 801.96 504.42 802.06 499.53 802.67 495.18 C 801.23 495.77 801.00 497.60 799.90 498.57 M 74.55 517.12 C 73.20 524.23 80.81 529.85 87.41 528.71 C 85.53 527.07 82.73 526.94 81.07 525.01 C 78.78 522.62 78.45 518.34 80.88 515.93 C 84.22 512.26 89.68 510.49 94.51 511.73 C 97.32 512.40 99.71 515.20 99.14 518.18 C 98.50 520.94 94.48 520.23 93.69 522.85 C 93.04 525.22 95.81 527.72 97.95 526.01 C 102.52 522.90 102.26 515.95 99.05 511.95 C 92.74 503.58 76.65 506.63 74.55 517.12 M 759.26 520.33 C 757.72 521.27 757.52 524.03 759.19 524.99 C 760.75 526.45 763.92 525.11 763.78 522.89 C 764.15 520.59 761.03 518.77 759.26 520.33 M 771.17 522.45 C 771.47 525.09 771.84 527.71 771.88 530.38 C 773.07 530.02 774.70 530.01 774.94 528.34 C 780.74 529.18 786.51 530.39 792.19 531.86 C 794.64 532.31 794.13 535.00 794.50 536.87 C 796.48 532.77 796.72 528.10 797.77 523.72 C 796.45 524.26 796.01 525.63 795.41 526.78 C 787.17 526.69 779.27 523.73 771.17 522.45 M 99.70 528.38 C 99.92 529.36 100.38 531.33 100.61 532.31 C 95.09 534.77 88.97 535.41 83.11 536.66 C 80.45 537.62 80.01 534.53 78.51 533.22 C 78.34 535.90 79.30 538.46 79.75 541.08 C 80.21 542.92 80.25 545.02 81.62 546.48 C 81.67 545.55 81.76 543.67 81.80 542.73 C 89.25 539.02 98.09 539.38 105.83 536.36 C 103.83 533.67 102.41 530.45 99.70 528.38 M 114.48 529.51 C 110.89 530.05 111.88 535.85 115.39 535.29 C 119.23 534.91 118.30 528.55 114.48 529.51 M 769.05 534.01 C 767.93 537.00 770.60 539.53 772.07 541.86 C 770.39 541.40 768.70 540.95 767.03 540.55 C 767.49 543.80 766.96 547.42 768.69 550.35 C 769.45 549.25 768.98 546.62 770.83 546.62 C 776.38 547.58 781.79 549.33 787.24 550.78 C 789.90 551.23 789.25 554.23 789.67 556.19 C 791.67 551.84 792.57 547.03 793.52 542.36 C 792.04 543.57 791.22 546.01 789.07 546.15 C 784.94 545.46 780.95 544.12 776.90 543.10 C 774.30 542.68 772.84 540.31 771.76 538.16 C 774.08 536.55 775.96 534.11 773.98 531.32 C 772.22 531.90 769.60 531.78 769.05 534.01 M 89.56 547.71 C 84.83 550.43 82.28 556.87 85.00 561.87 C 87.10 566.17 92.29 567.45 96.69 567.61 L 96.64 566.16 C 93.20 565.94 89.61 563.75 89.21 560.06 C 88.20 554.45 93.34 549.98 98.41 549.00 C 99.79 554.63 101.38 560.22 102.86 565.83 C 105.09 564.88 107.52 563.95 108.95 561.87 C 112.59 557.09 110.38 549.54 105.26 546.74 C 100.41 543.97 94.24 545.14 89.56 547.71 M 766.22 553.22 C 760.85 556.37 759.90 564.53 763.86 569.18 C 767.27 573.25 772.88 575.18 778.10 574.80 C 782.76 574.46 787.09 570.80 787.72 566.10 C 788.56 560.97 784.71 556.13 780.14 554.30 C 781.36 557.27 784.86 559.43 783.79 563.11 C 782.77 569.32 774.96 571.44 769.79 569.12 C 771.10 563.45 773.45 558.08 774.91 552.44 C 772.01 551.88 768.84 551.60 766.22 553.22 M 108.88 562.47 C 109.16 563.44 109.73 565.38 110.01 566.35 C 105.10 569.53 99.33 570.99 93.94 573.16 C 91.53 574.69 90.01 571.91 88.15 570.86 C 89.80 575.11 90.92 579.72 93.53 583.47 C 93.99 581.91 92.32 579.25 94.33 578.36 C 99.08 575.96 104.27 574.56 109.13 572.40 C 111.97 573.76 116.38 576.69 114.30 580.34 C 109.93 583.93 104.04 584.97 98.93 587.20 C 96.64 588.56 95.29 586.11 94.30 584.48 C 94.10 584.65 93.68 584.98 93.48 585.14 C 95.33 589.11 96.24 593.52 98.64 597.22 C 98.98 595.42 97.84 592.75 100.15 592.00 C 105.14 589.49 110.71 588.30 115.60 585.58 C 117.74 584.44 118.71 582.16 119.41 579.99 C 118.71 575.72 114.96 573.58 111.56 571.62 C 113.03 570.96 114.49 570.32 115.85 569.46 C 113.59 567.07 111.55 564.43 108.88 562.47 M 755.43 591.46 C 758.81 595.70 764.51 597.97 769.89 597.58 C 775.18 597.19 779.76 592.39 779.47 587.01 C 779.07 582.80 776.16 578.82 772.18 577.31 C 773.08 579.14 774.41 580.71 775.35 582.52 C 776.80 586.55 773.80 590.88 769.94 592.08 C 767.01 593.23 763.88 592.36 760.99 591.63 C 762.92 586.07 765.35 580.70 767.13 575.09 C 764.48 574.52 761.59 573.86 759.04 575.15 C 752.95 577.72 751.42 586.47 755.43 591.46 M 119.88 587.65 C 120.46 588.93 121.07 590.21 121.71 591.47 C 115.99 594.66 109.67 596.63 103.97 599.84 C 101.41 601.22 100.86 605.04 102.91 607.08 C 104.62 609.27 107.54 609.58 110.12 609.52 C 108.48 608.03 104.74 607.13 106.34 604.26 C 111.63 600.74 117.88 598.85 123.60 596.09 C 124.34 598.14 126.12 600.05 125.72 602.37 C 125.54 603.48 125.87 604.47 126.72 605.35 C 124.48 608.14 120.94 609.21 117.93 610.91 C 114.98 612.29 112.22 614.26 108.97 614.88 C 107.81 614.06 106.84 613.02 105.79 612.08 C 106.75 616.33 109.30 619.99 111.21 623.86 C 112.83 623.23 110.50 620.19 112.36 619.40 C 118.91 615.20 126.29 612.43 132.94 608.38 C 131.01 606.54 129.07 604.66 126.75 603.30 C 126.79 602.13 126.73 600.82 127.69 599.96 C 126.97 598.34 126.24 596.73 125.53 595.11 C 127.96 593.77 131.26 593.48 133.02 591.22 C 128.33 591.22 123.99 589.80 119.88 587.65 M 745.60 599.47 C 743.45 602.60 744.98 606.47 745.75 609.79 C 744.31 608.95 742.88 608.13 741.45 607.32 C 740.35 610.53 740.47 613.99 740.30 617.35 C 741.33 616.49 742.00 615.34 742.54 614.13 C 746.20 614.71 749.30 616.87 752.58 618.45 C 755.24 619.86 758.15 620.94 760.40 623.01 C 760.39 624.44 760.33 625.87 760.22 627.31 C 762.89 623.53 764.83 619.28 766.69 615.06 C 765.31 615.81 764.22 616.95 762.97 617.89 C 757.55 616.42 752.95 612.85 747.75 610.78 C 746.82 607.83 746.07 603.86 749.02 601.79 C 752.09 600.83 754.88 603.09 757.56 604.28 C 760.79 606.22 764.74 607.20 767.36 610.03 C 767.14 611.34 766.74 612.63 766.42 613.93 C 767.37 613.58 768.19 612.97 768.52 611.97 C 770.03 608.60 772.10 605.47 773.21 601.92 C 771.58 602.85 770.18 605.54 768.05 604.18 C 763.21 602.18 758.81 599.24 753.93 597.32 C 751.10 596.06 747.22 596.59 745.60 599.47 M 137.35 602.04 C 138.30 603.55 139.79 605.61 141.88 604.59 C 144.60 603.72 143.97 599.05 141.05 599.08 C 139.07 598.73 138.23 600.70 137.35 602.04 M 722.34 617.96 C 723.24 620.71 727.94 620.00 727.87 617.00 C 728.09 615.11 726.26 614.31 725.00 613.45 C 723.44 614.32 721.24 615.84 722.34 617.96 M 133.85 615.01 C 132.48 616.69 134.97 618.42 135.45 620.06 C 129.91 623.06 124.51 626.33 118.86 629.12 C 116.39 630.64 114.79 627.41 112.84 626.45 C 114.04 629.63 115.95 632.46 117.51 635.46 C 118.57 637.34 119.40 639.47 121.24 640.76 C 121.01 638.56 118.34 635.56 120.89 633.87 C 126.24 630.22 132.15 627.44 137.77 624.24 C 138.83 626.12 139.88 628.01 140.94 629.90 C 141.41 629.57 142.34 628.91 142.81 628.58 C 141.72 626.77 140.68 624.95 139.65 623.13 C 142.42 621.72 145.04 619.88 148.08 619.11 C 150.72 618.30 153.24 621.71 151.63 623.98 C 151.06 625.92 148.99 629.16 151.98 630.08 C 153.98 630.97 155.51 628.54 155.60 626.83 C 156.39 621.38 151.43 616.20 146.04 616.25 C 142.89 616.02 140.07 617.60 137.30 618.87 C 136.28 617.54 136.03 614.79 133.85 615.01 M 734.64 620.32 C 734.06 623.38 733.75 626.50 733.59 629.63 C 734.87 628.60 735.79 625.40 737.92 626.90 C 742.80 629.31 747.63 631.90 752.24 634.81 C 754.42 635.87 753.04 638.38 753.19 640.23 C 755.82 636.48 758.19 632.44 759.79 628.14 C 758.65 628.90 757.67 629.86 756.78 630.88 C 749.20 628.56 742.86 623.37 735.68 620.11 C 735.42 620.16 734.90 620.26 734.64 620.32 M 156.25 628.98 C 152.71 630.93 156.73 636.43 159.62 633.58 C 162.57 631.62 158.97 626.73 156.25 628.98 M 725.10 637.09 C 719.41 641.18 719.85 651.58 726.91 653.94 C 735.24 657.12 743.20 645.59 738.44 638.55 C 736.85 636.04 733.83 635.25 731.20 634.39 C 732.28 632.69 734.88 630.59 731.83 629.27 C 729.46 631.79 728.21 635.27 725.10 637.09 M 142.20 632.85 C 142.63 633.70 143.48 635.41 143.91 636.27 C 142.92 638.38 140.43 639.23 138.65 640.58 C 135.37 642.49 132.30 644.75 128.93 646.50 C 126.91 647.82 125.35 645.51 123.68 644.74 C 125.56 648.85 128.06 652.70 130.83 656.26 C 130.90 654.37 129.31 651.79 131.63 650.72 C 137.79 646.54 144.21 642.74 150.53 638.81 C 148.10 636.39 145.34 634.24 142.20 632.85 M 739.90 653.82 C 738.97 655.96 735.71 656.61 735.86 653.09 C 735.35 653.87 734.86 654.65 734.37 655.44 C 735.04 656.79 735.34 658.46 736.46 659.56 C 737.68 660.97 739.45 659.89 740.96 659.69 C 741.79 662.38 742.04 665.66 744.43 667.50 C 746.89 668.21 749.25 666.60 751.06 665.09 C 755.99 660.74 759.11 653.42 756.55 647.01 C 755.37 643.73 751.25 641.31 748.04 643.43 C 744.30 645.92 742.66 650.42 739.90 653.82 M 136.07 664.11 C 137.39 671.19 147.53 673.99 152.60 669.27 C 148.84 669.72 144.13 669.80 142.03 665.98 C 139.29 660.91 143.55 655.39 147.81 652.82 C 151.04 650.54 156.66 650.14 158.56 654.30 C 160.46 657.52 154.99 658.87 156.21 662.01 C 156.54 663.32 158.02 663.78 158.92 664.64 C 164.51 661.41 162.19 653.36 157.60 650.34 C 148.57 643.74 133.92 653.23 136.07 664.11 M 711.44 656.28 C 708.35 658.83 708.87 663.26 709.32 666.79 C 707.90 665.91 706.77 664.17 705.00 664.09 C 703.79 667.02 703.05 670.12 702.34 673.20 C 703.59 672.37 704.71 671.35 705.85 670.36 C 710.64 673.79 715.34 677.38 719.85 681.17 C 721.83 682.58 720.27 685.02 720.10 686.90 C 723.31 683.54 726.12 679.81 728.73 675.97 C 726.77 676.51 724.79 679.01 722.79 677.23 C 718.83 674.24 714.83 671.27 711.09 668.03 C 709.88 664.88 711.56 658.40 715.94 659.75 C 720.81 662.36 724.95 666.19 729.24 669.64 C 731.24 671.09 729.12 673.44 729.07 675.33 C 732.27 672.03 735.27 668.39 737.58 664.40 C 736.17 664.77 735.03 665.70 733.89 666.56 C 728.52 663.64 724.35 659.03 719.13 655.91 C 716.77 654.50 713.51 654.20 711.44 656.28 M 672.70 683.75 C 671.76 684.65 671.12 685.79 670.76 687.04 C 672.68 686.13 674.65 682.98 676.87 684.87 C 682.06 689.05 686.70 693.87 691.61 698.37 C 694.22 700.90 697.18 703.11 699.36 706.06 C 699.53 708.17 697.65 709.82 697.28 711.88 C 699.32 710.40 700.95 708.44 702.65 706.58 C 707.64 701.14 712.87 695.90 717.66 690.28 C 715.59 687.50 714.91 683.67 712.03 681.56 C 712.47 685.12 714.72 689.11 712.37 692.45 C 709.90 695.84 706.85 698.75 703.92 701.72 C 699.46 698.70 695.87 694.64 691.90 691.05 C 694.89 688.28 697.10 684.41 700.93 682.70 C 702.74 683.15 704.36 684.15 706.07 684.89 C 705.58 682.94 703.86 681.79 702.52 680.48 C 700.29 678.49 698.32 676.16 695.67 674.72 C 696.23 676.91 698.84 679.07 697.43 681.40 C 695.39 684.43 692.64 686.89 690.19 689.58 C 687.08 686.42 683.65 683.60 680.51 680.47 C 679.21 679.48 681.06 678.34 681.60 677.54 C 684.08 675.03 686.31 672.23 689.09 670.04 C 691.64 668.10 694.28 671.11 697.00 670.99 C 694.97 668.70 692.58 666.78 690.12 665.00 C 684.49 671.41 678.54 677.53 672.70 683.75 M 158.06 686.53 C 155.85 687.76 153.90 685.21 151.82 685.87 C 154.65 689.05 157.17 692.83 160.91 695.00 C 160.47 693.11 157.94 690.81 159.87 689.10 C 162.53 687.62 165.51 686.87 168.29 685.65 C 171.67 689.03 174.82 692.64 178.13 696.10 C 176.74 699.38 175.41 702.74 173.13 705.54 C 171.69 704.79 170.26 704.03 168.81 703.31 C 169.64 706.13 172.21 707.81 174.03 709.95 C 175.89 711.70 177.25 714.23 179.82 715.04 C 178.90 712.82 177.45 710.46 178.77 708.08 C 183.48 696.64 189.23 685.62 193.74 674.10 C 181.66 677.66 170.08 682.79 158.06 686.53 M 652.92 704.25 C 654.16 703.70 655.26 702.96 656.24 702.01 C 661.61 706.20 665.43 712.02 670.08 716.96 C 672.51 719.82 675.15 722.51 677.37 725.56 C 678.86 727.29 676.80 729.11 676.28 730.84 C 680.21 728.42 683.51 725.10 686.86 721.96 C 685.37 722.04 683.98 722.58 682.74 723.38 C 679.63 721.16 677.39 718.02 674.89 715.20 C 669.11 708.61 663.42 701.95 657.62 695.37 C 655.72 698.14 654.19 701.14 652.92 704.25 M 192.75 706.92 C 192.37 711.81 196.17 716.12 195.39 721.02 C 194.36 724.23 189.94 724.50 188.24 721.72 C 185.36 718.53 186.97 714.14 188.75 710.85 C 185.51 711.97 183.82 715.27 181.35 717.44 C 181.93 717.69 183.08 718.19 183.65 718.44 C 185.60 721.61 187.94 725.26 191.90 725.99 C 195.82 727.18 200.45 724.23 200.73 720.09 C 201.29 715.07 197.21 710.83 197.66 705.88 C 198.53 702.51 203.02 702.77 204.56 705.46 C 207.33 708.36 204.89 712.26 203.98 715.40 C 206.76 713.69 208.73 711.04 211.01 708.77 C 207.19 708.36 206.75 703.81 203.66 702.26 C 199.64 699.66 193.63 702.18 192.75 706.92 M 207.80 719.95 C 206.91 725.37 212.09 729.67 211.45 735.03 C 210.39 738.67 205.33 738.38 203.74 735.35 C 201.29 732.17 203.05 728.29 203.78 724.87 C 201.27 726.98 199.46 729.76 197.26 732.17 C 200.87 733.56 202.20 737.74 205.70 739.30 C 209.32 740.77 214.47 740.16 216.11 736.12 C 218.21 731.11 214.22 726.58 212.73 722.04 C 211.84 720.07 212.71 717.39 214.88 716.76 C 217.22 716.42 219.39 718.07 220.44 720.05 C 221.62 722.71 220.19 725.45 219.38 728.00 C 222.46 726.94 223.85 723.53 225.80 721.16 C 221.94 721.10 221.21 716.35 217.82 715.26 C 213.91 713.24 209.04 715.96 207.80 719.95 M 647.09 721.97 C 644.93 724.44 644.04 728.97 646.83 731.31 C 648.34 732.74 651.16 731.04 650.66 729.07 C 649.93 727.62 648.81 726.40 648.26 724.89 C 648.21 722.81 650.11 721.34 651.86 720.65 C 654.57 720.24 656.24 722.79 658.06 724.34 C 656.04 728.46 653.11 732.33 652.55 737.01 C 651.81 741.76 657.45 746.26 661.82 743.78 C 665.00 742.19 665.56 738.33 666.45 735.26 C 667.78 736.29 669.57 737.59 671.21 736.32 C 673.44 734.19 673.91 730.48 672.56 727.75 C 672.12 729.13 671.70 730.52 671.30 731.92 C 665.47 728.62 663.09 721.42 657.59 717.63 C 653.57 716.03 649.59 719.06 647.09 721.97 M 228.39 729.51 C 222.20 731.77 217.80 738.40 218.81 745.03 C 219.45 750.85 225.38 755.19 231.09 754.76 C 238.97 753.98 245.81 745.97 244.05 737.96 C 242.87 731.15 234.74 726.72 228.39 729.51 M 627.21 740.88 C 625.99 749.43 634.19 758.75 643.03 757.14 C 650.21 755.79 652.92 745.62 648.22 740.47 C 648.10 743.11 648.97 746.02 647.52 748.45 C 646.42 750.62 644.05 751.52 641.97 752.43 C 636.23 751.34 631.12 746.93 629.98 741.10 C 629.19 738.02 631.72 734.38 634.92 734.31 C 637.18 735.07 639.16 738.86 641.65 736.53 C 643.85 735.25 642.63 732.11 640.50 731.55 C 634.37 729.36 627.71 734.72 627.21 740.88 M 608.47 732.58 C 604.75 734.02 607.68 740.00 611.02 737.78 C 614.22 736.30 611.63 731.05 608.47 732.58 M 278.12 744.99 C 277.88 748.12 283.05 748.56 283.63 745.59 C 284.34 743.56 282.48 742.32 281.04 741.41 C 279.64 742.18 277.65 742.96 278.12 744.99 M 616.34 743.14 C 614.34 745.48 612.67 748.08 611.15 750.75 C 612.48 750.20 613.77 749.55 615.15 749.10 C 617.42 751.18 618.84 753.95 620.55 756.47 C 622.47 759.54 624.84 762.40 625.94 765.91 C 625.00 766.89 624.10 767.91 623.22 768.96 C 627.54 767.88 630.73 764.43 634.64 762.44 C 634.49 762.20 634.20 761.72 634.05 761.48 C 633.04 761.85 632.02 762.20 631.00 762.50 C 629.52 761.78 628.75 760.24 627.84 758.99 C 624.86 754.33 621.81 749.72 618.86 745.05 C 618.19 744.27 617.66 742.49 616.34 743.14 M 252.87 744.11 C 247.03 745.21 242.99 750.58 241.62 756.08 C 240.45 760.85 242.62 766.63 247.45 768.38 C 252.32 770.15 257.64 767.85 260.85 764.07 C 258.03 764.08 255.73 766.42 252.85 765.91 C 249.43 765.60 246.67 762.42 246.74 759.01 C 246.84 754.59 248.99 750.21 252.51 747.52 C 254.96 745.43 259.02 745.56 261.07 748.17 C 262.74 750.56 258.62 753.60 261.25 755.67 C 262.75 757.65 265.88 756.49 265.92 754.06 C 266.64 747.37 258.90 742.52 252.87 744.11 M 596.55 758.58 C 596.96 759.34 597.38 760.12 597.81 760.90 C 598.42 757.97 602.28 754.20 605.07 757.03 C 608.49 761.21 610.46 766.38 613.08 771.08 C 614.55 773.31 611.59 774.76 610.85 776.64 C 615.02 774.67 619.10 772.51 623.07 770.17 C 621.61 770.20 620.16 770.27 618.73 770.38 C 615.80 766.96 614.17 762.71 611.99 758.84 C 610.34 755.60 608.09 751.61 603.95 751.61 C 599.95 751.61 597.99 755.45 596.55 758.58 M 268.38 753.59 C 268.65 755.08 270.67 755.15 271.68 755.99 C 269.95 760.85 267.18 765.24 264.85 769.82 C 264.02 771.12 263.46 772.79 262.00 773.54 C 260.63 773.44 259.26 773.33 257.89 773.20 C 261.56 776.00 265.82 777.92 270.00 779.82 C 269.06 778.58 268.18 777.30 267.35 776.01 C 270.14 768.65 274.88 762.16 277.94 754.92 C 275.16 753.45 271.52 753.74 268.38 753.59 M 587.44 764.16 C 588.68 763.57 589.91 762.96 591.15 762.35 C 594.55 767.28 597.19 772.71 599.86 778.06 C 601.40 780.22 598.71 781.71 597.76 783.42 C 601.94 781.85 605.71 779.42 609.69 777.43 C 609.55 777.16 609.27 776.62 609.13 776.35 C 608.02 776.78 606.92 777.22 605.83 777.67 C 600.43 771.26 598.53 762.70 593.32 756.18 C 591.37 758.83 588.44 760.92 587.44 764.16 M 283.26 762.17 C 281.05 763.03 279.99 767.60 283.06 767.86 C 285.72 768.42 285.85 764.91 287.48 763.64 C 289.61 762.59 292.24 763.82 293.33 765.79 C 294.13 768.01 292.80 770.20 292.17 772.30 C 287.52 771.97 282.62 771.21 278.14 772.93 C 273.69 774.55 272.44 781.76 276.73 784.27 C 279.60 786.22 283.10 785.05 286.19 784.43 C 286.09 785.12 285.89 786.51 285.80 787.20 C 287.04 791.24 293.94 789.96 295.24 786.50 C 293.85 786.80 292.46 787.11 291.08 787.43 C 292.13 780.83 296.52 775.36 298.40 768.98 C 297.06 762.74 288.78 759.31 283.26 762.17 M 326.12 762.20 C 322.65 763.13 324.49 769.04 327.94 767.65 C 331.52 766.71 329.74 760.70 326.12 762.20 M 302.08 769.01 C 303.23 769.91 304.54 770.59 305.92 771.12 C 303.62 777.80 299.87 784.07 298.63 791.04 C 299.63 796.73 307.80 796.14 309.90 791.53 C 307.99 791.88 305.86 793.48 304.06 792.05 C 303.02 790.62 303.94 788.94 304.40 787.52 C 306.31 782.67 308.37 777.88 310.20 773.00 C 312.09 773.61 313.92 774.39 315.86 774.86 C 317.71 772.14 312.74 771.96 311.22 771.01 C 312.15 768.21 313.36 765.52 314.25 762.71 C 310.46 765.32 306.91 768.56 302.08 769.01 M 536.95 769.68 C 538.05 769.11 539.15 768.53 540.25 767.95 C 542.47 770.65 543.23 774.13 544.41 777.35 C 546.68 784.26 549.29 791.07 551.39 798.03 C 552.23 800.02 549.62 800.75 548.48 801.76 C 548.80 801.99 549.14 802.24 549.48 802.50 C 553.35 800.68 557.81 800.18 561.35 797.73 C 559.69 797.19 556.57 798.66 556.02 796.21 C 554.20 791.54 552.58 786.78 551.11 781.99 C 551.69 779.22 554.00 776.28 557.03 776.20 C 559.49 776.16 560.41 778.80 561.19 780.68 C 562.62 784.80 564.18 788.89 565.40 793.09 C 566.35 795.47 563.07 795.82 562.28 797.56 C 566.71 796.83 571.14 795.21 575.06 793.01 C 574.07 792.94 572.09 792.80 571.10 792.74 C 568.48 789.42 568.00 784.88 566.37 781.05 C 565.11 777.44 563.55 772.52 559.09 772.08 C 554.40 771.53 552.13 776.16 550.15 779.52 C 548.13 773.80 546.38 767.99 544.11 762.37 C 541.69 764.73 538.07 766.30 536.95 769.68 M 575.12 765.07 C 571.50 766.55 568.11 770.45 569.51 774.58 C 570.12 776.82 573.27 777.15 574.27 775.01 C 574.57 772.76 572.22 770.59 573.57 768.43 C 574.82 766.98 577.01 765.94 578.89 766.79 C 580.72 767.91 581.60 769.95 582.63 771.76 C 579.58 774.89 576.23 777.97 574.44 782.04 C 572.25 786.24 576.18 792.24 581.01 791.43 C 584.76 790.94 586.52 787.16 588.02 784.17 C 589.15 785.23 590.23 786.78 592.02 786.58 C 595.07 785.23 596.29 781.65 596.18 778.54 C 595.27 779.59 594.45 780.72 593.53 781.76 C 592.27 781.77 591.94 780.42 591.41 779.56 C 588.98 774.94 587.35 769.89 584.47 765.52 C 582.12 762.65 577.99 763.63 575.12 765.07 M 315.95 776.33 C 316.83 776.49 318.58 776.80 319.45 776.96 C 319.70 780.86 317.71 784.40 316.64 788.05 C 315.52 790.80 315.10 794.01 313.06 796.30 C 312.16 796.79 309.03 795.71 309.52 797.15 C 313.60 798.56 317.60 800.48 321.93 800.96 C 320.60 799.48 317.60 798.45 318.98 796.01 C 321.13 788.98 323.87 782.13 325.99 775.09 C 322.73 775.52 318.68 774.10 315.95 776.33 M 483.61 779.53 C 480.65 789.65 477.53 799.72 474.71 809.87 C 468.57 801.19 463.16 792.00 457.24 783.16 C 453.66 784.17 449.48 783.42 446.29 785.49 C 448.41 785.91 451.94 785.43 452.39 788.37 C 454.03 797.86 455.34 807.45 456.40 817.03 C 456.87 819.66 453.84 820.11 452.01 820.60 C 452.02 820.90 452.04 821.51 452.05 821.82 C 455.33 821.23 458.62 820.72 461.93 820.37 C 463.08 820.19 464.57 820.22 465.02 818.87 C 463.26 818.80 461.50 818.70 459.77 818.45 C 457.72 809.13 456.86 799.59 455.45 790.16 C 461.80 799.78 467.77 809.65 474.20 819.21 C 478.26 808.38 480.92 797.04 484.42 786.00 C 485.71 795.01 487.18 804.01 488.13 813.06 C 487.90 815.81 484.30 815.24 483.11 817.28 C 488.71 816.33 494.57 816.33 499.98 814.50 C 497.74 813.92 494.08 814.63 493.68 811.52 C 492.36 804.43 491.66 797.24 490.53 790.12 C 490.18 787.08 489.32 784.02 489.89 780.97 C 491.42 779.89 493.35 779.49 494.74 778.19 C 490.99 778.28 487.31 779.05 483.61 779.53 M 334.47 781.67 C 328.72 784.66 325.50 791.69 326.99 798.00 C 327.85 802.92 332.13 806.70 337.07 807.17 C 346.78 808.32 354.20 796.41 350.42 787.84 C 348.26 781.61 340.25 778.79 334.47 781.67 M 429.83 783.86 C 426.78 786.50 426.28 790.75 426.27 794.55 C 424.63 794.47 423.00 794.40 421.37 794.36 C 421.37 794.90 421.35 795.99 421.34 796.53 C 422.98 796.57 424.62 796.62 426.27 796.70 C 425.88 803.12 425.92 809.58 425.32 815.99 C 424.98 818.51 421.93 818.40 420.05 819.02 C 422.20 820.11 424.66 819.73 427.00 819.85 C 430.15 819.89 433.31 820.44 436.47 819.98 C 434.66 819.15 432.61 818.88 430.93 817.80 C 430.08 816.34 430.30 814.58 430.27 812.99 C 430.48 807.60 430.65 802.21 430.86 796.83 C 433.05 796.44 436.61 798.39 437.75 795.84 C 436.02 793.96 433.07 795.06 430.83 794.60 C 431.10 791.74 431.13 788.87 431.59 786.04 C 431.81 783.73 434.60 782.42 436.56 783.56 C 438.25 784.97 439.21 787.09 441.02 788.39 C 443.23 788.90 444.99 786.06 443.57 784.32 C 440.46 779.98 433.40 780.20 429.83 783.86 M 524.61 785.52 C 520.64 790.99 522.12 798.85 526.22 803.82 C 529.44 807.67 535.68 809.11 539.83 805.93 C 543.59 803.21 544.70 798.24 544.19 793.86 C 542.27 795.65 542.74 798.86 540.68 800.61 C 538.42 803.11 534.23 803.50 531.63 801.32 C 527.72 798.25 525.53 792.95 526.36 788.03 C 526.83 784.88 530.52 782.02 533.61 783.63 C 535.15 785.30 535.87 788.94 538.93 787.73 C 541.46 787.36 541.21 783.75 539.39 782.64 C 534.87 778.99 527.71 780.91 524.61 785.52 M 354.03 787.99 C 355.18 788.58 357.88 787.97 357.73 790.05 C 357.25 794.45 355.88 798.70 355.02 803.04 C 354.47 804.88 354.38 807.24 352.72 808.51 C 351.84 808.61 350.07 808.82 349.18 808.93 C 352.92 811.16 357.56 811.05 361.62 812.54 C 361.71 812.27 361.88 811.73 361.96 811.46 C 360.64 810.64 358.01 810.20 358.78 808.03 C 359.57 803.49 360.81 799.05 361.78 794.55 C 362.28 791.67 365.82 791.49 368.01 790.54 C 369.49 791.27 371.70 791.71 371.75 793.80 C 371.73 799.33 369.76 804.64 368.60 810.00 C 368.30 812.54 365.31 811.67 363.57 812.12 C 367.24 814.71 372.19 814.47 376.42 815.79 C 375.78 814.15 373.43 813.73 373.26 811.97 C 373.90 806.24 376.14 800.79 376.61 795.03 C 376.89 792.31 375.58 789.33 372.91 788.33 C 369.30 786.69 365.65 789.23 362.55 790.88 C 362.96 789.16 363.34 787.44 363.68 785.72 C 360.52 786.54 356.69 785.91 354.03 787.99 M 499.39 794.86 C 497.82 801.98 501.06 811.43 508.96 813.02 C 516.23 814.89 522.80 806.71 520.55 799.94 C 519.73 801.71 519.17 803.59 518.25 805.32 C 516.29 807.94 512.38 808.86 509.42 807.49 C 505.70 805.96 503.54 802.19 502.75 798.42 C 508.46 797.15 514.20 795.98 519.84 794.41 C 518.71 791.70 517.44 788.71 514.62 787.39 C 508.71 784.17 500.64 788.38 499.39 794.86 M 402.18 793.08 C 395.69 795.10 392.27 802.71 393.48 809.12 C 394.31 814.65 399.10 819.59 404.92 819.37 C 414.64 819.77 420.43 807.53 416.40 799.44 C 414.18 794.08 407.64 791.21 402.18 793.08 Z" />
<path fill="#ffffff" opacity="1.00" d=" M 471.07 85.92 C 476.63 83.89 479.92 90.50 480.16 95.07 C 480.37 99.69 480.34 106.42 475.10 108.27 C 469.76 109.34 467.05 103.28 466.68 98.94 C 466.28 94.43 466.34 88.16 471.07 85.92 Z" />
<path fill="#ffffff" opacity="1.00" d=" M 322.78 111.00 C 322.46 107.80 323.63 103.92 327.06 102.95 C 330.35 101.94 332.97 104.78 334.02 107.58 C 330.29 108.78 326.55 109.92 322.78 111.00 Z" />
<path fill="#ffffff" opacity="1.00" d=" M 557.82 111.73 C 559.30 109.23 561.82 106.76 565.02 107.51 C 568.72 108.19 570.09 112.58 568.55 115.72 C 565.01 114.30 561.40 113.04 557.82 111.73 Z" />
<path fill="#ffffff" opacity="1.00" d=" M 429.36 130.60 C 477.24 128.93 525.50 138.20 569.24 157.78 C 627.31 183.56 677.18 227.28 710.44 281.39 C 731.66 315.72 746.16 354.15 752.96 393.92 C 760.48 438.32 758.68 484.33 747.30 527.92 C 730.30 594.04 690.99 654.08 637.48 696.42 C 609.45 718.70 577.66 736.26 543.79 747.89 C 464.68 775.46 374.62 770.00 299.64 732.51 C 240.40 703.46 190.81 655.30 159.86 597.06 C 140.48 560.83 128.29 520.76 124.27 479.87 C 117.49 414.06 131.84 346.22 165.15 289.02 C 196.13 235.36 243.14 191.13 298.64 163.57 C 339.16 143.33 384.09 132.01 429.36 130.60 M 334.05 164.95 C 299.24 177.80 266.91 197.46 239.70 222.71 C 212.18 248.16 190.03 279.30 174.52 313.39 C 158.67 348.17 149.65 385.92 147.09 424.02 C 146.71 429.42 146.16 434.85 146.57 440.26 C 147.32 440.17 148.83 439.98 149.58 439.89 C 152.29 406.28 159.37 372.80 172.89 341.82 C 186.51 310.23 207.15 281.61 233.39 259.30 C 261.28 235.37 294.93 218.78 330.11 208.62 C 365.80 198.34 403.06 194.01 440.15 194.17 C 445.44 188.86 447.41 181.22 448.05 173.97 C 448.82 163.75 445.74 152.87 438.27 145.59 C 402.80 146.45 367.34 152.51 334.05 164.95 M 449.06 157.41 C 472.72 159.44 496.27 163.51 518.96 170.58 C 554.97 181.70 588.92 200.61 615.68 227.34 C 641.89 252.88 660.98 285.13 673.32 319.45 C 688.09 360.59 693.79 404.52 693.83 448.09 C 700.28 454.05 709.43 455.97 717.98 455.82 C 726.81 455.67 736.03 452.62 742.15 446.02 C 741.64 408.05 734.36 370.05 720.25 334.75 C 706.49 300.31 686.01 268.52 660.02 242.04 C 633.92 215.27 602.32 194.01 567.96 179.37 C 530.73 163.49 490.38 155.25 449.97 154.17 C 447.62 153.15 446.54 157.28 449.06 157.41 M 439.97 214.22 C 444.29 219.90 447.28 226.83 447.31 234.05 C 447.23 240.35 444.38 246.27 440.19 250.86 C 395.80 251.07 350.95 260.50 311.76 281.78 C 280.75 298.49 253.68 322.95 235.36 353.16 C 217.82 381.71 208.41 414.81 206.18 448.13 C 210.75 443.80 216.59 440.49 223.02 440.32 C 230.37 439.77 237.45 443.11 242.81 447.96 C 243.19 501.02 258.77 554.27 289.05 598.04 C 309.70 627.88 337.93 653.03 371.49 667.34 C 393.09 676.73 416.64 681.22 440.15 681.51 C 436.65 676.92 433.18 671.89 432.72 665.95 C 432.07 658.34 435.85 651.27 440.13 645.26 C 481.49 644.26 523.11 636.87 561.12 620.12 C 593.35 605.94 622.82 584.13 642.90 554.92 C 664.64 523.73 674.33 485.24 673.86 447.50 C 668.20 451.87 661.34 455.27 654.02 454.92 C 647.71 455.11 641.89 452.01 637.19 448.06 C 637.29 408.96 629.86 369.68 614.26 333.76 C 599.62 300.09 577.13 269.27 547.14 247.72 C 516.32 225.19 477.98 214.03 439.97 214.22 M 138.30 449.23 C 137.48 451.05 138.07 453.13 138.08 455.05 C 139.23 488.39 145.34 521.63 156.88 552.97 C 169.50 587.41 188.71 619.47 213.49 646.55 C 238.71 674.27 269.64 696.69 303.64 712.43 C 343.80 731.11 388.03 740.62 432.26 741.49 C 432.32 740.47 432.38 739.45 432.45 738.45 C 411.57 736.47 390.73 733.41 370.50 727.76 C 335.39 718.23 301.91 701.65 274.46 677.60 C 245.09 652.25 223.24 618.87 209.32 582.80 C 192.76 539.86 186.27 493.51 186.42 447.65 C 180.73 442.19 172.65 440.24 164.99 439.77 C 155.38 439.40 145.18 442.25 138.30 449.23 M 718.43 523.02 C 708.72 556.18 692.51 587.65 669.67 613.68 C 645.03 642.06 612.95 663.47 578.14 677.34 C 534.30 694.91 486.74 701.50 439.73 701.58 C 433.80 708.18 431.86 717.41 432.09 726.06 C 432.21 734.85 435.51 743.70 441.79 749.96 C 478.31 749.27 514.82 742.71 548.96 729.61 C 582.99 716.61 614.58 697.14 641.19 672.23 C 669.37 645.98 691.87 613.75 707.31 578.50 C 724.26 539.93 732.83 497.90 733.83 455.84 C 733.05 455.72 731.48 455.46 730.69 455.34 C 728.65 478.20 725.04 501.00 718.43 523.02 Z" />
<path fill="#ffffff" opacity="1.00" d=" M 619.67 159.39 C 618.13 156.69 620.24 153.26 623.04 152.55 C 626.03 151.93 629.03 152.85 631.93 153.50 C 629.93 156.08 628.50 159.15 626.09 161.37 C 623.86 161.42 621.08 161.41 619.67 159.39 Z" />
<path fill="#ffffff" opacity="1.00" d=" M 289.22 412.19 C 294.52 405.12 303.18 400.85 311.99 400.72 C 324.55 400.70 337.10 400.73 349.66 400.71 C 349.64 406.97 349.72 413.23 349.49 419.49 C 336.99 419.29 324.48 419.25 311.98 419.23 C 306.89 418.85 303.17 423.21 301.74 427.66 C 317.35 428.21 332.98 428.54 348.60 428.80 C 348.72 443.44 344.59 458.57 334.77 469.72 C 321.73 484.78 301.09 491.46 281.57 490.84 C 281.79 485.70 281.95 480.55 281.83 475.40 C 294.43 472.03 307.67 469.16 318.37 461.28 C 323.36 457.66 327.18 452.11 327.40 445.78 C 311.40 445.65 295.41 445.30 279.42 445.45 C 279.28 433.78 282.02 421.59 289.22 412.19 Z" />
<path fill="#ffffff" opacity="1.00" d=" M 363.53 419.23 C 364.00 413.13 364.41 407.03 364.93 400.94 C 387.74 400.41 410.61 400.86 433.45 400.72 C 433.43 430.92 433.49 461.12 433.43 491.32 C 427.51 491.33 421.59 491.46 415.69 491.23 C 415.21 479.15 415.63 467.06 415.46 454.98 C 415.30 452.13 415.84 449.33 416.59 446.60 C 414.76 446.06 412.88 445.63 410.97 445.73 C 401.60 445.81 392.24 445.71 382.88 445.79 C 379.68 460.83 377.21 476.27 378.57 491.67 C 373.05 491.83 367.51 491.92 361.99 491.68 C 359.14 489.41 359.70 485.14 359.77 481.90 C 361.80 463.70 368.24 446.39 371.70 428.47 C 372.30 425.44 372.65 422.29 371.83 419.26 C 369.06 419.21 366.29 419.22 363.53 419.23 M 395.58 419.25 C 394.25 421.50 392.55 423.48 390.63 425.24 C 390.97 425.71 391.65 426.64 391.99 427.10 C 399.00 427.44 406.04 427.31 413.06 427.17 C 417.32 426.95 417.45 420.90 414.04 419.32 C 407.89 419.08 401.73 419.28 395.58 419.25 Z" />
<path fill="#ffffff" opacity="1.00" d=" M 522.35 405.40 C 527.05 403.14 531.92 400.70 537.25 400.64 C 537.35 429.42 537.27 458.21 537.30 487.00 C 537.43 488.51 536.90 489.98 535.89 491.12 C 530.22 491.68 524.50 491.20 518.82 491.34 C 518.85 477.90 518.78 464.45 518.83 451.00 C 518.98 443.95 520.21 436.62 517.92 429.79 C 514.78 431.54 512.25 434.15 509.58 436.51 C 506.08 439.83 502.17 443.13 500.65 447.88 C 504.48 459.65 509.62 470.99 512.80 482.97 C 513.58 485.71 513.89 488.57 513.55 491.41 C 497.27 491.25 480.98 491.44 464.70 491.32 C 465.13 476.01 472.46 462.11 477.58 448.00 C 476.87 443.97 473.42 441.06 470.91 438.00 C 467.44 434.64 464.26 430.45 459.52 428.90 C 458.98 441.57 459.29 454.26 459.08 466.94 C 458.47 475.19 459.23 483.57 457.50 491.73 C 451.76 491.85 446.02 491.76 440.28 491.79 C 440.46 463.18 440.01 434.59 439.74 406.00 C 439.78 404.47 439.58 402.70 440.94 401.64 C 443.98 401.15 446.87 402.60 449.65 403.62 C 458.65 407.40 467.16 412.30 475.23 417.77 C 480.01 421.29 485.42 424.71 487.93 430.35 C 488.72 430.35 490.29 430.36 491.08 430.36 C 493.43 425.54 497.54 421.98 501.62 418.66 C 508.07 413.57 515.06 409.18 522.35 405.40 Z" />
<path fill="#ffffff" opacity="1.00" d=" M 545.10 403.91 C 544.88 402.30 546.29 400.57 547.97 400.75 C 569.86 400.67 591.76 400.74 613.66 400.72 C 613.64 406.89 613.70 413.07 613.62 419.24 C 598.05 419.21 582.49 419.25 566.92 419.22 C 566.17 421.81 567.02 424.36 567.93 426.79 C 583.14 426.63 598.35 426.85 613.56 426.68 C 613.78 433.01 613.57 439.36 613.69 445.70 C 602.35 445.58 591.01 445.60 579.67 445.68 C 581.07 452.16 585.94 457.06 590.66 461.38 C 597.35 467.00 604.86 472.34 613.66 473.82 C 613.63 479.62 613.72 485.44 613.59 491.25 C 600.75 490.97 588.46 485.47 579.00 476.93 C 566.07 465.43 556.93 450.17 551.02 434.03 C 547.58 424.36 545.07 414.21 545.10 403.91 Z" />
<path fill="#ffffff" opacity="1.00" d=" M 805.30 472.20 C 806.35 468.81 810.49 471.45 811.26 473.75 C 813.13 478.73 812.55 485.19 808.93 489.25 C 806.61 490.33 804.90 488.08 803.10 487.02 C 804.05 482.12 803.91 477.00 805.30 472.20 Z" />
<path fill="#ffffff" opacity="1.00" d=" M 783.41 475.54 C 786.53 475.01 790.40 474.74 792.82 477.23 C 794.80 479.35 793.76 483.16 791.07 484.16 C 787.45 485.76 782.14 485.89 779.50 482.50 C 777.77 479.48 780.21 476.01 783.41 475.54 Z" />
<path fill="#ffffff" opacity="1.00" d=" M 100.09 548.22 C 103.38 548.01 107.22 549.43 108.02 552.98 C 108.87 556.16 105.81 558.44 103.38 559.78 C 101.87 556.05 101.05 552.10 100.09 548.22 Z" />
<path fill="#ffffff" opacity="1.00" d=" M 725.36 639.49 C 729.33 637.59 734.09 640.30 736.74 643.34 C 739.14 646.07 736.38 650.41 733.04 650.38 C 729.64 650.15 726.31 648.42 724.10 645.84 C 722.49 643.88 723.16 640.71 725.36 639.49 Z" />
<path fill="#ffffff" opacity="1.00" d=" M 741.99 658.26 C 745.32 654.45 747.49 649.71 751.10 646.15 C 753.87 644.21 755.85 648.68 755.42 650.96 C 754.26 656.24 750.82 661.14 745.91 663.56 C 743.79 662.48 742.77 660.37 741.99 658.26 Z" />
<path fill="#ffffff" opacity="1.00" d=" M 655.81 733.91 C 656.35 731.11 657.86 728.65 659.12 726.14 C 661.17 728.48 663.07 730.95 665.13 733.29 C 664.52 735.49 664.07 738.11 661.92 739.37 C 658.61 740.61 655.20 737.19 655.81 733.91 Z" />
<path fill="#ffffff" opacity="1.00" d=" M 232.35 731.42 C 235.60 730.05 239.57 732.47 239.87 735.96 C 240.34 741.94 236.60 747.46 232.24 751.20 C 228.93 754.18 223.27 751.40 223.23 747.08 C 223.24 740.84 226.83 734.39 232.35 731.42 Z" />
<path fill="#ffffff" opacity="1.00" d=" M 281.81 774.80 C 284.71 773.35 288.05 773.80 291.17 774.06 C 289.88 776.87 288.55 779.66 287.31 782.49 C 285.21 782.73 282.84 783.79 280.90 782.48 C 278.11 780.69 278.99 776.12 281.81 774.80 Z" />
<path fill="#ffffff" opacity="1.00" d=" M 337.21 783.21 C 340.17 781.29 344.31 783.25 345.30 786.48 C 347.22 792.07 345.63 798.59 342.29 803.31 C 339.62 806.67 334.04 805.13 332.86 801.20 C 330.91 795.20 332.17 787.31 337.21 783.21 Z" />
<path fill="#ffffff" opacity="1.00" d=" M 502.05 796.71 C 501.82 792.83 504.20 789.34 508.05 788.53 C 510.76 789.36 512.85 791.34 513.57 794.14 C 509.73 795.02 505.91 795.95 502.05 796.71 Z" />
<path fill="#ffffff" opacity="1.00" d=" M 402.36 795.33 C 404.82 793.54 408.38 794.66 409.96 797.09 C 412.90 801.41 412.62 807.08 411.57 811.97 C 410.97 815.00 408.22 817.86 404.92 817.33 C 400.44 816.17 398.99 810.97 398.64 806.93 C 398.50 802.89 398.78 797.91 402.36 795.33 Z" />
</g>
<g id="#221e1fff">
<path fill="#221e1f" opacity="1.00" d=" M 388.58 72.68 C 390.70 72.30 392.57 74.63 391.71 76.66 C 390.94 79.08 387.09 79.10 386.33 76.67 C 385.63 74.94 386.75 73.00 388.58 72.68 Z" />
<path fill="#221e1f" opacity="1.00" d=" M 399.32 86.72 C 403.36 84.09 405.43 79.85 407.44 75.67 C 407.94 78.58 408.15 81.52 408.31 84.46 C 410.19 84.33 412.08 84.15 413.98 84.19 C 415.51 87.39 410.09 86.05 408.44 86.59 C 408.64 91.42 409.14 96.23 409.42 101.05 C 409.60 102.94 409.46 105.11 411.01 106.51 C 413.33 107.17 414.67 104.80 416.40 103.75 C 415.86 107.14 413.22 109.61 410.00 110.50 C 407.90 109.76 405.39 108.61 405.26 106.04 C 404.34 99.82 404.39 93.48 403.74 87.22 C 402.25 87.16 400.76 87.13 399.32 86.72 Z" />
<path fill="#221e1f" opacity="1.00" d=" M 500.90 77.94 C 504.77 74.31 511.94 74.49 514.97 79.10 C 516.34 80.79 515.05 83.29 512.96 83.47 C 510.87 82.82 510.37 80.42 509.12 78.89 C 507.97 76.67 504.34 76.79 503.39 79.12 C 502.20 82.05 501.93 85.24 501.37 88.33 C 503.29 89.13 508.80 87.83 507.58 91.48 C 505.38 91.12 503.18 90.75 500.98 90.45 C 500.26 96.68 498.84 102.83 498.26 109.08 C 497.52 112.64 502.00 112.18 503.78 114.03 C 498.42 113.29 492.68 113.28 487.67 111.13 C 489.59 110.70 492.81 111.24 493.27 108.55 C 494.69 102.35 495.27 95.99 496.46 89.74 C 495.07 89.18 490.49 89.83 491.86 87.13 C 493.50 87.11 495.14 87.27 496.79 87.39 C 497.30 83.98 498.12 80.26 500.90 77.94 Z" />
<path fill="#221e1f" opacity="1.00" d=" M 416.12 83.58 C 420.40 83.88 425.22 82.41 429.18 84.21 C 428.30 84.41 426.55 84.83 425.67 85.03 C 426.04 90.98 430.23 95.90 432.30 101.37 C 434.81 96.42 436.95 91.21 438.55 85.90 C 437.64 85.05 436.67 84.28 435.74 83.46 C 438.79 83.40 441.85 83.43 444.91 83.56 C 443.34 84.81 441.34 85.81 440.74 87.88 C 437.18 96.58 433.72 105.33 430.09 114.01 C 428.57 117.57 425.21 121.18 421.02 120.76 C 418.58 120.58 417.24 117.65 418.65 115.67 C 420.88 114.29 423.47 116.04 425.88 115.74 C 428.04 113.47 429.59 110.29 429.86 107.19 C 427.21 100.95 424.09 94.91 421.23 88.77 C 420.28 86.40 418.09 85.03 416.12 83.58 Z" />
<path fill="#221e1f" opacity="1.00" d=" M 383.76 90.31 C 386.25 87.97 389.46 86.68 392.48 85.18 C 393.80 92.75 394.09 100.47 395.60 108.00 C 395.69 109.98 398.08 109.51 399.36 109.91 L 399.48 110.99 C 395.27 111.31 391.10 111.96 386.89 112.28 C 388.58 110.93 391.41 109.81 390.52 107.10 C 389.61 101.53 389.76 95.65 387.83 90.32 C 386.81 90.32 384.78 90.31 383.76 90.31 Z" />
<path fill="#221e1f" opacity="1.00" d=" M 374.13 89.35 C 374.81 88.78 375.57 88.36 376.40 88.08 C 377.20 91.06 377.85 94.09 377.98 97.18 C 376.89 95.88 375.93 94.48 374.88 93.16 C 372.72 90.09 367.18 90.45 365.67 93.97 C 365.18 96.55 367.66 98.35 369.88 98.85 C 373.90 100.26 379.25 100.20 381.58 104.39 C 383.62 107.88 381.78 112.37 378.47 114.31 C 375.65 116.08 372.17 115.77 369.00 115.72 C 368.48 116.06 367.44 116.72 366.93 117.05 C 366.31 113.83 365.52 110.64 365.03 107.39 C 367.62 109.57 369.02 113.59 372.94 113.76 C 376.10 114.65 380.11 111.38 378.16 108.13 C 374.92 103.74 368.21 105.14 364.41 101.46 C 361.75 98.58 362.15 93.59 365.21 91.14 C 367.63 88.91 371.11 89.34 374.13 89.35 Z" />
<path fill="#221e1f" opacity="1.00" d=" M 766.22 553.22 C 768.84 551.60 772.01 551.88 774.91 552.44 C 773.45 558.08 771.10 563.45 769.79 569.12 C 774.96 571.44 782.77 569.32 783.79 563.11 C 784.86 559.43 781.36 557.27 780.14 554.30 C 784.71 556.13 788.56 560.97 787.72 566.10 C 787.09 570.80 782.76 574.46 778.10 574.80 C 772.88 575.18 767.27 573.25 763.86 569.18 C 759.90 564.53 760.85 556.37 766.22 553.22 M 763.86 560.11 C 762.04 563.52 764.76 567.23 767.90 568.61 C 769.05 564.91 770.27 561.23 771.46 557.54 C 768.68 556.89 765.27 557.28 763.86 560.11 Z" />
<path fill="#221e1f" opacity="1.00" d=" M 156.25 628.98 C 158.97 626.73 162.57 631.62 159.62 633.58 C 156.73 636.43 152.71 630.93 156.25 628.98 Z" />
<path fill="#221e1f" opacity="1.00" d=" M 608.47 732.58 C 611.63 731.05 614.22 736.30 611.02 737.78 C 607.68 740.00 604.75 734.02 608.47 732.58 Z" />
<path fill="#221e1f" opacity="1.00" d=" M 278.12 744.99 C 277.65 742.96 279.64 742.18 281.04 741.41 C 282.48 742.32 284.34 743.56 283.63 745.59 C 283.05 748.56 277.88 748.12 278.12 744.99 Z" />
<path fill="#221e1f" opacity="1.00" d=" M 315.95 776.33 C 318.68 774.10 322.73 775.52 325.99 775.09 C 323.87 782.13 321.13 788.98 318.98 796.01 C 317.60 798.45 320.60 799.48 321.93 800.96 C 317.60 800.48 313.60 798.56 309.52 797.15 C 309.03 795.71 312.16 796.79 313.06 796.30 C 315.10 794.01 315.52 790.80 316.64 788.05 C 317.71 784.40 319.70 780.86 319.45 776.96 C 318.58 776.80 316.83 776.49 315.95 776.33 Z" />
</g>
<g id="#231f20ff">
<path fill="#231f20" opacity="1.00" d=" M 528.62 82.14 C 538.47 84.59 548.24 87.35 558.05 89.96 C 557.16 92.97 557.48 96.54 555.41 99.08 C 555.07 96.81 555.52 94.07 553.68 92.34 C 551.44 90.25 548.17 90.06 545.41 89.08 C 542.56 98.68 540.07 108.40 537.54 118.09 C 536.12 121.47 540.10 122.31 542.07 123.94 C 538.56 123.75 535.26 122.45 531.87 121.66 C 529.67 121.04 527.26 120.80 525.44 119.28 C 526.97 119.31 528.51 119.32 530.05 119.30 C 531.78 118.69 532.12 116.68 532.64 115.15 C 535.13 106.03 537.47 96.87 540.03 87.77 C 537.13 87.03 534.17 85.72 531.14 86.22 C 528.73 87.05 527.97 89.79 526.13 91.32 C 526.43 88.14 527.71 85.18 528.62 82.14 Z" />
<path fill="#231f20" opacity="1.00" d=" M 470.15 84.10 C 475.16 82.51 481.18 84.70 483.68 89.42 C 486.95 94.75 485.71 102.00 481.73 106.61 C 477.46 111.64 468.59 111.79 464.39 106.60 C 458.29 99.72 461.14 86.89 470.15 84.10 M 471.07 85.92 C 466.34 88.16 466.28 94.43 466.68 98.94 C 467.05 103.28 469.76 109.34 475.10 108.27 C 480.34 106.42 480.37 99.69 480.16 95.07 C 479.92 90.50 476.63 83.89 471.07 85.92 Z" />
<path fill="#231f20" opacity="1.00" d=" M 321.40 105.38 C 324.27 100.20 332.15 98.17 336.77 102.18 C 338.51 103.54 339.43 105.61 340.12 107.65 C 334.55 109.37 328.96 111.03 323.40 112.78 C 325.00 117.63 329.36 122.67 334.99 121.49 C 338.78 120.89 340.65 117.10 340.93 113.62 L 342.26 113.61 C 342.23 117.70 341.42 122.31 337.97 124.96 C 333.48 128.23 326.70 126.97 323.42 122.57 C 319.86 117.80 318.27 110.76 321.40 105.38 M 322.78 111.00 C 326.55 109.92 330.29 108.78 334.02 107.58 C 332.97 104.78 330.35 101.94 327.06 102.95 C 323.63 103.92 322.46 107.80 322.78 111.00 Z" />
<path fill="#231f20" opacity="1.00" d=" M 584.89 102.87 C 588.21 102.80 591.50 103.22 594.81 103.46 C 592.58 109.13 589.60 114.45 586.97 119.93 C 590.07 119.19 593.54 117.64 596.63 119.34 C 599.65 120.55 600.39 124.26 599.57 127.11 C 597.93 133.03 593.69 138.00 592.41 144.01 C 593.77 146.14 596.67 149.41 599.29 147.39 C 602.68 142.15 605.88 136.73 608.50 131.05 C 607.26 130.19 606.02 129.35 604.89 128.36 C 608.29 128.38 611.63 129.07 614.97 129.61 C 614.21 131.38 613.29 133.09 612.27 134.72 C 612.67 135.11 613.08 135.50 613.50 135.89 C 610.85 136.22 609.97 138.83 608.77 140.77 C 607.16 143.84 605.06 146.67 603.83 149.92 C 603.79 151.83 605.60 153.14 606.18 154.91 C 602.27 152.35 597.27 150.94 594.30 147.24 C 590.45 145.18 586.26 143.72 582.68 141.18 C 584.14 141.28 585.61 141.37 587.08 141.43 C 589.57 138.86 590.55 135.26 592.25 132.18 C 593.38 129.52 595.27 126.93 595.18 123.96 C 593.84 120.07 589.00 120.75 585.96 121.95 C 583.82 127.01 580.82 131.69 579.07 136.90 C 579.53 138.52 581.09 139.52 581.98 140.91 C 577.75 139.16 573.24 137.54 569.67 134.63 C 570.70 134.67 572.76 134.76 573.80 134.80 C 575.32 133.61 575.92 131.62 576.85 129.97 C 580.46 122.24 584.48 114.69 587.93 106.87 C 589.11 104.72 585.96 104.07 584.89 102.87 Z" />
<path fill="#231f20" opacity="1.00" d=" M 555.90 109.02 C 560.13 104.30 568.53 104.35 572.47 109.40 C 574.77 112.23 574.77 116.19 573.47 119.45 C 568.15 117.23 562.63 115.58 557.31 113.37 C 556.00 116.83 555.58 120.96 557.68 124.20 C 559.40 127.36 563.52 128.76 566.86 127.51 C 568.43 126.62 569.73 125.34 571.15 124.24 C 570.11 131.22 559.80 134.33 554.80 129.25 C 548.98 123.88 551.00 114.30 555.90 109.02 M 557.82 111.73 C 561.40 113.04 565.01 114.30 568.55 115.72 C 570.09 112.58 568.72 108.19 565.02 107.51 C 561.82 106.76 559.30 109.23 557.82 111.73 Z" />
<path fill="#231f20" opacity="1.00" d=" M 273.87 129.11 C 274.95 125.75 277.85 123.48 280.09 120.91 C 283.90 127.50 287.07 134.46 291.00 140.99 C 292.11 142.91 294.51 141.68 296.16 141.57 C 292.77 144.57 288.41 146.62 284.13 148.12 C 285.01 147.06 285.96 146.06 286.79 144.97 C 286.56 142.15 284.74 139.84 283.56 137.38 C 281.54 133.92 280.14 130.01 277.24 127.15 C 276.13 127.83 275.01 128.48 273.87 129.11 Z" />
<path fill="#231f20" opacity="1.00" d=" M 612.82 134.13 C 615.25 133.28 618.25 131.66 620.74 133.31 C 623.06 134.51 623.04 138.96 619.97 138.98 C 617.82 139.25 617.32 136.96 616.41 135.55 C 615.19 135.12 613.99 134.66 612.82 134.13 Z" />
<path fill="#231f20" opacity="1.00" d=" M 627.08 140.16 C 632.39 139.21 639.16 143.28 639.59 148.90 C 638.01 155.59 631.24 159.96 629.89 166.73 C 630.95 166.68 633.07 166.58 634.12 166.52 C 631.96 169.33 625.89 169.90 624.43 166.06 C 624.64 165.30 625.06 163.77 625.27 163.01 C 622.07 163.18 618.33 163.63 615.84 161.13 C 612.32 157.93 614.52 151.29 619.05 150.37 C 623.78 149.53 628.52 150.85 633.12 151.88 C 634.10 149.76 636.15 147.51 635.07 145.03 C 633.91 143.42 632.07 141.93 629.96 142.49 C 628.15 143.76 626.77 147.84 624.09 145.81 C 621.72 143.75 624.58 140.34 627.08 140.16 M 619.67 159.39 C 621.08 161.41 623.86 161.42 626.09 161.37 C 628.50 159.15 629.93 156.08 631.93 153.50 C 629.03 152.85 626.03 151.93 623.04 152.55 C 620.24 153.26 618.13 156.69 619.67 159.39 Z" />
<path fill="#231f20" opacity="1.00" d=" M 334.05 164.95 C 367.34 152.51 402.80 146.45 438.27 145.59 C 445.74 152.87 448.82 163.75 448.05 173.97 C 447.41 181.22 445.44 188.86 440.15 194.17 C 403.06 194.01 365.80 198.34 330.11 208.62 C 294.93 218.78 261.28 235.37 233.39 259.30 C 207.15 281.61 186.51 310.23 172.89 341.82 C 159.37 372.80 152.29 406.28 149.58 439.89 C 148.83 439.98 147.32 440.17 146.57 440.26 C 146.16 434.85 146.71 429.42 147.09 424.02 C 149.65 385.92 158.67 348.17 174.52 313.39 C 190.03 279.30 212.18 248.16 239.70 222.71 C 266.91 197.46 299.24 177.80 334.05 164.95 Z" />
<path fill="#231f20" opacity="1.00" d=" M 449.06 157.41 C 446.54 157.28 447.62 153.15 449.97 154.17 C 490.38 155.25 530.73 163.49 567.96 179.37 C 602.32 194.01 633.92 215.27 660.02 242.04 C 686.01 268.52 706.49 300.31 720.25 334.75 C 734.36 370.05 741.64 408.05 742.15 446.02 C 736.03 452.62 726.81 455.67 717.98 455.82 C 709.43 455.97 700.28 454.05 693.83 448.09 C 693.79 404.52 688.09 360.59 673.32 319.45 C 660.98 285.13 641.89 252.88 615.68 227.34 C 588.92 200.61 554.97 181.70 518.96 170.58 C 496.27 163.51 472.72 159.44 449.06 157.41 Z" />
<path fill="#231f20" opacity="1.00" d=" M 439.97 214.22 C 477.98 214.03 516.32 225.19 547.14 247.72 C 577.13 269.27 599.62 300.09 614.26 333.76 C 629.86 369.68 637.29 408.96 637.19 448.06 C 641.89 452.01 647.71 455.11 654.02 454.92 C 661.34 455.27 668.20 451.87 673.86 447.50 C 674.33 485.24 664.64 523.73 642.90 554.92 C 622.82 584.13 593.35 605.94 561.12 620.12 C 523.11 636.87 481.49 644.26 440.13 645.26 C 435.85 651.27 432.07 658.34 432.72 665.95 C 433.18 671.89 436.65 676.92 440.15 681.51 C 416.64 681.22 393.09 676.73 371.49 667.34 C 337.93 653.03 309.70 627.88 289.05 598.04 C 258.77 554.27 243.19 501.02 242.81 447.96 C 237.45 443.11 230.37 439.77 223.02 440.32 C 216.59 440.49 210.75 443.80 206.18 448.13 C 208.41 414.81 217.82 381.71 235.36 353.16 C 253.68 322.95 280.75 298.49 311.76 281.78 C 350.95 260.50 395.80 251.07 440.19 250.86 C 444.38 246.27 447.23 240.35 447.31 234.05 C 447.28 226.83 444.29 219.90 439.97 214.22 M 289.22 412.19 C 282.02 421.59 279.28 433.78 279.42 445.45 C 295.41 445.30 311.40 445.65 327.40 445.78 C 327.18 452.11 323.36 457.66 318.37 461.28 C 307.67 469.16 294.43 472.03 281.83 475.40 C 281.95 480.55 281.79 485.70 281.57 490.84 C 301.09 491.46 321.73 484.78 334.77 469.72 C 344.59 458.57 348.72 443.44 348.60 428.80 C 332.98 428.54 317.35 428.21 301.74 427.66 C 303.17 423.21 306.89 418.85 311.98 419.23 C 324.48 419.25 336.99 419.29 349.49 419.49 C 349.72 413.23 349.64 406.97 349.66 400.71 C 337.10 400.73 324.55 400.70 311.99 400.72 C 303.18 400.85 294.52 405.12 289.22 412.19 M 363.53 419.23 C 366.29 419.22 369.06 419.21 371.83 419.26 C 372.65 422.29 372.30 425.44 371.70 428.47 C 368.24 446.39 361.80 463.70 359.77 481.90 C 359.70 485.14 359.14 489.41 361.99 491.68 C 367.51 491.92 373.05 491.83 378.57 491.67 C 377.21 476.27 379.68 460.83 382.88 445.79 C 392.24 445.71 401.60 445.81 410.97 445.73 C 412.88 445.63 414.76 446.06 416.59 446.60 C 415.84 449.33 415.30 452.13 415.46 454.98 C 415.63 467.06 415.21 479.15 415.69 491.23 C 421.59 491.46 427.51 491.33 433.43 491.32 C 433.49 461.12 433.43 430.92 433.45 400.72 C 410.61 400.86 387.74 400.41 364.93 400.94 C 364.41 407.03 364.00 413.13 363.53 419.23 M 522.35 405.40 C 515.06 409.18 508.07 413.57 501.62 418.66 C 497.54 421.98 493.43 425.54 491.08 430.36 C 490.29 430.36 488.72 430.35 487.93 430.35 C 485.42 424.71 480.01 421.29 475.23 417.77 C 467.16 412.30 458.65 407.40 449.65 403.62 C 446.87 402.60 443.98 401.15 440.94 401.64 C 439.58 402.70 439.78 404.47 439.74 406.00 C 440.01 434.59 440.46 463.18 440.28 491.79 C 446.02 491.76 451.76 491.85 457.50 491.73 C 459.23 483.57 458.47 475.19 459.08 466.94 C 459.29 454.26 458.98 441.57 459.52 428.90 C 464.26 430.45 467.44 434.64 470.91 438.00 C 473.42 441.06 476.87 443.97 477.58 448.00 C 472.46 462.11 465.13 476.01 464.70 491.32 C 480.98 491.44 497.27 491.25 513.55 491.41 C 513.89 488.57 513.58 485.71 512.80 482.97 C 509.62 470.99 504.48 459.65 500.65 447.88 C 502.17 443.13 506.08 439.83 509.58 436.51 C 512.25 434.15 514.78 431.54 517.92 429.79 C 520.21 436.62 518.98 443.95 518.83 451.00 C 518.78 464.45 518.85 477.90 518.82 491.34 C 524.50 491.20 530.22 491.68 535.89 491.12 C 536.90 489.98 537.43 488.51 537.30 487.00 C 537.27 458.21 537.35 429.42 537.25 400.64 C 531.92 400.70 527.05 403.14 522.35 405.40 M 545.10 403.91 C 545.07 414.21 547.58 424.36 551.02 434.03 C 556.93 450.17 566.07 465.43 579.00 476.93 C 588.46 485.47 600.75 490.97 613.59 491.25 C 613.72 485.44 613.63 479.62 613.66 473.82 C 604.86 472.34 597.35 467.00 590.66 461.38 C 585.94 457.06 581.07 452.16 579.67 445.68 C 591.01 445.60 602.35 445.58 613.69 445.70 C 613.57 439.36 613.78 433.01 613.56 426.68 C 598.35 426.85 583.14 426.63 567.93 426.79 C 567.02 424.36 566.17 421.81 566.92 419.22 C 582.49 419.25 598.05 419.21 613.62 419.24 C 613.70 413.07 613.64 406.89 613.66 400.72 C 591.76 400.74 569.86 400.67 547.97 400.75 C 546.29 400.57 544.88 402.30 545.10 403.91 Z" />
<path fill="#231f20" opacity="1.00" d=" M 395.58 419.25 C 401.73 419.28 407.89 419.08 414.04 419.32 C 417.45 420.90 417.32 426.95 413.06 427.17 C 406.04 427.31 399.00 427.44 391.99 427.10 C 391.65 426.64 390.97 425.71 390.63 425.24 C 392.55 423.48 394.25 421.50 395.58 419.25 Z" />
<path fill="#231f20" opacity="1.00" d=" M 138.30 449.23 C 145.18 442.25 155.38 439.40 164.99 439.77 C 172.65 440.24 180.73 442.19 186.42 447.65 C 186.27 493.51 192.76 539.86 209.32 582.80 C 223.24 618.87 245.09 652.25 274.46 677.60 C 301.91 701.65 335.39 718.23 370.50 727.76 C 390.73 733.41 411.57 736.47 432.45 738.45 C 432.38 739.45 432.32 740.47 432.26 741.49 C 388.03 740.62 343.80 731.11 303.64 712.43 C 269.64 696.69 238.71 674.27 213.49 646.55 C 188.71 619.47 169.50 587.41 156.88 552.97 C 145.34 521.63 139.23 488.39 138.08 455.05 C 138.07 453.13 137.48 451.05 138.30 449.23 Z" />
<path fill="#231f20" opacity="1.00" d=" M 718.43 523.02 C 725.04 501.00 728.65 478.20 730.69 455.34 C 731.48 455.46 733.05 455.72 733.83 455.84 C 732.83 497.90 724.26 539.93 707.31 578.50 C 691.87 613.75 669.37 645.98 641.19 672.23 C 614.58 697.14 582.99 716.61 548.96 729.61 C 514.82 742.71 478.31 749.27 441.79 749.96 C 435.51 743.70 432.21 734.85 432.09 726.06 C 431.86 717.41 433.80 708.18 439.73 701.58 C 486.74 701.50 534.30 694.91 578.14 677.34 C 612.95 663.47 645.03 642.06 669.67 613.68 C 692.51 587.65 708.72 556.18 718.43 523.02 Z" />
<path fill="#231f20" opacity="1.00" d=" M 92.85 478.75 C 97.30 474.97 104.57 476.90 107.13 481.97 C 109.57 486.01 108.51 490.87 107.43 495.15 C 108.32 496.07 109.29 496.92 110.23 497.79 C 105.63 498.33 101.05 499.21 96.41 499.29 C 98.67 497.07 102.33 496.87 104.20 494.15 C 107.37 490.38 107.18 483.16 101.95 481.35 C 97.59 479.98 95.30 484.72 93.94 487.96 C 91.32 493.30 90.29 500.60 84.21 503.21 C 78.31 505.71 71.46 501.17 70.37 495.14 C 69.13 491.04 70.74 486.93 70.96 482.82 C 70.27 482.45 68.89 481.71 68.20 481.34 C 72.52 479.63 77.41 479.77 82.00 479.37 C 80.07 481.54 76.74 481.62 74.86 483.87 C 71.23 487.82 70.98 495.43 75.89 498.46 C 78.72 499.78 82.33 498.57 83.72 495.76 C 87.03 490.25 87.94 483.21 92.85 478.75 Z" />
<path fill="#231f20" opacity="1.00" d=" M 74.55 517.12 C 76.65 506.63 92.74 503.58 99.05 511.95 C 102.26 515.95 102.52 522.90 97.95 526.01 C 95.81 527.72 93.04 525.22 93.69 522.85 C 94.48 520.23 98.50 520.94 99.14 518.18 C 99.71 515.20 97.32 512.40 94.51 511.73 C 89.68 510.49 84.22 512.26 80.88 515.93 C 78.45 518.34 78.78 522.62 81.07 525.01 C 82.73 526.94 85.53 527.07 87.41 528.71 C 80.81 529.85 73.20 524.23 74.55 517.12 Z" />
<path fill="#231f20" opacity="1.00" d=" M 771.17 522.45 C 779.27 523.73 787.17 526.69 795.41 526.78 C 796.01 525.63 796.45 524.26 797.77 523.72 C 796.72 528.10 796.48 532.77 794.50 536.87 C 794.13 535.00 794.64 532.31 792.19 531.86 C 786.51 530.39 780.74 529.18 774.94 528.34 C 774.70 530.01 773.07 530.02 771.88 530.38 C 771.84 527.71 771.47 525.09 771.17 522.45 Z" />
<path fill="#231f20" opacity="1.00" d=" M 99.70 528.38 C 102.41 530.45 103.83 533.67 105.83 536.36 C 98.09 539.38 89.25 539.02 81.80 542.73 C 81.76 543.67 81.67 545.55 81.62 546.48 C 80.25 545.02 80.21 542.92 79.75 541.08 C 79.30 538.46 78.34 535.90 78.51 533.22 C 80.01 534.53 80.45 537.62 83.11 536.66 C 88.97 535.41 95.09 534.77 100.61 532.31 C 100.38 531.33 99.92 529.36 99.70 528.38 Z" />
<path fill="#231f20" opacity="1.00" d=" M 114.48 529.51 C 118.30 528.55 119.23 534.91 115.39 535.29 C 111.88 535.85 110.89 530.05 114.48 529.51 Z" />
<path fill="#231f20" opacity="1.00" d=" M 769.05 534.01 C 769.60 531.78 772.22 531.90 773.98 531.32 C 775.96 534.11 774.08 536.55 771.76 538.16 C 772.84 540.31 774.30 542.68 776.90 543.10 C 780.95 544.12 784.94 545.46 789.07 546.15 C 791.22 546.01 792.04 543.57 793.52 542.36 C 792.57 547.03 791.67 551.84 789.67 556.19 C 789.25 554.23 789.90 551.23 787.24 550.78 C 781.79 549.33 776.38 547.58 770.83 546.62 C 768.98 546.62 769.45 549.25 768.69 550.35 C 766.96 547.42 767.49 543.80 767.03 540.55 C 768.70 540.95 770.39 541.40 772.07 541.86 C 770.60 539.53 767.93 537.00 769.05 534.01 Z" />
<path fill="#231f20" opacity="1.00" d=" M 89.56 547.71 C 94.24 545.14 100.41 543.97 105.26 546.74 C 110.38 549.54 112.59 557.09 108.95 561.87 C 107.52 563.95 105.09 564.88 102.86 565.83 C 101.38 560.22 99.79 554.63 98.41 549.00 C 93.34 549.98 88.20 554.45 89.21 560.06 C 89.61 563.75 93.20 565.94 96.64 566.16 L 96.69 567.61 C 92.29 567.45 87.10 566.17 85.00 561.87 C 82.28 556.87 84.83 550.43 89.56 547.71 M 100.09 548.22 C 101.05 552.10 101.87 556.05 103.38 559.78 C 105.81 558.44 108.87 556.16 108.02 552.98 C 107.22 549.43 103.38 548.01 100.09 548.22 Z" />
<path fill="#231f20" opacity="1.00" d=" M 755.43 591.46 C 751.42 586.47 752.95 577.72 759.04 575.15 C 761.59 573.86 764.48 574.52 767.13 575.09 C 765.35 580.70 762.92 586.07 760.99 591.63 C 763.88 592.36 767.01 593.23 769.94 592.08 C 773.80 590.88 776.80 586.55 775.35 582.52 C 774.41 580.71 773.08 579.14 772.18 577.31 C 776.16 578.82 779.07 582.80 779.47 587.01 C 779.76 592.39 775.18 597.19 769.89 597.58 C 764.51 597.97 758.81 595.70 755.43 591.46 M 755.18 583.86 C 754.45 587.01 756.95 589.29 759.14 591.04 C 760.67 587.38 762.15 583.69 763.30 579.89 C 760.06 578.80 755.73 580.12 755.18 583.86 Z" />
<path fill="#231f20" opacity="1.00" d=" M 119.88 587.65 C 123.99 589.80 128.33 591.22 133.02 591.22 C 131.26 593.48 127.96 593.77 125.53 595.11 C 126.24 596.73 126.97 598.34 127.69 599.96 C 126.73 600.82 126.79 602.13 126.75 603.30 C 129.07 604.66 131.01 606.54 132.94 608.38 C 126.29 612.43 118.91 615.20 112.36 619.40 C 110.50 620.19 112.83 623.23 111.21 623.86 C 109.30 619.99 106.75 616.33 105.79 612.08 C 106.84 613.02 107.81 614.06 108.97 614.88 C 112.22 614.26 114.98 612.29 117.93 610.91 C 120.94 609.21 124.48 608.14 126.72 605.35 C 125.87 604.47 125.54 603.48 125.72 602.37 C 126.12 600.05 124.34 598.14 123.60 596.09 C 117.88 598.85 111.63 600.74 106.34 604.26 C 104.74 607.13 108.48 608.03 110.12 609.52 C 107.54 609.58 104.62 609.27 102.91 607.08 C 100.86 605.04 101.41 601.22 103.97 599.84 C 109.67 596.63 115.99 594.66 121.71 591.47 C 121.07 590.21 120.46 588.93 119.88 587.65 Z" />
<path fill="#231f20" opacity="1.00" d=" M 133.85 615.01 C 136.03 614.79 136.28 617.54 137.30 618.87 C 140.07 617.60 142.89 616.02 146.04 616.25 C 151.43 616.20 156.39 621.38 155.60 626.83 C 155.51 628.54 153.98 630.97 151.98 630.08 C 148.99 629.16 151.06 625.92 151.63 623.98 C 153.24 621.71 150.72 618.30 148.08 619.11 C 145.04 619.88 142.42 621.72 139.65 623.13 C 140.68 624.95 141.72 626.77 142.81 628.58 C 142.34 628.91 141.41 629.57 140.94 629.90 C 139.88 628.01 138.83 626.12 137.77 624.24 C 132.15 627.44 126.24 630.22 120.89 633.87 C 118.34 635.56 121.01 638.56 121.24 640.76 C 119.40 639.47 118.57 637.34 117.51 635.46 C 115.95 632.46 114.04 629.63 112.84 626.45 C 114.79 627.41 116.39 630.64 118.86 629.12 C 124.51 626.33 129.91 623.06 135.45 620.06 C 134.97 618.42 132.48 616.69 133.85 615.01 Z" />
<path fill="#231f20" opacity="1.00" d=" M 734.64 620.32 C 734.90 620.26 735.42 620.16 735.68 620.11 C 742.86 623.37 749.20 628.56 756.78 630.88 C 757.67 629.86 758.65 628.90 759.79 628.14 C 758.19 632.44 755.82 636.48 753.19 640.23 C 753.04 638.38 754.42 635.87 752.24 634.81 C 747.63 631.90 742.80 629.31 737.92 626.90 C 735.79 625.40 734.87 628.60 733.59 629.63 C 733.75 626.50 734.06 623.38 734.64 620.32 Z" />
<path fill="#231f20" opacity="1.00" d=" M 725.10 637.09 C 728.21 635.27 729.46 631.79 731.83 629.27 C 734.88 630.59 732.28 632.69 731.20 634.39 C 733.83 635.25 736.85 636.04 738.44 638.55 C 743.20 645.59 735.24 657.12 726.91 653.94 C 719.85 651.58 719.41 641.18 725.10 637.09 M 725.36 639.49 C 723.16 640.71 722.49 643.88 724.10 645.84 C 726.31 648.42 729.64 650.15 733.04 650.38 C 736.38 650.41 739.14 646.07 736.74 643.34 C 734.09 640.30 729.33 637.59 725.36 639.49 Z" />
<path fill="#231f20" opacity="1.00" d=" M 739.90 653.82 C 742.66 650.42 744.30 645.92 748.04 643.43 C 751.25 641.31 755.37 643.73 756.55 647.01 C 759.11 653.42 755.99 660.74 751.06 665.09 C 749.25 666.60 746.89 668.21 744.43 667.50 C 742.04 665.66 741.79 662.38 740.96 659.69 C 739.45 659.89 737.68 660.97 736.46 659.56 C 735.34 658.46 735.04 656.79 734.37 655.44 C 734.86 654.65 735.35 653.87 735.86 653.09 C 735.71 656.61 738.97 655.96 739.90 653.82 M 741.99 658.26 C 742.77 660.37 743.79 662.48 745.91 663.56 C 750.82 661.14 754.26 656.24 755.42 650.96 C 755.85 648.68 753.87 644.21 751.10 646.15 C 747.49 649.71 745.32 654.45 741.99 658.26 Z" />
<path fill="#231f20" opacity="1.00" d=" M 136.07 664.11 C 133.92 653.23 148.57 643.74 157.60 650.34 C 162.19 653.36 164.51 661.41 158.92 664.64 C 158.02 663.78 156.54 663.32 156.21 662.01 C 154.99 658.87 160.46 657.52 158.56 654.30 C 156.66 650.14 151.04 650.54 147.81 652.82 C 143.55 655.39 139.29 660.91 142.03 665.98 C 144.13 669.80 148.84 669.72 152.60 669.27 C 147.53 673.99 137.39 671.19 136.07 664.11 Z" />
<path fill="#231f20" opacity="1.00" d=" M 192.75 706.92 C 193.63 702.18 199.64 699.66 203.66 702.26 C 206.75 703.81 207.19 708.36 211.01 708.77 C 208.73 711.04 206.76 713.69 203.98 715.40 C 204.89 712.26 207.33 708.36 204.56 705.46 C 203.02 702.77 198.53 702.51 197.66 705.88 C 197.21 710.83 201.29 715.07 200.73 720.09 C 200.45 724.23 195.82 727.18 191.90 725.99 C 187.94 725.26 185.60 721.61 183.65 718.44 C 183.08 718.19 181.93 717.69 181.35 717.44 C 183.82 715.27 185.51 711.97 188.75 710.85 C 186.97 714.14 185.36 718.53 188.24 721.72 C 189.94 724.50 194.36 724.23 195.39 721.02 C 196.17 716.12 192.37 711.81 192.75 706.92 Z" />
<path fill="#231f20" opacity="1.00" d=" M 647.09 721.97 C 649.59 719.06 653.57 716.03 657.59 717.63 C 663.09 721.42 665.47 728.62 671.30 731.92 C 671.70 730.52 672.12 729.13 672.56 727.75 C 673.91 730.48 673.44 734.19 671.21 736.32 C 669.57 737.59 667.78 736.29 666.45 735.26 C 665.56 738.33 665.00 742.19 661.82 743.78 C 657.45 746.26 651.81 741.76 652.55 737.01 C 653.11 732.33 656.04 728.46 658.06 724.34 C 656.24 722.79 654.57 720.24 651.86 720.65 C 650.11 721.34 648.21 722.81 648.26 724.89 C 648.81 726.40 649.93 727.62 650.66 729.07 C 651.16 731.04 648.34 732.74 646.83 731.31 C 644.04 728.97 644.93 724.44 647.09 721.97 M 655.81 733.91 C 655.20 737.19 658.61 740.61 661.92 739.37 C 664.07 738.11 664.52 735.49 665.13 733.29 C 663.07 730.95 661.17 728.48 659.12 726.14 C 657.86 728.65 656.35 731.11 655.81 733.91 Z" />
<path fill="#231f20" opacity="1.00" d=" M 627.21 740.88 C 627.71 734.72 634.37 729.36 640.50 731.55 C 642.63 732.11 643.85 735.25 641.65 736.53 C 639.16 738.86 637.18 735.07 634.92 734.31 C 631.72 734.38 629.19 738.02 629.98 741.10 C 631.12 746.93 636.23 751.34 641.97 752.43 C 644.05 751.52 646.42 750.62 647.52 748.45 C 648.97 746.02 648.10 743.11 648.22 740.47 C 652.92 745.62 650.21 755.79 643.03 757.14 C 634.19 758.75 625.99 749.43 627.21 740.88 Z" />
<path fill="#231f20" opacity="1.00" d=" M 252.87 744.11 C 258.90 742.52 266.64 747.37 265.92 754.06 C 265.88 756.49 262.75 757.65 261.25 755.67 C 258.62 753.60 262.74 750.56 261.07 748.17 C 259.02 745.56 254.96 745.43 252.51 747.52 C 248.99 750.21 246.84 754.59 246.74 759.01 C 246.67 762.42 249.43 765.60 252.85 765.91 C 255.73 766.42 258.03 764.08 260.85 764.07 C 257.64 767.85 252.32 770.15 247.45 768.38 C 242.62 766.63 240.45 760.85 241.62 756.08 C 242.99 750.58 247.03 745.21 252.87 744.11 Z" />
<path fill="#231f20" opacity="1.00" d=" M 596.55 758.58 C 597.99 755.45 599.95 751.61 603.95 751.61 C 608.09 751.61 610.34 755.60 611.99 758.84 C 614.17 762.71 615.80 766.96 618.73 770.38 C 620.16 770.27 621.61 770.20 623.07 770.17 C 619.10 772.51 615.02 774.67 610.85 776.64 C 611.59 774.76 614.55 773.31 613.08 771.08 C 610.46 766.38 608.49 761.21 605.07 757.03 C 602.28 754.20 598.42 757.97 597.81 760.90 C 597.38 760.12 596.96 759.34 596.55 758.58 Z" />
<path fill="#231f20" opacity="1.00" d=" M 268.38 753.59 C 271.52 753.74 275.16 753.45 277.94 754.92 C 274.88 762.16 270.14 768.65 267.35 776.01 C 268.18 777.30 269.06 778.58 270.00 779.82 C 265.82 777.92 261.56 776.00 257.89 773.20 C 259.26 773.33 260.63 773.44 262.00 773.54 C 263.46 772.79 264.02 771.12 264.85 769.82 C 267.18 765.24 269.95 760.85 271.68 755.99 C 270.67 755.15 268.65 755.08 268.38 753.59 Z" />
<path fill="#231f20" opacity="1.00" d=" M 283.26 762.17 C 288.78 759.31 297.06 762.74 298.40 768.98 C 296.52 775.36 292.13 780.83 291.08 787.43 C 292.46 787.11 293.85 786.80 295.24 786.50 C 293.94 789.96 287.04 791.24 285.80 787.20 C 285.89 786.51 286.09 785.12 286.19 784.43 C 283.10 785.05 279.60 786.22 276.73 784.27 C 272.44 781.76 273.69 774.55 278.14 772.93 C 282.62 771.21 287.52 771.97 292.17 772.30 C 292.80 770.20 294.13 768.01 293.33 765.79 C 292.24 763.82 289.61 762.59 287.48 763.64 C 285.85 764.91 285.72 768.42 283.06 767.86 C 279.99 767.60 281.05 763.03 283.26 762.17 M 281.81 774.80 C 278.99 776.12 278.11 780.69 280.90 782.48 C 282.84 783.79 285.21 782.73 287.31 782.49 C 288.55 779.66 289.88 776.87 291.17 774.06 C 288.05 773.80 284.71 773.35 281.81 774.80 Z" />
<path fill="#231f20" opacity="1.00" d=" M 302.08 769.01 C 306.91 768.56 310.46 765.32 314.25 762.71 C 313.36 765.52 312.15 768.21 311.22 771.01 C 312.74 771.96 317.71 772.14 315.86 774.86 C 313.92 774.39 312.09 773.61 310.20 773.00 C 308.37 777.88 306.31 782.67 304.40 787.52 C 303.94 788.94 303.02 790.62 304.06 792.05 C 305.86 793.48 307.99 791.88 309.90 791.53 C 307.80 796.14 299.63 796.73 298.63 791.04 C 299.87 784.07 303.62 777.80 305.92 771.12 C 304.54 770.59 303.23 769.91 302.08 769.01 Z" />
<path fill="#231f20" opacity="1.00" d=" M 536.95 769.68 C 538.07 766.30 541.69 764.73 544.11 762.37 C 546.38 767.99 548.13 773.80 550.15 779.52 C 552.13 776.16 554.40 771.53 559.09 772.08 C 563.55 772.52 565.11 777.44 566.37 781.05 C 568.00 784.88 568.48 789.42 571.10 792.74 C 572.09 792.80 574.07 792.94 575.06 793.01 C 571.14 795.21 566.71 796.83 562.28 797.56 C 563.07 795.82 566.35 795.47 565.40 793.09 C 564.18 788.89 562.62 784.80 561.19 780.68 C 560.41 778.80 559.49 776.16 557.03 776.20 C 554.00 776.28 551.69 779.22 551.11 781.99 C 552.58 786.78 554.20 791.54 556.02 796.21 C 556.57 798.66 559.69 797.19 561.35 797.73 C 557.81 800.18 553.35 800.68 549.48 802.50 C 549.14 802.24 548.80 801.99 548.48 801.76 C 549.62 800.75 552.23 800.02 551.39 798.03 C 549.29 791.07 546.68 784.26 544.41 777.35 C 543.23 774.13 542.47 770.65 540.25 767.95 C 539.15 768.53 538.05 769.11 536.95 769.68 Z" />
<path fill="#231f20" opacity="1.00" d=" M 575.12 765.07 C 577.99 763.63 582.12 762.65 584.47 765.52 C 587.35 769.89 588.98 774.94 591.41 779.56 C 591.94 780.42 592.27 781.77 593.53 781.76 C 594.45 780.72 595.27 779.59 596.18 778.54 C 596.29 781.65 595.07 785.23 592.02 786.58 C 590.23 786.78 589.15 785.23 588.02 784.17 C 586.52 787.16 584.76 790.94 581.01 791.43 C 576.18 792.24 572.25 786.24 574.44 782.04 C 576.23 777.97 579.58 774.89 582.63 771.76 C 581.60 769.95 580.72 767.91 578.89 766.79 C 577.01 765.94 574.82 766.98 573.57 768.43 C 572.22 770.59 574.57 772.76 574.27 775.01 C 573.27 777.15 570.12 776.82 569.51 774.58 C 568.11 770.45 571.50 766.55 575.12 765.07 M 577.73 781.98 C 577.68 784.48 579.62 786.69 582.06 787.15 C 584.85 786.91 586.03 784.10 587.42 782.10 C 586.05 779.34 584.78 776.55 583.53 773.74 C 580.88 775.84 578.44 778.58 577.73 781.98 Z" />
<path fill="#231f20" opacity="1.00" d=" M 483.61 779.53 C 487.31 779.05 490.99 778.28 494.74 778.19 C 493.35 779.49 491.42 779.89 489.89 780.97 C 489.32 784.02 490.18 787.08 490.53 790.12 C 491.66 797.24 492.36 804.43 493.68 811.52 C 494.08 814.63 497.74 813.92 499.98 814.50 C 494.57 816.33 488.71 816.33 483.11 817.28 C 484.30 815.24 487.90 815.81 488.13 813.06 C 487.18 804.01 485.71 795.01 484.42 786.00 C 480.92 797.04 478.26 808.38 474.20 819.21 C 467.77 809.65 461.80 799.78 455.45 790.16 C 456.86 799.59 457.72 809.13 459.77 818.45 C 461.50 818.70 463.26 818.80 465.02 818.87 C 464.57 820.22 463.08 820.19 461.93 820.37 C 458.62 820.72 455.33 821.23 452.05 821.82 C 452.04 821.51 452.02 820.90 452.01 820.60 C 453.84 820.11 456.87 819.66 456.40 817.03 C 455.34 807.45 454.03 797.86 452.39 788.37 C 451.94 785.43 448.41 785.91 446.29 785.49 C 449.48 783.42 453.66 784.17 457.24 783.16 C 463.16 792.00 468.57 801.19 474.71 809.87 C 477.53 799.72 480.65 789.65 483.61 779.53 Z" />
<path fill="#231f20" opacity="1.00" d=" M 429.83 783.86 C 433.40 780.20 440.46 779.98 443.57 784.32 C 444.99 786.06 443.23 788.90 441.02 788.39 C 439.21 787.09 438.25 784.97 436.56 783.56 C 434.60 782.42 431.81 783.73 431.59 786.04 C 431.13 788.87 431.10 791.74 430.83 794.60 C 433.07 795.06 436.02 793.96 437.75 795.84 C 436.61 798.39 433.05 796.44 430.86 796.83 C 430.65 802.21 430.48 807.60 430.27 812.99 C 430.30 814.58 430.08 816.34 430.93 817.80 C 432.61 818.88 434.66 819.15 436.47 819.98 C 433.31 820.44 430.15 819.89 427.00 819.85 C 424.66 819.73 422.20 820.11 420.05 819.02 C 421.93 818.40 424.98 818.51 425.32 815.99 C 425.92 809.58 425.88 803.12 426.27 796.70 C 424.62 796.62 422.98 796.57 421.34 796.53 C 421.35 795.99 421.37 794.90 421.37 794.36 C 423.00 794.40 424.63 794.47 426.27 794.55 C 426.28 790.75 426.78 786.50 429.83 783.86 Z" />
<path fill="#231f20" opacity="1.00" d=" M 524.61 785.52 C 527.71 780.91 534.87 778.99 539.39 782.64 C 541.21 783.75 541.46 787.36 538.93 787.73 C 535.87 788.94 535.15 785.30 533.61 783.63 C 530.52 782.02 526.83 784.88 526.36 788.03 C 525.53 792.95 527.72 798.25 531.63 801.32 C 534.23 803.50 538.42 803.11 540.68 800.61 C 542.74 798.86 542.27 795.65 544.19 793.86 C 544.70 798.24 543.59 803.21 539.83 805.93 C 535.68 809.11 529.44 807.67 526.22 803.82 C 522.12 798.85 520.64 790.99 524.61 785.52 Z" />
<path fill="#231f20" opacity="1.00" d=" M 354.03 787.99 C 356.69 785.91 360.52 786.54 363.68 785.72 C 363.34 787.44 362.96 789.16 362.55 790.88 C 365.65 789.23 369.30 786.69 372.91 788.33 C 375.58 789.33 376.89 792.31 376.61 795.03 C 376.14 800.79 373.90 806.24 373.26 811.97 C 373.43 813.73 375.78 814.15 376.42 815.79 C 372.19 814.47 367.24 814.71 363.57 812.12 C 365.31 811.67 368.30 812.54 368.60 810.00 C 369.76 804.64 371.73 799.33 371.75 793.80 C 371.70 791.71 369.49 791.27 368.01 790.54 C 365.82 791.49 362.28 791.67 361.78 794.55 C 360.81 799.05 359.57 803.49 358.78 808.03 C 358.01 810.20 360.64 810.64 361.96 811.46 C 361.88 811.73 361.71 812.27 361.62 812.54 C 357.56 811.05 352.92 811.16 349.18 808.93 C 350.07 808.82 351.84 808.61 352.72 808.51 C 354.38 807.24 354.47 804.88 355.02 803.04 C 355.88 798.70 357.25 794.45 357.73 790.05 C 357.88 787.97 355.18 788.58 354.03 787.99 Z" />
</g>
<g id="#221f20ff">
<path fill="#221f20" opacity="1.00" d=" M 349.56 99.10 C 350.78 96.69 351.80 93.15 354.98 92.82 C 357.69 92.06 360.07 96.02 357.79 97.78 C 356.30 99.32 354.19 97.48 352.56 97.23 C 351.27 99.14 349.72 101.46 350.67 103.86 C 351.83 107.85 352.59 111.99 354.10 115.87 C 354.85 118.23 357.63 117.60 359.51 117.88 C 355.50 120.39 350.43 120.90 345.86 121.90 C 347.11 120.40 350.21 119.57 349.32 117.14 C 348.01 112.03 346.73 106.90 345.15 101.86 C 344.84 99.14 341.67 100.65 339.94 100.51 C 342.40 98.15 345.15 96.13 348.09 94.40 C 348.54 95.98 349.02 97.54 349.56 99.10 Z" />
<path fill="#221f20" opacity="1.00" d=" M 799.90 498.57 C 801.00 497.60 801.23 495.77 802.67 495.18 C 802.06 499.53 801.96 504.42 799.90 508.26 C 799.35 506.79 800.23 503.91 798.02 503.52 C 793.40 502.34 788.65 501.76 783.97 500.91 C 781.76 500.32 778.59 501.34 778.50 504.00 C 778.08 506.38 779.57 508.46 780.56 510.51 C 786.04 511.56 791.51 512.79 797.08 513.33 C 798.29 512.17 799.13 510.70 800.19 509.41 C 799.45 513.88 799.36 518.61 797.52 522.81 C 796.98 521.11 797.34 518.40 794.98 518.08 C 788.97 516.91 782.91 515.32 776.76 515.39 C 776.67 516.34 776.50 518.24 776.41 519.19 C 773.90 516.72 774.53 512.58 773.56 509.41 C 775.30 509.71 777.05 510.04 778.80 510.39 C 777.18 507.80 774.98 505.14 775.29 501.89 C 775.30 498.84 778.03 496.16 781.09 496.22 C 787.46 495.92 793.56 498.51 799.90 498.57 Z" />
<path fill="#221f20" opacity="1.00" d=" M 207.80 719.95 C 209.04 715.96 213.91 713.24 217.82 715.26 C 221.21 716.35 221.94 721.10 225.80 721.16 C 223.85 723.53 222.46 726.94 219.38 728.00 C 220.19 725.45 221.62 722.71 220.44 720.05 C 219.39 718.07 217.22 716.42 214.88 716.76 C 212.71 717.39 211.84 720.07 212.73 722.04 C 214.22 726.58 218.21 731.11 216.11 736.12 C 214.47 740.16 209.32 740.77 205.70 739.30 C 202.20 737.74 200.87 733.56 197.26 732.17 C 199.46 729.76 201.27 726.98 203.78 724.87 C 203.05 728.29 201.29 732.17 203.74 735.35 C 205.33 738.38 210.39 738.67 211.45 735.03 C 212.09 729.67 206.91 725.37 207.80 719.95 Z" />
<path fill="#221f20" opacity="1.00" d=" M 499.39 794.86 C 500.64 788.38 508.71 784.17 514.62 787.39 C 517.44 788.71 518.71 791.70 519.84 794.41 C 514.20 795.98 508.46 797.15 502.75 798.42 C 503.54 802.19 505.70 805.96 509.42 807.49 C 512.38 808.86 516.29 807.94 518.25 805.32 C 519.17 803.59 519.73 801.71 520.55 799.94 C 522.80 806.71 516.23 814.89 508.96 813.02 C 501.06 811.43 497.82 801.98 499.39 794.86 M 502.05 796.71 C 505.91 795.95 509.73 795.02 513.57 794.14 C 512.85 791.34 510.76 789.36 508.05 788.53 C 504.20 789.34 501.82 792.83 502.05 796.71 Z" />
<path fill="#221f20" opacity="1.00" d=" M 402.18 793.08 C 407.64 791.21 414.18 794.08 416.40 799.44 C 420.43 807.53 414.64 819.77 404.92 819.37 C 399.10 819.59 394.31 814.65 393.48 809.12 C 392.27 802.71 395.69 795.10 402.18 793.08 M 402.36 795.33 C 398.78 797.91 398.50 802.89 398.64 806.93 C 398.99 810.97 400.44 816.17 404.92 817.33 C 408.22 817.86 410.97 815.00 411.57 811.97 C 412.62 807.08 412.90 801.41 409.96 797.09 C 408.38 794.66 404.82 793.54 402.36 795.33 Z" />
</g>
<g id="#1c191aff">
<path fill="#1c191a" opacity="1.00" d=" M 303.92 111.53 C 306.49 109.51 309.65 108.48 312.70 107.44 C 311.96 108.93 310.38 110.19 310.50 111.99 C 310.49 118.71 310.87 125.43 310.81 132.15 C 310.23 130.33 309.53 128.56 308.96 126.74 C 308.34 122.03 308.86 117.23 308.21 112.52 C 307.92 110.57 305.19 111.88 303.92 111.53 Z" />
<path fill="#1c191a" opacity="1.00" d=" M 326.12 762.20 C 329.74 760.70 331.52 766.71 327.94 767.65 C 324.49 769.04 322.65 763.13 326.12 762.20 Z" />
</g>
<g id="#221d1fff">
<path fill="#221d1f" opacity="1.00" d=" M 272.42 110.49 C 275.56 109.17 277.95 114.31 274.80 115.74 C 271.39 118.00 268.42 111.63 272.42 110.49 Z" />
</g>
<g id="#242021ff">
<path fill="#242021" opacity="1.00" d=" M 286.91 119.22 C 290.42 116.58 294.73 114.93 298.96 113.76 C 298.03 114.84 297.05 115.89 296.09 116.95 C 299.86 121.50 304.47 125.26 308.69 129.38 C 308.76 128.72 308.89 127.40 308.96 126.74 C 309.53 128.56 310.23 130.33 310.81 132.15 C 311.12 133.72 311.25 135.31 311.21 136.92 C 308.89 136.53 307.51 134.50 305.85 133.07 C 301.35 128.87 296.88 124.64 292.35 120.47 C 290.96 118.94 288.70 119.56 286.91 119.22 Z" />
<path fill="#242021" opacity="1.00" d=" M 225.97 142.17 C 229.70 139.60 232.99 136.43 236.87 134.08 C 236.37 135.60 235.28 136.79 234.44 138.12 C 233.66 139.70 234.88 141.12 235.71 142.36 C 239.26 147.09 243.05 151.64 246.59 156.38 C 248.76 159.42 250.99 162.96 250.42 166.87 C 249.79 172.56 245.04 176.61 240.31 179.19 C 235.98 181.73 230.08 180.97 226.57 177.38 C 221.00 171.58 216.79 164.61 211.30 158.74 C 209.26 156.54 206.86 159.07 204.79 159.85 C 205.69 157.50 208.06 156.36 209.88 154.85 C 212.75 152.81 215.21 150.12 218.50 148.74 C 217.69 150.78 214.40 152.49 215.90 154.92 C 218.38 159.04 221.73 162.55 224.56 166.43 C 227.50 170.04 230.13 174.33 234.51 176.34 C 242.52 178.64 251.27 167.94 246.28 160.76 C 243.47 156.28 239.92 152.34 236.76 148.11 C 234.94 145.88 233.39 143.35 231.03 141.64 C 229.20 141.04 227.80 142.74 226.34 143.54 C 226.25 143.19 226.06 142.51 225.97 142.17 Z" />
<path fill="#242021" opacity="1.00" d=" M 644.58 153.07 C 647.72 153.69 650.83 154.52 653.84 155.66 C 653.52 157.37 652.07 158.54 651.09 159.89 C 654.50 159.63 658.59 159.06 661.25 161.76 C 663.38 163.58 663.19 166.85 662.23 169.23 C 659.26 174.55 654.58 178.71 651.54 183.99 C 651.53 185.61 652.96 186.71 653.67 188.06 C 651.08 187.39 649.27 185.33 647.17 183.83 C 645.59 182.51 643.58 181.50 642.87 179.45 C 644.50 179.94 646.60 181.89 648.06 180.04 C 651.52 175.82 655.23 171.67 657.95 166.93 C 659.68 162.44 653.27 160.55 649.94 161.68 C 646.17 165.89 642.84 170.49 639.46 175.02 C 640.34 176.38 641.29 177.73 642.12 179.14 C 639.72 178.37 637.92 176.57 635.97 175.08 C 634.24 173.66 632.15 172.52 631.14 170.43 C 632.42 170.89 633.68 171.40 635.00 171.80 C 636.96 170.52 638.31 168.56 639.74 166.75 C 642.35 163.26 645.31 160.01 647.43 156.17 C 646.39 155.21 645.34 154.26 644.58 153.07 Z" />
<path fill="#242021" opacity="1.00" d=" M 759.26 520.33 C 761.03 518.77 764.15 520.59 763.78 522.89 C 763.92 525.11 760.75 526.45 759.19 524.99 C 757.52 524.03 757.72 521.27 759.26 520.33 Z" />
<path fill="#242021" opacity="1.00" d=" M 142.20 632.85 C 145.34 634.24 148.10 636.39 150.53 638.81 C 144.21 642.74 137.79 646.54 131.63 650.72 C 129.31 651.79 130.90 654.37 130.83 656.26 C 128.06 652.70 125.56 648.85 123.68 644.74 C 125.35 645.51 126.91 647.82 128.93 646.50 C 132.30 644.75 135.37 642.49 138.65 640.58 C 140.43 639.23 142.92 638.38 143.91 636.27 C 143.48 635.41 142.63 633.70 142.20 632.85 Z" />
<path fill="#242021" opacity="1.00" d=" M 672.70 683.75 C 678.54 677.53 684.49 671.41 690.12 665.00 C 692.58 666.78 694.97 668.70 697.00 670.99 C 694.28 671.11 691.64 668.10 689.09 670.04 C 686.31 672.23 684.08 675.03 681.60 677.54 C 681.06 678.34 679.21 679.48 680.51 680.47 C 683.65 683.60 687.08 686.42 690.19 689.58 C 692.64 686.89 695.39 684.43 697.43 681.40 C 698.84 679.07 696.23 676.91 695.67 674.72 C 698.32 676.16 700.29 678.49 702.52 680.48 C 703.86 681.79 705.58 682.94 706.07 684.89 C 704.36 684.15 702.74 683.15 700.93 682.70 C 697.10 684.41 694.89 688.28 691.90 691.05 C 695.87 694.64 699.46 698.70 703.92 701.72 C 706.85 698.75 709.90 695.84 712.37 692.45 C 714.72 689.11 712.47 685.12 712.03 681.56 C 714.91 683.67 715.59 687.50 717.66 690.28 C 712.87 695.90 707.64 701.14 702.65 706.58 C 700.95 708.44 699.32 710.40 697.28 711.88 C 697.65 709.82 699.53 708.17 699.36 706.06 C 697.18 703.11 694.22 700.90 691.61 698.37 C 686.70 693.87 682.06 689.05 676.87 684.87 C 674.65 682.98 672.68 686.13 670.76 687.04 C 671.12 685.79 671.76 684.65 672.70 683.75 Z" />
<path fill="#242021" opacity="1.00" d=" M 158.06 686.53 C 170.08 682.79 181.66 677.66 193.74 674.10 C 189.23 685.62 183.48 696.64 178.77 708.08 C 177.45 710.46 178.90 712.82 179.82 715.04 C 177.25 714.23 175.89 711.70 174.03 709.95 C 172.21 707.81 169.64 706.13 168.81 703.31 C 170.26 704.03 171.69 704.79 173.13 705.54 C 175.41 702.74 176.74 699.38 178.13 696.10 C 174.82 692.64 171.67 689.03 168.29 685.65 C 165.51 686.87 162.53 687.62 159.87 689.10 C 157.94 690.81 160.47 693.11 160.91 695.00 C 157.17 692.83 154.65 689.05 151.82 685.87 C 153.90 685.21 155.85 687.76 158.06 686.53 M 171.24 684.70 C 173.02 688.25 176.75 690.71 179.15 693.97 C 181.43 689.16 183.59 684.29 185.74 679.42 C 180.94 681.28 176.05 682.90 171.24 684.70 Z" />
<path fill="#242021" opacity="1.00" d=" M 652.92 704.25 C 654.19 701.14 655.72 698.14 657.62 695.37 C 663.42 701.95 669.11 708.61 674.89 715.20 C 677.39 718.02 679.63 721.16 682.74 723.38 C 683.98 722.58 685.37 722.04 686.86 721.96 C 683.51 725.10 680.21 728.42 676.28 730.84 C 676.80 729.11 678.86 727.29 677.37 725.56 C 675.15 722.51 672.51 719.82 670.08 716.96 C 665.43 712.02 661.61 706.20 656.24 702.01 C 655.26 702.96 654.16 703.70 652.92 704.25 Z" />
<path fill="#242021" opacity="1.00" d=" M 228.39 729.51 C 234.74 726.72 242.87 731.15 244.05 737.96 C 245.81 745.97 238.97 753.98 231.09 754.76 C 225.38 755.19 219.45 750.85 218.81 745.03 C 217.80 738.40 222.20 731.77 228.39 729.51 M 232.35 731.42 C 226.83 734.39 223.24 740.84 223.23 747.08 C 223.27 751.40 228.93 754.18 232.24 751.20 C 236.60 747.46 240.34 741.94 239.87 735.96 C 239.57 732.47 235.60 730.05 232.35 731.42 Z" />
<path fill="#242021" opacity="1.00" d=" M 616.34 743.14 C 617.66 742.49 618.19 744.27 618.86 745.05 C 621.81 749.72 624.86 754.33 627.84 758.99 C 628.75 760.24 629.52 761.78 631.00 762.50 C 632.02 762.20 633.04 761.85 634.05 761.48 C 634.20 761.72 634.49 762.20 634.64 762.44 C 630.73 764.43 627.54 767.88 623.22 768.96 C 624.10 767.91 625.00 766.89 625.94 765.91 C 624.84 762.40 622.47 759.54 620.55 756.47 C 618.84 753.95 617.42 751.18 615.15 749.10 C 613.77 749.55 612.48 750.20 611.15 750.75 C 612.67 748.08 614.34 745.48 616.34 743.14 Z" />
<path fill="#242021" opacity="1.00" d=" M 587.44 764.16 C 588.44 760.92 591.37 758.83 593.32 756.18 C 598.53 762.70 600.43 771.26 605.83 777.67 C 606.92 777.22 608.02 776.78 609.13 776.35 C 609.27 776.62 609.55 777.16 609.69 777.43 C 605.71 779.42 601.94 781.85 597.76 783.42 C 598.71 781.71 601.40 780.22 599.86 778.06 C 597.19 772.71 594.55 767.28 591.15 762.35 C 589.91 762.96 588.68 763.57 587.44 764.16 Z" />
<path fill="#242021" opacity="1.00" d=" M 334.47 781.67 C 340.25 778.79 348.26 781.61 350.42 787.84 C 354.20 796.41 346.78 808.32 337.07 807.17 C 332.13 806.70 327.85 802.92 326.99 798.00 C 325.50 791.69 328.72 784.66 334.47 781.67 M 337.21 783.21 C 332.17 787.31 330.91 795.20 332.86 801.20 C 334.04 805.13 339.62 806.67 342.29 803.31 C 345.63 798.59 347.22 792.07 345.30 786.48 C 344.31 783.25 340.17 781.29 337.21 783.21 Z" />
</g>
<g id="#cc8b4eff">
<path fill="#cc8b4e" opacity="1.00" d=" M 410.48 126.72 C 463.29 121.93 517.27 130.11 566.07 150.92 C 627.83 177.02 680.91 223.02 715.68 280.33 C 736.70 314.75 751.06 353.18 757.89 392.93 C 765.64 438.36 763.71 485.46 751.95 530.04 C 734.77 596.02 695.76 655.97 642.68 698.71 C 613.07 722.65 579.19 741.32 543.08 753.44 C 466.51 779.42 380.18 775.14 306.64 741.45 C 245.21 713.62 193.04 665.94 159.75 607.30 C 137.80 568.90 123.99 525.90 119.42 481.91 C 112.35 416.12 126.00 348.22 158.52 290.54 C 190.85 232.53 241.59 184.97 301.63 156.55 C 335.76 140.23 372.82 130.19 410.48 126.72 M 429.36 130.60 C 384.09 132.01 339.16 143.33 298.64 163.57 C 243.14 191.13 196.13 235.36 165.15 289.02 C 131.84 346.22 117.49 414.06 124.27 479.87 C 128.29 520.76 140.48 560.83 159.86 597.06 C 190.81 655.30 240.40 703.46 299.64 732.51 C 374.62 770.00 464.68 775.46 543.79 747.89 C 577.66 736.26 609.45 718.70 637.48 696.42 C 690.99 654.08 730.30 594.04 747.30 527.92 C 758.68 484.33 760.48 438.32 752.96 393.92 C 746.16 354.15 731.66 315.72 710.44 281.39 C 677.18 227.28 627.31 183.56 569.24 157.78 C 525.50 138.20 477.24 128.93 429.36 130.60 Z" />
</g>
<g id="#231f21ff">
<path fill="#231f21" opacity="1.00" d=" M 255.92 141.30 C 256.77 137.40 258.27 132.43 262.91 131.82 C 267.33 131.51 269.95 135.74 272.02 138.99 C 274.48 142.51 276.29 146.61 279.62 149.44 C 280.80 148.94 282.00 148.47 283.21 148.03 C 282.69 149.21 281.83 150.15 280.69 150.74 C 277.73 152.51 274.99 154.64 271.86 156.11 C 272.60 154.62 273.63 153.32 274.62 152.00 C 272.28 147.88 269.60 143.98 267.02 140.02 C 265.79 138.38 264.42 136.23 262.13 136.22 C 259.16 137.06 257.55 140.22 257.13 143.07 C 260.02 148.08 263.10 153.06 266.81 157.51 C 268.22 157.00 269.63 156.49 271.08 156.09 C 268.11 159.74 263.50 161.69 259.53 164.10 C 260.17 162.89 260.96 161.78 261.92 160.79 C 261.08 157.46 258.80 154.83 257.04 151.96 C 255.29 149.40 253.83 146.60 251.66 144.36 C 250.15 143.61 248.69 145.27 247.24 145.67 C 248.76 142.59 250.85 139.86 252.99 137.20 C 253.95 138.57 254.92 139.94 255.92 141.30 Z" />
</g>
<g id="#211e1fff">
<path fill="#211e1f" opacity="1.00" d=" M 780.27 466.24 C 780.86 466.27 782.03 466.33 782.61 466.36 C 782.59 467.89 782.56 469.42 782.55 470.96 C 785.65 470.04 789.42 469.66 792.02 472.01 C 795.72 474.92 796.10 480.32 794.51 484.46 C 795.52 485.68 796.77 486.59 798.39 486.88 C 800.20 481.86 799.04 476.23 801.22 471.34 C 802.89 467.63 808.14 467.55 810.82 470.18 C 816.94 475.83 817.07 486.54 811.71 492.73 C 808.33 495.85 805.02 490.81 802.82 488.62 C 801.85 489.35 801.00 490.28 799.87 490.76 C 797.09 490.68 795.52 488.06 793.92 486.18 C 792.48 487.66 791.05 489.41 788.92 489.83 C 784.44 491.25 779.49 488.35 778.01 484.03 C 776.84 481.00 777.32 477.61 778.79 474.78 C 780.16 472.15 779.77 469.08 780.27 466.24 M 805.30 472.20 C 803.91 477.00 804.05 482.12 803.10 487.02 C 804.90 488.08 806.61 490.33 808.93 489.25 C 812.55 485.19 813.13 478.73 811.26 473.75 C 810.49 471.45 806.35 468.81 805.30 472.20 M 783.41 475.54 C 780.21 476.01 777.77 479.48 779.50 482.50 C 782.14 485.89 787.45 485.76 791.07 484.16 C 793.76 483.16 794.80 479.35 792.82 477.23 C 790.40 474.74 786.53 475.01 783.41 475.54 Z" />
</g>
<g id="#feffffff">
<path fill="#feffff" opacity="1.00" d=" M 763.86 560.11 C 765.27 557.28 768.68 556.89 771.46 557.54 C 770.27 561.23 769.05 564.91 767.90 568.61 C 764.76 567.23 762.04 563.52 763.86 560.11 Z" />
<path fill="#feffff" opacity="1.00" d=" M 755.18 583.86 C 755.73 580.12 760.06 578.80 763.30 579.89 C 762.15 583.69 760.67 587.38 759.14 591.04 C 756.95 589.29 754.45 587.01 755.18 583.86 Z" />
</g>
<g id="#232021ff">
<path fill="#232021" opacity="1.00" d=" M 108.88 562.47 C 111.55 564.43 113.59 567.07 115.85 569.46 C 114.49 570.32 113.03 570.96 111.56 571.62 C 114.96 573.58 118.71 575.72 119.41 579.99 C 118.71 582.16 117.74 584.44 115.60 585.58 C 110.71 588.30 105.14 589.49 100.15 592.00 C 97.84 592.75 98.98 595.42 98.64 597.22 C 96.24 593.52 95.33 589.11 93.48 585.14 C 93.68 584.98 94.10 584.65 94.30 584.48 C 95.29 586.11 96.64 588.56 98.93 587.20 C 104.04 584.97 109.93 583.93 114.30 580.34 C 116.38 576.69 111.97 573.76 109.13 572.40 C 104.27 574.56 99.08 575.96 94.33 578.36 C 92.32 579.25 93.99 581.91 93.53 583.47 C 90.92 579.72 89.80 575.11 88.15 570.86 C 90.01 571.91 91.53 574.69 93.94 573.16 C 99.33 570.99 105.10 569.53 110.01 566.35 C 109.73 565.38 109.16 563.44 108.88 562.47 Z" />
<path fill="#232021" opacity="1.00" d=" M 745.60 599.47 C 747.22 596.59 751.10 596.06 753.93 597.32 C 758.81 599.24 763.21 602.18 768.05 604.18 C 770.18 605.54 771.58 602.85 773.21 601.92 C 772.10 605.47 770.03 608.60 768.52 611.97 C 768.19 612.97 767.37 613.58 766.42 613.93 C 766.74 612.63 767.14 611.34 767.36 610.03 C 764.74 607.20 760.79 606.22 757.56 604.28 C 754.88 603.09 752.09 600.83 749.02 601.79 C 746.07 603.86 746.82 607.83 747.75 610.78 C 752.95 612.85 757.55 616.42 762.97 617.89 C 764.22 616.95 765.31 615.81 766.69 615.06 C 764.83 619.28 762.89 623.53 760.22 627.31 C 760.33 625.87 760.39 624.44 760.40 623.01 C 758.15 620.94 755.24 619.86 752.58 618.45 C 749.30 616.87 746.20 614.71 742.54 614.13 C 742.00 615.34 741.33 616.49 740.30 617.35 C 740.47 613.99 740.35 610.53 741.45 607.32 C 742.88 608.13 744.31 608.95 745.75 609.79 C 744.98 606.47 743.45 602.60 745.60 599.47 Z" />
<path fill="#232021" opacity="1.00" d=" M 711.44 656.28 C 713.51 654.20 716.77 654.50 719.13 655.91 C 724.35 659.03 728.52 663.64 733.89 666.56 C 735.03 665.70 736.17 664.77 737.58 664.40 C 735.27 668.39 732.27 672.03 729.07 675.33 C 729.12 673.44 731.24 671.09 729.24 669.64 C 724.95 666.19 720.81 662.36 715.94 659.75 C 711.56 658.40 709.88 664.88 711.09 668.03 C 714.83 671.27 718.83 674.24 722.79 677.23 C 724.79 679.01 726.77 676.51 728.73 675.97 C 726.12 679.81 723.31 683.54 720.10 686.90 C 720.27 685.02 721.83 682.58 719.85 681.17 C 715.34 677.38 710.64 673.79 705.85 670.36 C 704.71 671.35 703.59 672.37 702.34 673.20 C 703.05 670.12 703.79 667.02 705.00 664.09 C 706.77 664.17 707.90 665.91 709.32 666.79 C 708.87 663.26 708.35 658.83 711.44 656.28 Z" />
</g>
<g id="#1e1a1bff">
<path fill="#1e1a1b" opacity="1.00" d=" M 137.35 602.04 C 138.23 600.70 139.07 598.73 141.05 599.08 C 143.97 599.05 144.60 603.72 141.88 604.59 C 139.79 605.61 138.30 603.55 137.35 602.04 Z" />
</g>
<g id="#1f1b1cff">
<path fill="#1f1b1c" opacity="1.00" d=" M 722.34 617.96 C 721.24 615.84 723.44 614.32 725.00 613.45 C 726.26 614.31 728.09 615.11 727.87 617.00 C 727.94 620.00 723.24 620.71 722.34 617.96 Z" />
</g>
<g id="#fefefeff">
<path fill="#fefefe" opacity="1.00" d=" M 171.24 684.70 C 176.05 682.90 180.94 681.28 185.74 679.42 C 183.59 684.29 181.43 689.16 179.15 693.97 C 176.75 690.71 173.02 688.25 171.24 684.70 Z" />
</g>
<g id="#fefffeff">
<path fill="#fefffe" opacity="1.00" d=" M 577.73 781.98 C 578.44 778.58 580.88 775.84 583.53 773.74 C 584.78 776.55 586.05 779.34 587.42 782.10 C 586.03 784.10 584.85 786.91 582.06 787.15 C 579.62 786.69 577.68 784.48 577.73 781.98 Z" />
</g>
</svg>
