<?xml version="1.0" encoding="UTF-8" ?>
<!DOCTYPE svg PUBLIC "-//W3C//DTD SVG 1.1//EN" "http://www.w3.org/Graphics/SVG/1.1/DTD/svg11.dtd">
<svg width="640pt" height="640pt" viewBox="0 0 640 640" version="1.1" xmlns="http://www.w3.org/2000/svg">
<g id="#ffffffff">
<path fill="#ffffff" opacity="1.00" d=" M 0.00 0.00 L 640.00 0.00 L 640.00 640.00 L 0.00 640.00 L 0.00 0.00 M 170.55 67.71 C 126.33 94.05 89.59 132.62 64.94 177.78 C 49.48 206.83 38.38 238.34 33.39 270.91 C 31.29 281.13 31.21 291.59 30.04 301.92 C 29.16 318.05 29.94 334.21 31.59 350.26 C 36.14 390.64 49.46 429.92 69.99 464.97 C 99.27 514.47 143.56 555.06 195.66 579.49 C 224.89 593.57 256.70 602.29 289.01 605.19 C 296.29 606.41 303.71 606.06 311.06 606.42 C 328.45 606.72 345.87 605.83 363.05 603.04 C 427.64 592.91 487.82 558.99 531.20 510.24 C 574.21 462.25 600.35 399.38 603.92 335.03 C 605.37 318.71 604.41 302.32 602.94 286.05 C 596.16 222.10 567.71 160.44 522.64 114.47 C 489.55 79.95 447.45 54.18 401.73 40.19 C 397.56 38.84 393.32 36.92 388.83 37.48 C 374.65 51.44 359.56 64.42 345.02 77.99 C 337.55 84.18 330.98 91.36 323.50 97.54 C 319.66 101.31 315.47 104.70 311.68 108.52 C 337.70 108.08 363.85 112.29 388.23 121.47 C 418.27 132.62 445.61 151.02 467.20 174.71 C 496.00 205.46 514.66 245.40 520.56 287.06 C 522.40 302.30 523.95 317.75 521.94 333.06 C 518.54 385.42 493.83 435.80 455.28 471.25 C 427.30 496.95 392.14 514.98 354.70 521.75 C 343.94 524.10 332.89 524.48 321.95 525.28 C 313.28 525.88 304.65 524.58 296.01 524.13 C 258.72 520.45 222.66 505.90 193.02 483.02 C 165.54 461.79 143.34 433.68 129.43 401.84 C 114.60 368.50 109.08 331.22 112.82 294.97 C 117.32 249.86 137.03 206.26 168.33 173.41 C 179.28 161.60 192.09 151.79 203.60 140.57 C 236.66 110.66 269.44 80.44 302.45 50.48 C 310.38 42.50 319.40 35.70 327.17 27.57 C 272.55 25.40 217.39 39.49 170.55 67.71 M 294.03 162.45 C 263.31 167.12 234.09 181.23 211.35 202.41 C 206.36 206.09 202.69 211.09 198.51 215.59 C 182.24 234.62 170.79 257.63 165.11 282.00 C 161.06 298.94 161.04 316.46 161.95 333.75 C 163.52 346.42 166.28 359.01 170.83 370.97 C 175.59 384.32 182.66 396.73 190.69 408.36 C 213.46 439.66 247.95 462.39 286.02 469.90 C 292.31 471.23 298.70 472.13 305.12 472.51 C 319.19 472.81 333.45 473.27 347.25 470.07 C 359.52 467.91 371.31 463.59 382.69 458.64 C 398.49 451.40 412.69 441.10 425.48 429.41 C 440.58 414.47 452.87 396.65 461.16 377.07 C 464.42 368.22 467.87 359.38 469.47 350.04 C 472.63 337.96 472.89 325.41 472.68 312.99 C 472.86 298.44 470.12 283.95 465.79 270.10 C 458.17 245.55 444.36 222.93 425.96 204.98 C 422.49 201.34 418.23 198.57 414.86 194.83 C 414.41 194.67 413.52 194.36 413.07 194.21 C 401.37 184.21 387.43 177.09 373.21 171.38 C 363.75 167.70 354.00 164.54 343.89 163.27 L 343.06 162.77 C 331.10 161.72 319.03 159.52 307.03 161.34 C 302.70 161.79 298.29 161.39 294.03 162.45 Z" />
</g>
<g id="#999999ff">
<path fill="#999999" opacity="1.00" d=" M 170.55 67.71 C 217.39 39.49 272.55 25.40 327.17 27.57 C 319.40 35.70 310.38 42.50 302.45 50.48 C 269.44 80.44 236.66 110.66 203.60 140.57 C 192.09 151.79 179.28 161.60 168.33 173.41 C 137.03 206.26 117.32 249.86 112.82 294.97 C 109.08 331.22 114.60 368.50 129.43 401.84 C 143.34 433.68 165.54 461.79 193.02 483.02 C 222.66 505.90 258.72 520.45 296.01 524.13 C 304.65 524.58 313.28 525.88 321.95 525.28 C 332.89 524.48 343.94 524.10 354.70 521.75 C 392.14 514.98 427.30 496.95 455.28 471.25 C 493.83 435.80 518.54 385.42 521.94 333.06 C 523.95 317.75 522.40 302.30 520.56 287.06 C 514.66 245.40 496.00 205.46 467.20 174.71 C 445.61 151.02 418.27 132.62 388.23 121.47 C 363.85 112.29 337.70 108.08 311.68 108.52 C 315.47 104.70 319.66 101.31 323.50 97.54 C 330.98 91.36 337.55 84.18 345.02 77.99 C 359.56 64.42 374.65 51.44 388.83 37.48 C 393.32 36.92 397.56 38.84 401.73 40.19 C 447.45 54.18 489.55 79.95 522.64 114.47 C 567.71 160.44 596.16 222.10 602.94 286.05 C 604.41 302.32 605.37 318.71 603.92 335.03 C 600.35 399.38 574.21 462.25 531.20 510.24 C 487.82 558.99 427.64 592.91 363.05 603.04 C 345.87 605.83 328.45 606.72 311.06 606.42 C 303.71 606.06 296.29 606.41 289.01 605.19 C 256.70 602.29 224.89 593.57 195.66 579.49 C 143.56 555.06 99.27 514.47 69.99 464.97 C 49.46 429.92 36.14 390.64 31.59 350.26 C 29.94 334.21 29.16 318.05 30.04 301.92 C 31.21 291.59 31.29 281.13 33.39 270.91 C 38.38 238.34 49.48 206.83 64.94 177.78 C 89.59 132.62 126.33 94.05 170.55 67.71 Z" />
</g>
<g id="#f29c39ff">
<path fill="#f29c39" opacity="1.00" d=" M 294.03 162.45 C 298.29 161.39 302.70 161.79 307.03 161.34 C 319.03 159.52 331.10 161.72 343.06 162.77 L 343.89 163.27 C 354.00 164.54 363.75 167.70 373.21 171.38 C 387.43 177.09 401.37 184.21 413.07 194.21 C 413.52 194.36 414.41 194.67 414.86 194.83 C 418.23 198.57 422.49 201.34 425.96 204.98 C 444.36 222.93 458.17 245.55 465.79 270.10 C 470.12 283.95 472.86 298.44 472.68 312.99 C 472.89 325.41 472.63 337.96 469.47 350.04 C 467.87 359.38 464.42 368.22 461.16 377.07 C 452.87 396.65 440.58 414.47 425.48 429.41 C 412.69 441.10 398.49 451.40 382.69 458.64 C 371.31 463.59 359.52 467.91 347.25 470.07 C 333.45 473.27 319.19 472.81 305.12 472.51 C 298.70 472.13 292.31 471.23 286.02 469.90 C 247.95 462.39 213.46 439.66 190.69 408.36 C 182.66 396.73 175.59 384.32 170.83 370.97 C 166.28 359.01 163.52 346.42 161.95 333.75 C 161.04 316.46 161.06 298.94 165.11 282.00 C 170.79 257.63 182.24 234.62 198.51 215.59 C 202.69 211.09 206.36 206.09 211.35 202.41 C 234.09 181.23 263.31 167.12 294.03 162.45 Z" />
</g>
</svg>
