<?xml version="1.0" encoding="UTF-8" ?>
<!DOCTYPE svg PUBLIC "-//W3C//DTD SVG 1.1//EN" "http://www.w3.org/Graphics/SVG/1.1/DTD/svg11.dtd">
<svg width="316pt" height="316pt" viewBox="0 0 316 316" version="1.1" xmlns="http://www.w3.org/2000/svg">
<g id="#264d7fff">
<path fill="#264d7f" opacity="1.00" d=" M 46.06 8.99 C 46.04 7.77 46.46 6.71 47.33 5.82 L 47.24 6.99 C 46.79 11.31 46.35 15.65 46.45 20.01 C 46.57 33.07 46.48 46.14 46.52 59.20 C 46.54 63.55 46.56 67.89 46.56 72.24 C 46.57 76.21 46.62 80.18 46.62 84.15 C 46.62 87.51 46.60 90.88 46.60 94.25 C 46.61 97.88 46.63 101.52 46.65 105.16 C 46.66 108.46 46.68 111.77 46.68 115.08 C 46.67 118.72 46.69 122.36 46.70 126.00 C 46.71 129.05 46.73 132.09 46.80 135.13 C 46.89 138.47 47.02 141.81 47.12 145.15 C 54.83 146.70 62.62 145.20 70.31 144.28 C 92.95 141.10 114.03 130.12 130.93 114.93 C 141.10 105.17 150.03 93.98 156.39 81.36 C 157.75 78.80 157.57 75.85 157.54 73.05 C 161.22 75.34 164.95 77.57 168.67 79.79 C 168.57 82.46 168.72 85.26 167.67 87.78 C 164.41 95.33 159.58 102.12 153.83 107.98 C 128.78 123.29 103.59 138.39 78.34 153.34 C 75.08 154.40 71.81 155.41 68.54 156.43 C 61.64 158.64 54.30 158.20 47.15 158.23 C 46.79 162.89 46.88 167.57 47.08 172.24 C 46.84 172.41 46.37 172.75 46.14 172.92 C 46.37 146.55 46.12 120.17 46.12 93.80 C 46.09 90.95 46.09 88.11 46.11 85.26 C 46.13 59.84 46.24 34.41 46.06 8.99 Z" />
</g>
<g id="#73c8ecff">
<path fill="#73c8ec" opacity="1.00" d=" M 46.45 20.01 C 46.35 15.65 46.79 11.31 47.24 6.99 C 57.55 13.21 68.03 19.20 78.19 25.67 C 81.10 29.14 84.79 33.04 84.02 37.98 C 82.61 53.01 66.86 64.40 52.15 61.67 C 50.16 61.13 48.34 60.12 46.52 59.20 C 46.48 46.14 46.57 33.07 46.45 20.01 Z" />
</g>
<g id="#5eb5e1ff">
<path fill="#5eb5e1" opacity="1.00" d=" M 78.19 25.67 C 82.42 28.04 86.72 30.37 90.69 33.18 C 92.54 35.43 94.24 37.80 96.00 40.12 C 94.03 47.84 91.22 55.68 85.33 61.33 C 75.90 71.85 60.13 77.20 46.56 72.24 C 46.56 67.89 46.54 63.55 46.52 59.20 C 48.34 60.12 50.16 61.13 52.15 61.67 C 66.86 64.40 82.61 53.01 84.02 37.98 C 84.79 33.04 81.10 29.14 78.19 25.67 Z" />
</g>
<g id="#4da7d9ff">
<path fill="#4da7d9" opacity="1.00" d=" M 90.69 33.18 C 94.56 35.26 98.39 37.44 102.01 39.93 C 103.58 42.44 106.07 45.17 105.35 48.36 C 100.54 64.39 87.52 77.44 71.66 82.68 C 63.66 85.67 54.94 85.56 46.62 84.15 C 46.62 80.18 46.57 76.21 46.56 72.24 C 60.13 77.20 75.90 71.85 85.33 61.33 C 91.22 55.68 94.03 47.84 96.00 40.12 C 94.24 37.80 92.54 35.43 90.69 33.18 Z" />
</g>
<g id="#3e99d1ff">
<path fill="#3e99d1" opacity="1.00" d=" M 102.01 39.93 C 105.42 41.84 108.88 43.71 112.09 45.95 C 113.68 48.63 115.52 51.84 114.11 55.01 C 110.16 65.69 102.81 74.86 94.10 82.08 C 83.29 90.61 69.74 95.56 55.97 96.02 C 52.76 96.12 49.64 95.20 46.60 94.25 C 46.60 90.88 46.62 87.51 46.62 84.15 C 54.94 85.56 63.66 85.67 71.66 82.68 C 87.52 77.44 100.54 64.39 105.35 48.36 C 106.07 45.17 103.58 42.44 102.01 39.93 Z" />
</g>
<g id="#2f8ccaff">
<path fill="#2f8cca" opacity="1.00" d=" M 112.09 45.95 C 114.85 47.50 117.66 48.99 120.25 50.83 C 121.59 52.71 123.10 54.66 123.49 57.00 C 123.45 58.76 122.74 60.41 122.08 62.01 C 117.62 71.87 110.88 80.63 102.69 87.67 C 97.18 92.37 91.33 96.83 84.60 99.62 C 72.71 104.61 59.51 107.56 46.65 105.16 C 46.63 101.52 46.61 97.88 46.60 94.25 C 49.64 95.20 52.76 96.12 55.97 96.02 C 69.74 95.56 83.29 90.61 94.10 82.08 C 102.81 74.86 110.16 65.69 114.11 55.01 C 115.52 51.84 113.68 48.63 112.09 45.95 Z" />
</g>
<g id="#217fc3ff">
<path fill="#217fc3" opacity="1.00" d=" M 120.25 50.83 C 123.62 52.79 127.07 54.65 130.29 56.86 C 131.43 59.72 132.47 63.02 131.02 65.99 C 121.64 86.49 103.87 103.02 82.58 110.55 C 71.12 114.52 58.79 116.61 46.68 115.08 C 46.68 111.77 46.66 108.46 46.65 105.16 C 59.51 107.56 72.71 104.61 84.60 99.62 C 91.33 96.83 97.18 92.37 102.69 87.67 C 110.88 80.63 117.62 71.87 122.08 62.01 C 122.74 60.41 123.45 58.76 123.49 57.00 C 123.10 54.66 121.59 52.71 120.25 50.83 Z" />
</g>
<g id="#1473bbff">
<path fill="#1473bb" opacity="1.00" d=" M 130.29 56.86 C 133.21 58.55 136.21 60.12 138.98 62.06 C 140.24 64.40 142.01 67.11 140.88 69.85 C 126.07 103.59 90.02 127.14 53.02 126.06 C 50.91 126.05 48.81 126.02 46.70 126.00 C 46.69 122.36 46.67 118.72 46.68 115.08 C 58.79 116.61 71.12 114.52 82.58 110.55 C 103.87 103.02 121.64 86.49 131.02 65.99 C 132.47 63.02 131.43 59.72 130.29 56.86 Z" />
</g>
<g id="#1966a7ff">
<path fill="#1966a7" opacity="1.00" d=" M 138.98 62.06 C 142.29 63.91 145.50 65.93 148.80 67.81 C 148.76 71.21 148.53 74.72 146.85 77.75 C 141.67 87.76 135.12 97.15 126.79 104.80 C 116.95 115.23 104.27 122.35 91.41 128.37 C 81.66 132.75 70.99 134.43 60.44 135.55 C 55.90 136.06 51.31 135.77 46.80 135.13 C 46.73 132.09 46.71 129.05 46.70 126.00 C 48.81 126.02 50.91 126.05 53.02 126.06 C 90.02 127.14 126.07 103.59 140.88 69.85 C 142.01 67.11 140.24 64.40 138.98 62.06 Z" />
</g>
<g id="#205a93ff">
<path fill="#205a93" opacity="1.00" d=" M 148.80 67.81 C 151.67 69.62 154.58 71.38 157.54 73.05 C 157.57 75.85 157.75 78.80 156.39 81.36 C 150.03 93.98 141.10 105.17 130.93 114.93 C 114.03 130.12 92.95 141.10 70.31 144.28 C 62.62 145.20 54.83 146.70 47.12 145.15 C 47.02 141.81 46.89 138.47 46.80 135.13 C 51.31 135.77 55.90 136.06 60.44 135.55 C 70.99 134.43 81.66 132.75 91.41 128.37 C 104.27 122.35 116.95 115.23 126.79 104.80 C 135.12 97.15 141.67 87.76 146.85 77.75 C 148.53 74.72 148.76 71.21 148.80 67.81 Z" />
</g>
<g id="#2e3f67ff">
<path fill="#2e3f67" opacity="1.00" d=" M 168.67 79.79 C 171.73 81.67 174.83 83.48 177.93 85.29 C 180.16 86.59 182.36 87.96 184.55 89.34 C 182.43 90.92 180.31 92.51 178.04 93.86 C 169.76 98.21 162.02 103.49 153.83 107.98 C 159.58 102.12 164.41 95.33 167.67 87.78 C 168.72 85.26 168.57 82.46 168.67 79.79 Z" />
</g>
<g id="#5c5c5cfe">
<path fill="#5c5c5c" opacity="1.00" d=" M 6.31 85.31 C 19.58 85.31 32.85 85.40 46.11 85.26 C 46.09 88.11 46.09 90.95 46.12 93.80 C 45.35 93.79 43.79 93.78 43.01 93.77 C 30.77 93.76 18.53 93.78 6.29 93.75 C 6.33 90.94 6.33 88.13 6.31 85.31 Z" />
<path fill="#5c5c5c" opacity="1.00" d=" M 177.93 85.29 C 201.34 85.37 224.75 85.34 248.17 85.31 C 248.26 104.84 248.20 124.38 248.19 143.92 C 251.86 143.98 255.53 144.04 259.20 144.19 C 258.41 145.35 257.66 146.53 256.78 147.61 C 252.63 149.10 248.39 150.53 243.98 150.90 C 239.10 151.06 234.50 149.13 229.86 147.91 L 229.10 147.68 C 228.56 146.48 228.00 145.28 227.45 144.08 C 231.57 144.07 235.68 144.01 239.80 143.93 C 239.78 127.22 239.78 110.51 239.80 93.80 C 222.28 93.73 204.76 93.77 187.23 93.77 C 185.27 93.77 183.31 93.76 181.36 93.78 C 180.53 93.80 178.87 93.84 178.04 93.86 C 180.31 92.51 182.43 90.92 184.55 89.34 C 182.36 87.96 180.16 86.59 177.93 85.29 Z" />
</g>
<g id="#00000014">
<path fill="#000000" opacity="0.08" d=" M 43.01 93.77 C 43.79 93.78 45.35 93.79 46.12 93.80 C 46.12 120.17 46.37 146.55 46.14 172.92 C 46.37 172.75 46.84 172.41 47.08 172.24 C 47.79 171.79 48.52 171.35 49.25 170.93 C 54.59 173.31 59.16 169.03 63.47 166.51 C 98.00 145.67 132.70 125.10 167.20 104.22 C 172.18 101.14 178.01 98.89 181.36 93.78 C 183.31 93.76 185.27 93.77 187.23 93.77 C 185.53 98.72 180.46 100.78 176.41 103.40 C 156.77 115.08 137.36 127.14 117.57 138.56 C 98.76 150.20 79.74 161.49 60.71 172.74 C 57.40 174.69 54.03 177.21 50.01 177.15 C 46.53 177.25 43.82 174.04 43.25 170.83 C 42.68 167.25 42.93 163.61 42.92 160.00 C 43.02 137.92 42.83 115.84 43.01 93.77 Z" />
</g>
<g id="#00000031">
<path fill="#000000" opacity="0.19" d=" M 153.83 107.98 C 162.02 103.49 169.76 98.21 178.04 93.86 C 178.87 93.84 180.53 93.80 181.36 93.78 C 178.01 98.89 172.18 101.14 167.20 104.22 C 132.70 125.10 98.00 145.67 63.47 166.51 C 59.16 169.03 54.59 173.31 49.25 170.93 C 58.97 165.11 68.73 159.36 78.34 153.34 C 103.59 138.39 128.78 123.29 153.83 107.98 Z" />
</g>
<g id="#474747ff">
<path fill="#474747" opacity="1.00" d=" M 229.86 147.91 C 234.50 149.13 239.10 151.06 243.98 150.90 C 248.39 150.53 252.63 149.10 256.78 147.61 C 255.39 150.55 253.71 153.32 252.10 156.13 C 246.13 157.00 240.06 157.03 234.12 156.01 C 232.58 153.37 231.03 150.73 229.86 147.91 Z" />
</g>
<g id="#2d4069ff">
<path fill="#2d4069" opacity="1.00" d=" M 68.54 156.43 C 71.81 155.41 75.08 154.40 78.34 153.34 C 68.73 159.36 58.97 165.11 49.25 170.93 C 48.52 171.35 47.79 171.79 47.08 172.24 C 46.88 167.57 46.79 162.89 47.15 158.23 C 54.30 158.20 61.64 158.64 68.54 156.43 Z" />
</g>
<g id="#323131ff">
<path fill="#323131" opacity="1.00" d=" M 234.12 156.01 C 240.06 157.03 246.13 157.00 252.10 156.13 C 250.75 158.42 249.41 160.73 248.06 163.02 C 244.75 162.95 241.45 162.90 238.15 162.88 C 236.81 160.58 235.48 158.29 234.12 156.01 Z" />
</g>
<g id="#1e1d1dfd">
<path fill="#1e1d1d" opacity="1.00" d=" M 238.15 162.88 C 241.45 162.90 244.75 162.95 248.06 163.02 C 246.69 165.42 245.47 167.89 244.27 170.37 L 243.62 170.51 C 243.27 170.54 242.56 170.59 242.21 170.62 L 241.92 170.07 C 240.74 167.63 239.48 165.23 238.15 162.88 Z" />
</g>
<g id="#7c5222ac">
<path fill="#7c5222" opacity="0.67" d=" M 170.18 170.17 C 194.09 170.22 218.01 170.41 241.92 170.07 L 242.21 170.62 C 240.55 170.69 238.89 170.72 237.24 170.72 C 233.93 170.72 230.62 170.63 227.31 170.60 C 223.97 170.61 220.63 170.64 217.29 170.63 C 213.60 170.65 209.90 170.63 206.20 170.60 C 202.12 170.63 198.04 170.68 193.96 170.68 C 186.23 170.62 178.49 170.53 170.75 170.76 C 170.71 174.18 170.65 177.61 170.62 181.03 C 170.65 185.07 170.67 189.11 170.63 193.15 C 170.64 196.49 170.65 199.82 170.63 203.16 C 170.65 206.50 170.62 209.83 170.60 213.17 C 170.62 216.84 170.70 220.52 170.68 224.20 C 170.67 226.14 170.62 228.08 170.54 230.03 L 169.94 230.04 C 170.60 210.10 170.07 190.12 170.18 170.17 Z" />
</g>
<g id="#00000020">
<path fill="#000000" opacity="0.13" d=" M 244.27 170.37 C 245.81 170.04 247.38 169.80 248.96 169.77 C 268.66 169.99 288.36 169.74 308.05 169.87 C 309.93 169.88 310.26 171.91 310.86 173.26 C 312.41 176.95 312.80 180.99 312.84 184.96 C 312.83 222.98 312.80 261.01 312.85 299.03 C 312.88 303.27 312.23 307.47 311.49 311.64 C 308.38 312.36 305.23 312.99 302.03 313.01 C 263.36 312.95 224.68 312.96 186.00 312.99 C 181.69 312.83 177.10 313.63 173.01 311.97 C 169.17 310.18 169.66 305.51 169.64 301.99 C 169.95 278.01 169.38 254.02 169.94 230.04 L 170.54 230.03 C 170.48 231.41 170.44 232.79 170.42 234.17 C 170.39 237.18 170.41 240.18 170.40 243.19 C 170.41 246.81 170.42 250.43 170.40 254.05 C 170.41 257.75 170.41 261.45 170.39 265.16 C 170.40 268.49 170.40 271.82 170.38 275.15 C 170.39 280.82 170.43 286.50 170.39 292.18 C 170.38 297.86 170.39 303.54 170.45 309.23 C 186.86 309.29 203.28 309.37 219.70 309.20 C 230.38 309.34 241.06 309.36 251.75 309.22 C 259.76 309.30 267.77 309.37 275.79 309.25 C 286.93 309.31 298.08 309.36 309.22 309.23 C 309.33 299.09 309.26 288.96 309.25 278.82 C 309.35 272.47 309.23 266.13 309.23 259.78 C 309.34 252.43 309.26 245.08 309.20 237.73 C 309.33 216.06 309.27 194.39 309.24 172.72 C 309.13 172.31 308.93 171.49 308.83 171.08 C 307.72 170.46 306.53 170.23 305.25 170.37 C 299.55 170.47 293.85 170.38 288.15 170.38 C 284.81 170.41 281.47 170.40 278.14 170.39 C 274.50 170.42 270.87 170.41 267.24 170.40 C 263.55 170.42 259.87 170.42 256.19 170.41 C 253.16 170.42 250.13 170.39 247.11 170.40 C 246.24 170.43 244.49 170.48 243.62 170.51 L 244.27 170.37 Z" />
</g>
<g id="#e4ba51ff">
<path fill="#e4ba51" opacity="1.00" d=" M 170.75 170.76 C 178.49 170.53 186.23 170.62 193.96 170.68 C 195.29 171.92 196.61 173.15 197.94 174.38 C 195.83 177.98 193.48 181.71 189.67 183.71 C 185.62 186.09 180.67 186.72 176.09 185.91 C 173.55 185.35 172.23 182.82 170.62 181.03 C 170.65 177.61 170.71 174.18 170.75 170.76 Z" />
</g>
<g id="#e5ab49ff">
<path fill="#e5ab49" opacity="1.00" d=" M 193.96 170.68 C 198.04 170.68 202.12 170.63 206.20 170.60 C 207.36 172.37 209.56 174.16 208.54 176.51 C 204.45 189.60 190.50 198.32 176.97 197.06 C 174.34 196.86 172.51 194.75 170.63 193.15 C 170.67 189.11 170.65 185.07 170.62 181.03 C 172.23 182.82 173.55 185.35 176.09 185.91 C 180.67 186.72 185.62 186.09 189.67 183.71 C 193.48 181.71 195.83 177.98 197.94 174.38 C 196.61 173.15 195.29 171.92 193.96 170.68 Z" />
</g>
<g id="#e69e42ff">
<path fill="#e69e42" opacity="1.00" d=" M 206.20 170.60 C 209.90 170.63 213.60 170.65 217.29 170.63 C 218.31 173.38 219.52 176.38 218.35 179.29 C 212.93 196.02 195.56 208.26 177.92 207.13 C 174.91 207.20 172.68 205.04 170.63 203.16 C 170.65 199.82 170.64 196.49 170.63 193.15 C 172.51 194.75 174.34 196.86 176.97 197.06 C 190.50 198.32 204.45 189.60 208.54 176.51 C 209.56 174.16 207.36 172.37 206.20 170.60 Z" />
</g>
<g id="#e6913bff">
<path fill="#e6913b" opacity="1.00" d=" M 217.29 170.63 C 220.63 170.64 223.97 170.61 227.31 170.60 C 230.02 173.90 229.30 178.15 227.85 181.81 C 225.36 189.25 221.03 195.99 215.78 201.77 C 206.01 211.81 191.89 217.33 177.94 217.13 C 174.84 217.40 172.52 215.28 170.60 213.17 C 170.62 209.83 170.65 206.50 170.63 203.16 C 172.68 205.04 174.91 207.20 177.92 207.13 C 195.56 208.26 212.93 196.02 218.35 179.29 C 219.52 176.38 218.31 173.38 217.29 170.63 Z" />
</g>
<g id="#e78434ff">
<path fill="#e78434" opacity="1.00" d=" M 227.31 170.60 C 230.62 170.63 233.93 170.72 237.24 170.72 C 238.22 172.73 239.81 174.79 239.25 177.16 C 236.89 189.70 230.71 201.59 221.26 210.25 C 210.10 220.55 195.16 226.76 179.97 227.16 C 176.58 227.41 173.50 225.87 170.68 224.20 C 170.70 220.52 170.62 216.84 170.60 213.17 C 172.52 215.28 174.84 217.40 177.94 217.13 C 191.89 217.33 206.01 211.81 215.78 201.77 C 221.03 195.99 225.36 189.25 227.85 181.81 C 229.30 178.15 230.02 173.90 227.31 170.60 Z" />
</g>
<g id="#e7772eff">
<path fill="#e7772e" opacity="1.00" d=" M 237.24 170.72 C 238.89 170.72 240.55 170.69 242.21 170.62 C 242.56 170.59 243.27 170.54 243.62 170.51 C 244.49 170.48 246.24 170.43 247.11 170.40 C 248.38 172.73 249.97 175.26 249.20 178.04 C 246.59 190.91 241.28 203.53 232.20 213.20 C 218.68 228.51 198.36 237.50 177.94 237.04 C 175.20 236.86 172.80 235.40 170.42 234.17 C 170.44 232.79 170.48 231.41 170.54 230.03 C 170.62 228.08 170.67 226.14 170.68 224.20 C 173.50 225.87 176.58 227.41 179.97 227.16 C 195.16 226.76 210.10 220.55 221.26 210.25 C 230.71 201.59 236.89 189.70 239.25 177.16 C 239.81 174.79 238.22 172.73 237.24 170.72 Z" />
</g>
<g id="#e86a27ff">
<path fill="#e86a27" opacity="1.00" d=" M 247.11 170.40 C 250.13 170.39 253.16 170.42 256.19 170.41 C 257.30 172.64 258.97 174.91 258.60 177.55 C 255.07 201.37 240.42 223.50 219.30 235.29 C 210.30 240.21 200.57 244.17 190.32 245.42 C 183.65 246.27 176.28 247.26 170.40 243.19 C 170.41 240.18 170.39 237.18 170.42 234.17 C 172.80 235.40 175.20 236.86 177.94 237.04 C 198.36 237.50 218.68 228.51 232.20 213.20 C 241.28 203.53 246.59 190.91 249.20 178.04 C 249.97 175.26 248.38 172.73 247.11 170.40 Z" />
</g>
<g id="#e55f21ff">
<path fill="#e55f21" opacity="1.00" d=" M 256.19 170.41 C 259.87 170.42 263.55 170.42 267.24 170.40 C 269.03 172.83 270.62 175.66 269.92 178.80 C 267.61 195.81 260.45 212.21 249.21 225.22 C 238.25 238.26 223.43 247.82 207.39 253.37 C 198.54 256.29 189.17 257.25 179.93 257.94 C 176.25 258.38 173.22 256.03 170.40 254.05 C 170.42 250.43 170.41 246.81 170.40 243.19 C 176.28 247.26 183.65 246.27 190.32 245.42 C 200.57 244.17 210.30 240.21 219.30 235.29 C 240.42 223.50 255.07 201.37 258.60 177.55 C 258.97 174.91 257.30 172.64 256.19 170.41 Z" />
</g>
<g id="#dc551bff">
<path fill="#dc551b" opacity="1.00" d=" M 267.24 170.40 C 270.87 170.41 274.50 170.42 278.14 170.39 C 279.79 172.52 282.39 174.66 281.70 177.68 C 279.31 196.13 272.15 214.02 260.83 228.82 C 251.30 240.36 240.09 250.91 226.51 257.50 C 211.73 264.68 195.42 269.19 178.92 269.13 C 175.53 269.37 172.75 267.31 170.39 265.16 C 170.41 261.45 170.41 257.75 170.40 254.05 C 173.22 256.03 176.25 258.38 179.93 257.94 C 189.17 257.25 198.54 256.29 207.39 253.37 C 223.43 247.82 238.25 238.26 249.21 225.22 C 260.45 212.21 267.61 195.81 269.92 178.80 C 270.62 175.66 269.03 172.83 267.24 170.40 Z" />
</g>
<g id="#d24b16ff">
<path fill="#d24b16" opacity="1.00" d=" M 278.14 170.39 C 281.47 170.40 284.81 170.41 288.15 170.38 C 289.80 172.45 292.26 174.57 291.70 177.53 C 289.30 198.17 281.53 218.28 268.80 234.77 C 261.30 243.90 252.91 252.49 243.00 259.01 C 224.65 271.93 202.25 278.49 179.95 279.24 C 176.18 279.69 172.95 277.66 170.38 275.15 C 170.40 271.82 170.40 268.49 170.39 265.16 C 172.75 267.31 175.53 269.37 178.92 269.13 C 195.42 269.19 211.73 264.68 226.51 257.50 C 240.09 250.91 251.30 240.36 260.83 228.82 C 272.15 214.02 279.31 196.13 281.70 177.68 C 282.39 174.66 279.79 172.52 278.14 170.39 Z" />
</g>
<g id="#c63f0eff">
<path fill="#c63f0e" opacity="1.00" d=" M 288.15 170.38 C 293.85 170.38 299.55 170.47 305.25 170.37 C 307.48 182.20 305.66 194.40 301.63 205.63 C 292.55 233.78 273.55 258.73 248.45 274.46 C 228.23 287.78 203.97 293.92 179.96 295.02 C 176.52 295.27 173.37 293.68 170.39 292.18 C 170.43 286.50 170.39 280.82 170.38 275.15 C 172.95 277.66 176.18 279.69 179.95 279.24 C 202.25 278.49 224.65 271.93 243.00 259.01 C 252.91 252.49 261.30 243.90 268.80 234.77 C 281.53 218.28 289.30 198.17 291.70 177.53 C 292.26 174.57 289.80 172.45 288.15 170.38 Z" />
</g>
<g id="#b42d04ff">
<path fill="#b42d04" opacity="1.00" d=" M 305.25 170.37 C 306.53 170.23 307.72 170.46 308.83 171.08 C 308.93 171.49 309.13 172.31 309.24 172.72 C 309.27 194.39 309.33 216.06 309.20 237.73 C 307.60 243.68 306.97 250.15 303.33 255.31 C 288.51 276.19 268.15 293.05 245.00 303.95 C 237.08 307.76 228.05 307.01 219.70 309.20 C 203.28 309.37 186.86 309.29 170.45 309.23 C 170.39 303.54 170.38 297.86 170.39 292.18 C 173.37 293.68 176.52 295.27 179.96 295.02 C 203.97 293.92 228.23 287.78 248.45 274.46 C 273.55 258.73 292.55 233.78 301.63 205.63 C 305.66 194.40 307.48 182.20 305.25 170.37 Z" />
</g>
<g id="#9c260cff">
<path fill="#9c260c" opacity="1.00" d=" M 303.33 255.31 C 306.97 250.15 307.60 243.68 309.20 237.73 C 309.26 245.08 309.34 252.43 309.23 259.78 C 307.76 264.43 306.12 269.17 303.07 273.05 C 292.79 284.86 280.75 295.07 267.72 303.74 C 262.85 306.67 257.13 307.61 251.75 309.22 C 241.06 309.36 230.38 309.34 219.70 309.20 C 228.05 307.01 237.08 307.76 245.00 303.95 C 268.15 293.05 288.51 276.19 303.33 255.31 Z" />
</g>
<g id="#8d2617ff">
<path fill="#8d2617" opacity="1.00" d=" M 303.07 273.05 C 306.12 269.17 307.76 264.43 309.23 259.78 C 309.23 266.13 309.35 272.47 309.25 278.82 C 306.80 289.24 297.74 295.53 290.27 302.28 C 286.16 305.86 280.90 307.65 275.79 309.25 C 267.77 309.37 259.76 309.30 251.75 309.22 C 257.13 307.61 262.85 306.67 267.72 303.74 C 280.75 295.07 292.79 284.86 303.07 273.05 Z" />
</g>
<g id="#7b2624ff">
<path fill="#7b2624" opacity="1.00" d=" M 290.27 302.28 C 297.74 295.53 306.80 289.24 309.25 278.82 C 309.26 288.96 309.33 299.09 309.22 309.23 C 298.08 309.36 286.93 309.31 275.79 309.25 C 280.90 307.65 286.16 305.86 290.27 302.28 Z" />
</g>
</svg>
